<?xml version="1.0" encoding="utf-8"?>
<!-- Generator: Adobe Illustrator 16.0.3, SVG Export Plug-In . SVG Version: 6.00 Build 0)  -->
<!DOCTYPE svg PUBLIC "-//W3C//DTD SVG 1.1//EN" "http://www.w3.org/Graphics/SVG/1.1/DTD/svg11.dtd">
<svg version="1.1"
	 id="svg815" inkscape:export-ydpi="96" inkscape:export-xdpi="96" inkscape:version="0.92.5 (2060ec1f9f, 2020-04-08)" sodipodi:docname="Fig-1.svg" xmlns:dc="http://purl.org/dc/elements/1.1/" xmlns:cc="http://creativecommons.org/ns#" xmlns:rdf="http://www.w3.org/1999/02/22-rdf-syntax-ns#" xmlns:svg="http://www.w3.org/2000/svg" xmlns:sodipodi="http://sodipodi.sourceforge.net/DTD/sodipodi-0.dtd" xmlns:inkscape="http://www.inkscape.org/namespaces/inkscape" inkscape:export-filename="/home/strange/Projects/rf1-mbme-pilot/derivatives/figures/Fig-1.png"
	 xmlns="http://www.w3.org/2000/svg" xmlns:xlink="http://www.w3.org/1999/xlink" x="0px" y="0px" width="510.236px"
	 height="510.236px" viewBox="52.379 51.199 510.236 510.236" enable-background="new 52.379 51.199 510.236 510.236"
	 xml:space="preserve">
<sodipodi:namedview  id="namedview817" fit-margin-top="1" fit-margin-left="1" inkscape:cy="251.33928" guidetolerance="10" gridtolerance="10" inkscape:cx="365.09024" objecttolerance="10" inkscape:zoom="1.3857374" borderopacity="1" bordercolor="#666666" showgrid="false" pagecolor="#ffffff" inkscape:window-maximized="1" fit-margin-bottom="1" fit-margin-right="1" inkscape:current-layer="svg815" inkscape:window-y="27" inkscape:window-x="66" inkscape:window-height="1016" inkscape:window-width="1854" inkscape:pageshadow="2" inkscape:pageopacity="0">
	</sodipodi:namedview>
<image overflow="visible" enable-background="new    " width="1872" height="1152" id="image3397" xlink:href="FFCFC0BC.png"  transform="matrix(0.307 0 0 0.3031 -557.8589 -51.1611)">
</image>
<g id="flowRoot3628" transform="translate(4.0487138,54.268024)">
</g>
<g id="flowRoot3458" transform="translate(-1.578811,54.268024)">
</g>
<g id="flowRoot3493" transform="translate(-2.2838542,36.651759)">
</g>
<g id="flowRoot3493-6" transform="translate(1.8195273,162.21666)" inkscape:transform-center-x="-21.649123" inkscape:transform-center-y="0.72163743">
</g>
<g id="flowRoot3458-5" transform="translate(226.18153,53.555134)">
</g>
<g id="flowRoot3493-6-7" transform="translate(214.01003,62.574148)" inkscape:transform-center-x="-21.649123" inkscape:transform-center-y="0.72163743">
</g>
<g id="flowRoot3458-5-6" transform="translate(441.02818,53.555134)">
</g>
<g id="flowRoot3779" transform="translate(4.0487138,54.268024)">
</g>
<g id="flowRoot3493-0" transform="translate(450.84566,162.9383)">
</g>
<g id="flowRoot3493-6-5" transform="translate(460.64786,34.430289)" inkscape:transform-center-x="-21.649123" inkscape:transform-center-y="0.72163743">
</g>
<g id="flowRoot3929" transform="translate(4.0487138,54.268024)">
</g>
<image overflow="visible" width="1872" height="1152" xlink:href="../../../../../OneDrive - Temple University/SmithLab - TU-CLA-Psych-Smith-Lab/Manuscripts/2022_Smith_RF1-SequencePilot/Figures/FinalDrafts/OriginalDrafts/reward_processing_task_no-text.png"  transform="matrix(0.2648 0 0 0.2648 67.1069 51.1992)">
</image>
<g>
	<defs>
		<path id="SVGID_1_" d="M162.099,349.764H79.448c-4.672,0-8.46,4.608-8.46,10.294v76.002c0,5.686,3.788,10.294,8.46,10.294h82.651
			c4.673,0,8.461-4.608,8.461-10.294v-76.002C170.56,354.372,166.771,349.764,162.099,349.764z"/>
	</defs>
	<clipPath id="SVGID_2_">
		<use xlink:href="#SVGID_1_"  overflow="visible"/>
	</clipPath>
	<g transform="matrix(1 0 0 1 -2.043362e-005 -2.211185e-005)" clip-path="url(#SVGID_2_)" enable-background="new    ">
		
			<image overflow="visible" width="1850" height="503" id="image3455" xlink:href="FFCFC0BB.png"  transform="matrix(-0.2527 0 0 0.2527 366.3633 326.1689)">
		</image>
	</g>
</g>
<g>
	<defs>
		<path id="SVGID_3_" d="M158.73,442.057H76.207c-5.231,0-9.473,5.159-9.473,11.525v95.773c0,6.365,4.242,11.526,9.473,11.526
			h82.523c5.232,0,9.473-5.161,9.473-11.526v-95.773C168.203,447.216,163.962,442.057,158.73,442.057z"/>
	</defs>
	<clipPath id="SVGID_4_">
		<use xlink:href="#SVGID_3_"  overflow="visible"/>
	</clipPath>
	<g transform="matrix(1 0 0 1 2.050534e-005 2.561256e-005)" clip-path="url(#SVGID_4_)" enable-background="new    ">
		
			<image overflow="visible" width="1850" height="503" id="image3455-3" xlink:href="FFCFC0C4.png"  transform="matrix(-0.2829 0 0 0.2829 561.3711 416.9756)">
		</image>
	</g>
</g>
<g>
	<defs>
		<path id="SVGID_5_" d="M364.024,354.964H254.836c-3.602,0-6.521,3.578-6.521,7.993v102.997c0,4.413,2.919,7.993,6.521,7.993
			h109.188c3.601,0,6.521-3.58,6.521-7.993V362.957C370.545,358.542,367.625,354.964,364.024,354.964z"/>
	</defs>
	<clipPath id="SVGID_6_">
		<use xlink:href="#SVGID_5_"  overflow="visible"/>
	</clipPath>
	<g id="figure_1" transform="matrix(-0.48702192,0,0,0.4906918,878.79645,333.79224)" clip-path="url(#SVGID_6_)">
		
			<image overflow="visible" enable-background="new    " width="1850" height="503" id="imagef1fa136611" xlink:href="FFCFC0C7.png"  transform="matrix(0.5949 0 0 -0.5949 242.9917 290.8834)">
		</image>
	</g>
</g>
<g>
	<defs>
		<path id="SVGID_7_" d="M530.87,454.98h-79.172c-3.987,0-7.22,3.933-7.22,8.783v76.552c0,4.851,3.232,8.784,7.22,8.784h79.172
			c3.986,0,7.219-3.934,7.219-8.784v-76.552C538.089,458.913,534.857,454.98,530.87,454.98z"/>
	</defs>
	<clipPath id="SVGID_8_">
		<use xlink:href="#SVGID_7_"  overflow="visible"/>
	</clipPath>
	<g id="figure_1-7" transform="matrix(-0.37259046,0,0,0.37259046,814.4213,461.05624)" clip-path="url(#SVGID_8_)">
		
			<image overflow="visible" enable-background="new    " width="1850" height="503" id="image7699c06e8d" xlink:href="FFCFC0C5.png"  transform="matrix(0.5949 0 0 -0.5949 287.5992 228.8861)">
		</image>
	</g>
</g>
<g>
	<defs>
		<path id="SVGID_9_" d="M532.615,347.995h-82.664c-4.999,0-9.05,4.93-9.05,11.012v78.104c0,6.081,4.051,11.01,9.05,11.01h82.664
			c4.999,0,9.05-4.929,9.05-11.01v-78.104C541.665,352.925,537.614,347.995,532.615,347.995z"/>
	</defs>
	<clipPath id="SVGID_10_">
		<use xlink:href="#SVGID_9_"  overflow="visible"/>
	</clipPath>
	<g id="figure_1-7-9" transform="matrix(-0.46706737,0,0,0.46706737,1077.1213,323.84872)" clip-path="url(#SVGID_10_)">
		
			<image overflow="visible" enable-background="new    " width="1850" height="503" id="image7699c06e8d-2" xlink:href="FFCFC0CB.png"  transform="matrix(0.5949 0 0 -0.5949 327.1602 294.1643)">
		</image>
	</g>
</g>
</svg>
