<?xml version="1.0" encoding="utf-8"?>
<!-- Generator: Adobe Illustrator 16.0.3, SVG Export Plug-In . SVG Version: 6.00 Build 0)  -->
<!DOCTYPE svg PUBLIC "-//W3C//DTD SVG 1.1//EN" "http://www.w3.org/Graphics/SVG/1.1/DTD/svg11.dtd">
<svg version="1.1" id="Layer_1" xmlns="http://www.w3.org/2000/svg" xmlns:xlink="http://www.w3.org/1999/xlink" x="0px" y="0px"
	 width="510.236px" height="266.5px" viewBox="-134.646 0 510.236 266.5" enable-background="new -134.646 0 510.236 266.5"
	 xml:space="preserve">
<path fill="#3274A1" d="M66.29,241.483v-44.067H53.189v44.067H66.29"/>
<path fill="#3274A1" d="M99.045,241.483v-40.009H85.943v40.009H99.045"/>
<path fill="#3274A1" d="M131.799,241.483v-38.727h-13.102v38.727H131.799"/>
<path fill="#E1812C" d="M66.29,241.483h13.102v-75.53H66.29V241.483z"/>
<path fill="#E1812C" d="M99.045,241.483h13.102V189.65H99.045V241.483"/>
<path fill="#E1812C" d="M131.799,241.483H144.9V212.49h-13.102V241.483z"/>
<path fill="none" stroke="#424242" stroke-linecap="square" stroke-linejoin="round" d="M59.74,203.364V192.12"/>
<path fill="none" stroke="#424242" stroke-linecap="square" stroke-linejoin="round" d="M92.493,207.206v-10.887"/>
<path fill="none" stroke="#424242" stroke-linecap="square" stroke-linejoin="round" d="M125.248,207.595v-9.364"/>
<path fill="none" stroke="#424242" stroke-linecap="square" stroke-linejoin="round" d="M72.842,171.462V161.32"/>
<path fill="none" stroke="#424242" stroke-linecap="square" stroke-linejoin="round" d="M105.596,195.278v-10.565"/>
<path fill="none" stroke="#424242" stroke-linecap="square" stroke-linejoin="round" d="M138.35,215.199v-5.105"/>
<g id="mask_x5F_VS.tif">
	<g>
		<g>
			<defs>
				<rect id="SVGID_1_" x="-123.354" y="72.051" width="133.811" height="139.801"/>
			</defs>
			<clipPath id="SVGID_2_">
				<use xlink:href="#SVGID_1_"  overflow="visible"/>
			</clipPath>
			<g transform="matrix(1 0 0 1 7.233612e-006 -5.916445e-007)" clip-path="url(#SVGID_2_)">
				
					<image overflow="visible" enable-background="new    " width="508" height="520" id="Background" xlink:href="E3A5C720.jpg"  transform="matrix(0.2634 0 0 0.2634 -123.3621 72.061)">
				</image>
			</g>
		</g>
	</g>
	<g>
		<g>
			<defs>
				<rect id="SVGID_3_" x="-123.354" y="72.051" width="133.811" height="139.801"/>
			</defs>
			<clipPath id="SVGID_4_">
				<use xlink:href="#SVGID_3_"  overflow="visible"/>
			</clipPath>
			<g transform="matrix(1 0 0 1 7.542345e-006 1.810095e-007)" clip-path="url(#SVGID_4_)">
				
					<image overflow="visible" enable-background="new    " width="400" height="388" id="Layer_1_1_" xlink:href="E3A5C720.png"  transform="matrix(0.2646 0 0 0.2646 -109.5208 87.7378)">
				</image>
			</g>
		</g>
	</g>
</g>
<path id="m7a7075d8d9_12_" stroke="#000000" stroke-width="0.8" stroke-linejoin="round" d="M212.123,55.222"/>
<path id="m7a7075d8d9_14_" stroke="#000000" stroke-width="0.8" stroke-linejoin="round" d="M212.123,40.56h-1.065"/>
<g id="figure_1_1_">
	<g id="axes_1_1_">
		<g id="patch_2_1_">
			<path fill="#FFFFFF" d="M308.805,28.991h-98.891v90.393h98.891"/>
		</g>
		<g id="patch_3_1_">
			<g>
				<g>
					<g>
						<g>
							<defs>
								<polyline id="SVGID_5_" points="308.805,119.384 209.915,119.384 209.915,28.991 308.805,28.991 								"/>
							</defs>
							<clipPath id="SVGID_6_">
								<use xlink:href="#SVGID_5_"  overflow="visible"/>
							</clipPath>
							<path clip-path="url(#SVGID_6_)" fill="#3274A1" d="M213.212,67.958v31.295"/>
						</g>
					</g>
				</g>
			</g>
		</g>
		<g id="patch_4_1_">
			<g>
				<g>
					<g>
						<g>
							<defs>
								<polyline id="SVGID_7_" points="308.805,119.384 209.915,119.384 209.915,28.991 308.805,28.991 								"/>
							</defs>
							<clipPath id="SVGID_8_">
								<use xlink:href="#SVGID_7_"  overflow="visible"/>
							</clipPath>
						</g>
					</g>
				</g>
			</g>
		</g>
		<g id="patch_5_1_">
			<g>
				<g>
					<g>
						<g>
							<defs>
								<polyline id="SVGID_9_" points="308.805,119.384 209.915,119.384 209.915,28.991 308.805,28.991 								"/>
							</defs>
							<clipPath id="SVGID_10_">
								<use xlink:href="#SVGID_9_"  overflow="visible"/>
							</clipPath>
						</g>
					</g>
				</g>
			</g>
		</g>
		<g id="patch_6_1_">
			<g>
				<g>
					<g>
						<g>
							<defs>
								<polyline id="SVGID_11_" points="308.805,119.384 209.915,119.384 209.915,28.991 308.805,28.991 								"/>
							</defs>
							<clipPath id="SVGID_12_">
								<use xlink:href="#SVGID_11_"  overflow="visible"/>
							</clipPath>
						</g>
					</g>
				</g>
			</g>
		</g>
		<g id="patch_7_1_">
			<g>
				<g>
					<g>
						<g>
							<defs>
								<polyline id="SVGID_13_" points="308.805,119.384 209.915,119.384 209.915,28.991 308.805,28.991 								"/>
							</defs>
							<clipPath id="SVGID_14_">
								<use xlink:href="#SVGID_13_"  overflow="visible"/>
							</clipPath>
						</g>
					</g>
				</g>
			</g>
		</g>
		<g id="patch_8_1_">
			<g>
				<g>
					<g>
						<g>
							<defs>
								<polyline id="SVGID_15_" points="308.805,119.384 209.915,119.384 209.915,28.991 308.805,28.991 								"/>
							</defs>
							<clipPath id="SVGID_16_">
								<use xlink:href="#SVGID_15_"  overflow="visible"/>
							</clipPath>
						</g>
					</g>
				</g>
			</g>
		</g>
		<g id="matplotlib.axis_2_1_">
			<g id="ytick_1_1_">
				<g id="line2d_4_1_">
					<g>
						<g>
							<path id="mf313588ff5" stroke="#000000" stroke-width="0.8" stroke-linejoin="round" d="M209.915,114.015h-1.079"/>
						</g>
					</g>
				</g>
				<g id="text_5_1_">
					<text transform="matrix(1 0 0 1 198.3728 116.1855)" font-family="'ArialMT'" font-size="6">−50</text>
				</g>
			</g>
			<g id="ytick_2_1_">
				<g id="line2d_5_1_">
					<g>
						<g>
							<path id="mf313588ff5_1_" stroke="#000000" stroke-width="0.8" stroke-linejoin="round" d="M209.915,99.253h-1.079"/>
						</g>
					</g>
				</g>
				<g id="text_6_1_">
					<text transform="matrix(1 0 0 1 204.531 101.2822)" font-family="'ArialMT'" font-size="6">0</text>
				</g>
			</g>
			<g id="ytick_3_1_">
				<g id="line2d_6_1_">
					<g>
						<g>
							<path id="mf313588ff5_2_" stroke="#000000" stroke-width="0.8" stroke-linejoin="round" d="M209.915,84.495h-1.079"/>
						</g>
					</g>
				</g>
				<g id="text_7_1_">
					<text transform="matrix(1 0 0 1 201.5837 86.665)" font-family="'ArialMT'" font-size="6">50</text>
				</g>
			</g>
			<g id="ytick_4_1_">
				<g id="line2d_7_1_">
					<g>
						<g>
							<path id="mf313588ff5_12_" stroke="#000000" stroke-width="0.8" stroke-linejoin="round" d="M209.915,69.732"/>
						</g>
					</g>
				</g>
			</g>
			<g id="ytick_5_1_">
				<g id="line2d_8_1_">
					<g>
						<g>
							<path id="mf313588ff5_4_" stroke="#000000" stroke-width="0.8" stroke-linejoin="round" d="M209.915,54.974h-1.079"/>
						</g>
					</g>
				</g>
				<g id="text_9_1_">
					<text transform="matrix(1 0 0 1 198.1228 57.001)" font-family="'ArialMT'" font-size="6">150</text>
				</g>
			</g>
			<g id="ytick_6_1_">
				<g id="line2d_9_1_">
					<g>
						<g>
							<path id="mf313588ff5_5_" stroke="#000000" stroke-width="0.8" stroke-linejoin="round" d="M209.915,40.214h-1.079"/>
						</g>
					</g>
				</g>
			</g>
		</g>
		<g id="line2d_10_1_">
			<g>
				<g>
					<g>
						<g>
							<defs>
								<polyline id="SVGID_17_" points="308.805,119.384 209.915,119.384 209.915,28.991 308.805,28.991 								"/>
							</defs>
							<clipPath id="SVGID_18_">
								<use xlink:href="#SVGID_17_"  overflow="visible"/>
							</clipPath>
						</g>
					</g>
				</g>
			</g>
		</g>
		<g id="line2d_11_1_">
			<g>
				<g>
					<g>
						<g>
							<defs>
								<polyline id="SVGID_19_" points="308.805,119.384 209.915,119.384 209.915,28.991 308.805,28.991 								"/>
							</defs>
							<clipPath id="SVGID_20_">
								<use xlink:href="#SVGID_19_"  overflow="visible"/>
							</clipPath>
						</g>
					</g>
				</g>
			</g>
		</g>
		<g id="line2d_12_1_">
			<g>
				<g>
					<g>
						<g>
							<defs>
								<polyline id="SVGID_21_" points="308.805,119.384 209.915,119.384 209.915,28.991 308.805,28.991 								"/>
							</defs>
							<clipPath id="SVGID_22_">
								<use xlink:href="#SVGID_21_"  overflow="visible"/>
							</clipPath>
						</g>
					</g>
				</g>
			</g>
		</g>
		<g id="line2d_13_1_">
			<g>
				<g>
					<g>
						<g>
							<defs>
								<polyline id="SVGID_23_" points="308.805,119.384 209.915,119.384 209.915,28.991 308.805,28.991 								"/>
							</defs>
							<clipPath id="SVGID_24_">
								<use xlink:href="#SVGID_23_"  overflow="visible"/>
							</clipPath>
						</g>
					</g>
				</g>
			</g>
		</g>
		<g id="line2d_14_1_">
			<g>
				<g>
					<g>
						<g>
							<defs>
								<polyline id="SVGID_25_" points="308.805,119.384 209.915,119.384 209.915,28.991 308.805,28.991 								"/>
							</defs>
							<clipPath id="SVGID_26_">
								<use xlink:href="#SVGID_25_"  overflow="visible"/>
							</clipPath>
						</g>
					</g>
				</g>
			</g>
		</g>
		<g id="line2d_15_1_">
			<g>
				<g>
					<g>
						<g>
							<defs>
								<polyline id="SVGID_27_" points="308.805,119.384 209.915,119.384 209.915,28.991 308.805,28.991 								"/>
							</defs>
							<clipPath id="SVGID_28_">
								<use xlink:href="#SVGID_27_"  overflow="visible"/>
							</clipPath>
						</g>
					</g>
				</g>
			</g>
		</g>
		<g id="patch_9_1_">
			<path fill="none" stroke="#000000" stroke-width="0.8" stroke-linecap="square" d="M209.915,119.384V28.991"/>
		</g>
		<g id="patch_10_1_">
			<path fill="none" stroke="#000000" stroke-width="0.8" stroke-linecap="square" d="M209.915,119.384h98.891"/>
		</g>
	</g>
	<g id="axes_2_1_">
		<g id="patch_12_1_">
			<g>
				<g>
					<g>
						<g>
							<defs>
								<polyline id="SVGID_29_" points="309.335,241.384 210.444,241.384 210.444,150.991 309.335,150.991 								"/>
							</defs>
							<clipPath id="SVGID_30_">
								<use xlink:href="#SVGID_29_"  overflow="visible"/>
							</clipPath>
							<path clip-path="url(#SVGID_30_)" fill="#3274A1" d="M213.741,216.448v4.805"/>
						</g>
					</g>
				</g>
			</g>
		</g>
		<g id="patch_13_1_">
			<g>
				<g>
					<g>
						<g>
							<defs>
								<polyline id="SVGID_31_" points="309.335,241.384 210.444,241.384 210.444,150.991 309.335,150.991 								"/>
							</defs>
							<clipPath id="SVGID_32_">
								<use xlink:href="#SVGID_31_"  overflow="visible"/>
							</clipPath>
						</g>
					</g>
				</g>
			</g>
		</g>
		<g id="patch_14_1_">
			<g>
				<g>
					<g>
						<g>
							<defs>
								<polyline id="SVGID_33_" points="309.335,241.384 210.444,241.384 210.444,150.991 309.335,150.991 								"/>
							</defs>
							<clipPath id="SVGID_34_">
								<use xlink:href="#SVGID_33_"  overflow="visible"/>
							</clipPath>
						</g>
					</g>
				</g>
			</g>
		</g>
		<g id="patch_15_1_">
			<g>
				<g>
					<g>
						<g>
							<defs>
								<polyline id="SVGID_35_" points="309.335,241.384 210.444,241.384 210.444,150.991 309.335,150.991 								"/>
							</defs>
							<clipPath id="SVGID_36_">
								<use xlink:href="#SVGID_35_"  overflow="visible"/>
							</clipPath>
						</g>
					</g>
				</g>
			</g>
		</g>
		<g id="patch_16_1_">
			<g>
				<g>
					<g>
						<g>
							<defs>
								<polyline id="SVGID_37_" points="309.335,241.384 210.444,241.384 210.444,150.991 309.335,150.991 								"/>
							</defs>
							<clipPath id="SVGID_38_">
								<use xlink:href="#SVGID_37_"  overflow="visible"/>
							</clipPath>
						</g>
					</g>
				</g>
			</g>
		</g>
		<g id="patch_17_1_">
			<g>
				<g>
					<g>
						<g>
							<defs>
								<polyline id="SVGID_39_" points="309.335,241.384 210.444,241.384 210.444,150.991 309.335,150.991 								"/>
							</defs>
							<clipPath id="SVGID_40_">
								<use xlink:href="#SVGID_39_"  overflow="visible"/>
							</clipPath>
						</g>
					</g>
				</g>
			</g>
		</g>
		<g id="matplotlib.axis_4_1_">
			<g id="ytick_7_1_">
				<g id="line2d_19_1_">
					<g>
						<g>
							<path id="mf313588ff5_6_" stroke="#000000" stroke-width="0.8" stroke-linejoin="round" d="M210.444,236.015h-1.08"/>
						</g>
					</g>
				</g>
			</g>
			<g id="ytick_8_1_">
				<g id="line2d_20_1_">
					<g>
						<g>
							<path id="mf313588ff5_7_" stroke="#000000" stroke-width="0.8" stroke-linejoin="round" d="M210.444,221.253h-1.08"/>
						</g>
					</g>
				</g>
			</g>
			<g id="ytick_9_1_">
				<g id="line2d_21_1_">
					<g>
						<g>
							<path id="mf313588ff5_8_" stroke="#000000" stroke-width="0.8" stroke-linejoin="round" d="M210.444,206.495h-1.08"/>
						</g>
					</g>
				</g>
			</g>
			<g id="ytick_10_1_">
				<g id="line2d_22_1_">
					<g>
						<g>
							<path id="mf313588ff5_9_" stroke="#000000" stroke-width="0.8" stroke-linejoin="round" d="M210.444,191.732h-1.08"/>
						</g>
					</g>
				</g>
			</g>
			<g id="ytick_11_1_">
				<g id="line2d_23_1_">
					<g>
						<g>
							<path id="mf313588ff5_10_" stroke="#000000" stroke-width="0.8" stroke-linejoin="round" d="M210.444,176.974h-1.08"/>
						</g>
					</g>
				</g>
			</g>
			<g id="ytick_12_1_">
				<g id="line2d_24_1_">
					<g>
						<g>
							<path id="mf313588ff5_11_" stroke="#000000" stroke-width="0.8" stroke-linejoin="round" d="M210.444,162.214h-1.08"/>
						</g>
					</g>
				</g>
			</g>
		</g>
		<g id="line2d_25_1_">
			<g>
				<g>
					<g>
						<g>
							<defs>
								<polyline id="SVGID_41_" points="309.335,241.384 210.444,241.384 210.444,150.991 309.335,150.991 								"/>
							</defs>
							<clipPath id="SVGID_42_">
								<use xlink:href="#SVGID_41_"  overflow="visible"/>
							</clipPath>
							<path clip-path="url(#SVGID_42_)" fill="none" stroke="#424242" stroke-linecap="square" stroke-linejoin="round" d="
								M220.333,237.271"/>
						</g>
					</g>
				</g>
			</g>
		</g>
		<g id="line2d_26_1_">
			<g>
				<g>
					<g>
						<g>
							<defs>
								<polyline id="SVGID_43_" points="309.335,241.384 210.444,241.384 210.444,150.991 309.335,150.991 								"/>
							</defs>
							<clipPath id="SVGID_44_">
								<use xlink:href="#SVGID_43_"  overflow="visible"/>
							</clipPath>
						</g>
					</g>
				</g>
			</g>
		</g>
		<g id="line2d_27_1_">
			<g>
				<g>
					<g>
						<g>
							<defs>
								<polyline id="SVGID_45_" points="309.335,241.384 210.444,241.384 210.444,150.991 309.335,150.991 								"/>
							</defs>
							<clipPath id="SVGID_46_">
								<use xlink:href="#SVGID_45_"  overflow="visible"/>
							</clipPath>
						</g>
					</g>
				</g>
			</g>
		</g>
		<g id="line2d_28_1_">
			<g>
				<g>
					<g>
						<g>
							<defs>
								<polyline id="SVGID_47_" points="309.335,241.384 210.444,241.384 210.444,150.991 309.335,150.991 								"/>
							</defs>
							<clipPath id="SVGID_48_">
								<use xlink:href="#SVGID_47_"  overflow="visible"/>
							</clipPath>
						</g>
					</g>
				</g>
			</g>
		</g>
		<g id="line2d_29_1_">
			<g>
				<g>
					<g>
						<g>
							<defs>
								<polyline id="SVGID_49_" points="309.335,241.384 210.444,241.384 210.444,150.991 309.335,150.991 								"/>
							</defs>
							<clipPath id="SVGID_50_">
								<use xlink:href="#SVGID_49_"  overflow="visible"/>
							</clipPath>
						</g>
					</g>
				</g>
			</g>
		</g>
		<g id="line2d_30_1_">
			<g>
				<g>
					<g>
						<g>
							<defs>
								<polyline id="SVGID_51_" points="309.335,241.384 210.444,241.384 210.444,150.991 309.335,150.991 								"/>
							</defs>
							<clipPath id="SVGID_52_">
								<use xlink:href="#SVGID_51_"  overflow="visible"/>
							</clipPath>
						</g>
					</g>
				</g>
			</g>
		</g>
		<g id="patch_18_1_">
			<path fill="none" stroke="#000000" stroke-width="0.8" stroke-linecap="square" d="M210.444,241.384v-90.393"/>
		</g>
		<g id="patch_19_1_">
			<path fill="none" stroke="#000000" stroke-width="0.8" stroke-linecap="square" d="M210.444,241.384h98.891"/>
		</g>
	</g>
</g>
<g id="legend_1">
	<g id="patch_20">
		<path fill="#3274A1" d="M330.579,134.82h15.262v-4.793h-15.262V134.82z"/>
	</g>
	<g id="patch_21">
		<path fill="#E1812C" d="M330.579,144.865h15.262v-4.789h-15.262V144.865z"/>
	</g>
	<text transform="matrix(1 0 0 1 327.0935 121.6348)" font-family="'ArialMT'" font-size="8">Multiecho</text>
	<text transform="matrix(1 0 0 1 351.9333 134.0977)" font-family="'ArialMT'" font-size="8">1</text>
	<text transform="matrix(1 0 0 1 352.2146 144.5781)" font-family="'ArialMT'" font-size="8">4</text>
</g>
<g id="axes_1_2_">
	<g id="text_1_2_">
		<g id="patch_2_2_">
			<path fill="none" d="M-99.802,125.753h3.788v-5.447h-3.788V125.753z"/>
			<text transform="matrix(1 0 0 1 -117.0276 88.668)" font-family="'ArialMT'" font-size="6">L</text>
		</g>
	</g>
	<text transform="matrix(1 0 0 1 -117.0276 201.4814)" font-family="'ArialMT'" font-size="6">y = 11</text>
</g>
<g id="text_1_3_">
	<text transform="matrix(1 0 0 1 -131.3547 11.2178)" font-family="'Arial-BoldMT'" font-size="12">A</text>
	<text transform="matrix(1 0 0 1 15.2781 11.666)" font-family="'Arial-BoldMT'" font-size="12">B</text>
	<text transform="matrix(1 0 0 1 171.3533 10.7686)" font-family="'Arial-BoldMT'" font-size="12">C</text>
</g>
<g id="figure_1">
	<g id="axes_1">
		<g id="matplotlib.axis_1">
			<g id="xtick_1">
				<g id="line2d_1">
					<g>
						<g>
							<path id="mc794a9a6e6" stroke="#000000" stroke-width="0.8" stroke-linejoin="round" d="M68.104,116.358v2.064"/>
						</g>
					</g>
				</g>
			</g>
			<g id="xtick_2">
				<g id="line2d_2">
					<g>
						<g>
							<path id="mc794a9a6e6_1_" stroke="#000000" stroke-width="0.8" stroke-linejoin="round" d="M101.065,116.358v2.064"/>
						</g>
					</g>
				</g>
			</g>
			<g id="xtick_3">
				<g id="line2d_3">
					<g>
						<g>
							<path id="mc794a9a6e6_2_" stroke="#000000" stroke-width="0.8" stroke-linejoin="round" d="M134.025,116.358v2.064"/>
						</g>
					</g>
				</g>
			</g>
			<g id="matplotlib.axis_3">
				<text transform="matrix(1 0 0 1 66.1448 125.1328)" font-family="'ArialMT'" font-size="6">1</text>
				<text transform="matrix(1 0 0 1 99.136 125.1328)" font-family="'ArialMT'" font-size="6">3</text>
				<text transform="matrix(1 0 0 1 132.073 125.1328)" font-family="'ArialMT'" font-size="6">6</text>
			</g>
		</g>
		<g id="matplotlib.axis_2">
			<g id="ytick_1">
				<g id="line2d_4">
					<g>
						<g>
							<path id="m7a7075d8d9" stroke="#000000" stroke-width="0.8" stroke-linejoin="round" d="M51.623,117.358h-1.063"/>
						</g>
					</g>
				</g>
			</g>
			<g id="ytick_2">
				<g id="line2d_5">
					<g>
						<g>
							<path id="m7a7075d8d9_1_" stroke="#000000" stroke-width="0.8" stroke-linejoin="round" d="M51.623,100.699h-1.063"/>
						</g>
					</g>
				</g>
				<text transform="matrix(1 0 0 1 43.0906 36.1426)" font-family="'ArialMT'" font-size="6">50</text>
				<text transform="matrix(1 0 0 1 43.0906 52.8516)" font-family="'ArialMT'" font-size="6">40</text>
				<text transform="matrix(1 0 0 1 43.0906 68.793)" font-family="'ArialMT'" font-size="6">30</text>
				<text transform="matrix(1 0 0 1 43.0906 85.2773)" font-family="'ArialMT'" font-size="6">20</text>
				<text transform="matrix(1 0 0 1 43.0906 103.1055)" font-family="'ArialMT'" font-size="6">10</text>
			</g>
			<g id="ytick_3">
				<g id="line2d_6">
					<g>
						<g>
							<path id="m7a7075d8d9_2_" stroke="#000000" stroke-width="0.8" stroke-linejoin="round" d="M51.623,84.037h-1.063"/>
						</g>
					</g>
				</g>
			</g>
			<g id="ytick_4">
				<g id="line2d_7">
					<g>
						<g>
							<path id="m7a7075d8d9_3_" stroke="#000000" stroke-width="0.8" stroke-linejoin="round" d="M51.623,67.375h-1.063"/>
						</g>
					</g>
				</g>
			</g>
			<g id="ytick_5">
				<g id="line2d_8">
					<g>
						<g>
							<path id="m7a7075d8d9_4_" stroke="#000000" stroke-width="0.8" stroke-linejoin="round" d="M51.623,50.714h-1.063"/>
						</g>
					</g>
				</g>
			</g>
			<g id="ytick_6">
				<g id="line2d_9">
					<g>
						<g>
							<path id="m7a7075d8d9_5_" stroke="#000000" stroke-width="0.8" stroke-linejoin="round" d="M51.623,34.053h-1.063"/>
						</g>
					</g>
				</g>
			</g>
			<text transform="matrix(0 -1 1 0 36.0857 159.8096)" font-family="'ArialMT'" font-size="8">VS tSNR (a.u.)</text>
		</g>
		<g id="patch_9">
			<path fill="none" stroke="#000000" stroke-width="0.8" stroke-linecap="square" d="M51.623,117.358V28.221"/>
		</g>
		<g id="patch_10">
			<path fill="none" stroke="#000000" stroke-width="0.8" stroke-linecap="square" d="M51.623,117.358h98.879"/>
		</g>
		<text transform="matrix(1 0 0 1 60.8176 25.3848)" font-family="'ArialMT'" font-size="8">HeadCoil = 64-channel</text>
	</g>
	<g id="axes_2">
		<g id="matplotlib.axis_4">
			<g id="ytick_7">
				<g id="line2d_19">
					<g>
						<g>
							<path id="m7a7075d8d9_6_" stroke="#000000" stroke-width="0.8" stroke-linejoin="round" d="M50.23,241.358h-1.066"/>
						</g>
					</g>
				</g>
			</g>
			<g id="ytick_8">
				<g id="line2d_20">
					<g>
						<g>
							<path id="m7a7075d8d9_7_" stroke="#000000" stroke-width="0.8" stroke-linejoin="round" d="M50.23,224.698h-1.066"/>
						</g>
					</g>
				</g>
			</g>
			<g id="ytick_9">
				<g id="line2d_21">
					<g>
						<g>
							<path id="m7a7075d8d9_8_" stroke="#000000" stroke-width="0.8" stroke-linejoin="round" d="M50.23,208.036h-1.066"/>
						</g>
					</g>
				</g>
			</g>
			<g id="ytick_10">
				<g id="line2d_22">
					<g>
						<g>
							<path id="m7a7075d8d9_9_" stroke="#000000" stroke-width="0.8" stroke-linejoin="round" d="M50.23,191.374h-1.066"/>
						</g>
					</g>
				</g>
			</g>
			<g id="ytick_11">
				<g id="line2d_23">
					<g>
						<g>
							<path id="m7a7075d8d9_10_" stroke="#000000" stroke-width="0.8" stroke-linejoin="round" d="M50.23,174.714h-1.066"/>
						</g>
					</g>
				</g>
			</g>
			<g id="ytick_12">
				<g id="line2d_24">
					<g>
						<g>
							<path id="m7a7075d8d9_11_" stroke="#000000" stroke-width="0.8" stroke-linejoin="round" d="M50.23,158.053h-1.066"/>
						</g>
					</g>
				</g>
			</g>
		</g>
		<g id="patch_18">
			<path fill="none" stroke="#000000" stroke-width="0.8" stroke-linecap="square" d="M50.23,241.358v-89.138"/>
		</g>
		<g id="patch_19">
			<path fill="none" stroke="#000000" stroke-width="0.8" stroke-linecap="square" d="M50.23,241.358h98.878"/>
		</g>
		<text transform="matrix(1 0 0 1 62.7385 149.3838)" font-family="'ArialMT'" font-size="8">HeadCoil = 20-channel</text>
	</g>
</g>
<g id="matplotlib.axis_1_2_">
	<g id="matplotlib.axis_3_2_">
		<text transform="matrix(1 0 0 1 70.2952 257.7432)" font-family="'ArialMT'" font-size="8">Multiband Factor</text>
	</g>
</g>
<text transform="matrix(1 0 0 1 228.8298 256.7188)" font-family="'ArialMT'" font-size="8">Multiband Factor</text>
<text transform="matrix(1 0 0 1 43.0906 243.0381)" font-family="'ArialMT'" font-size="6">0</text>
<path fill="#FFFFFF" d="M46.68,126.591"/>
<path fill="#FFFFFF" d="M208.382,118.745"/>
<g id="xtick_1_2_">
	<g id="line2d_1_2_">
		<g>
			<g>
				<path id="mc794a9a6e6_5_" stroke="#000000" stroke-width="0.8" stroke-linejoin="round" d="M66.156,241.505v1.063"/>
			</g>
		</g>
	</g>
</g>
<g id="xtick_2_2_">
	<g id="line2d_2_2_">
		<g>
			<g>
				<path id="mc794a9a6e6_4_" stroke="#000000" stroke-width="0.8" stroke-linejoin="round" d="M99.117,241.505v1.063"/>
			</g>
		</g>
	</g>
</g>
<g id="xtick_3_2_">
	<g id="line2d_3_2_">
		<g>
			<g>
				<path id="mc794a9a6e6_3_" stroke="#000000" stroke-width="0.8" stroke-linejoin="round" d="M132.076,241.505v1.063"/>
			</g>
		</g>
	</g>
</g>
<text transform="matrix(1 0 0 1 64.196 249.2803)" font-family="'ArialMT'" font-size="6">1</text>
<text transform="matrix(1 0 0 1 97.1902 249.2803)" font-family="'ArialMT'" font-size="6">3</text>
<text transform="matrix(1 0 0 1 130.1238 249.2803)" font-family="'ArialMT'" font-size="6">6</text>
<g id="xtick_1_1_">
	<g id="line2d_1_1_">
		<g>
			<g>
				<path id="mc794a9a6e6_14_" stroke="#000000" stroke-width="0.8" stroke-linejoin="round" d="M226.583,241.384v1.063"/>
			</g>
		</g>
	</g>
</g>
<g id="xtick_2_1_">
	<g id="line2d_2_1_">
		<g>
			<g>
				<path id="mc794a9a6e6_13_" stroke="#000000" stroke-width="0.8" stroke-linejoin="round" d="M259.544,241.384v1.063"/>
			</g>
		</g>
	</g>
</g>
<g id="xtick_3_1_">
	<g id="line2d_3_1_">
		<g>
			<g>
				<path id="mc794a9a6e6_12_" stroke="#000000" stroke-width="0.8" stroke-linejoin="round" d="M292.503,241.384v1.063"/>
			</g>
		</g>
	</g>
</g>
<text transform="matrix(1 0 0 1 224.6248 248.1582)" font-family="'ArialMT'" font-size="6">1</text>
<text transform="matrix(1 0 0 1 257.6169 248.1582)" font-family="'ArialMT'" font-size="6">3</text>
<text transform="matrix(1 0 0 1 290.5525 248.1582)" font-family="'ArialMT'" font-size="6">6</text>
<g id="xtick_1_3_">
	<g id="line2d_1_3_">
		<g>
			<g>
				<path id="mc794a9a6e6_17_" stroke="#000000" stroke-width="0.8" stroke-linejoin="round" d="M226.314,119.384v1.063"/>
			</g>
		</g>
	</g>
</g>
<g id="xtick_2_3_">
	<g id="line2d_2_3_">
		<g>
			<g>
				<path id="mc794a9a6e6_16_" stroke="#000000" stroke-width="0.8" stroke-linejoin="round" d="M259.275,119.384v1.063"/>
			</g>
		</g>
	</g>
</g>
<g id="xtick_3_3_">
	<g id="line2d_3_3_">
		<g>
			<g>
				<path id="mc794a9a6e6_15_" stroke="#000000" stroke-width="0.8" stroke-linejoin="round" d="M292.234,119.384v1.063"/>
			</g>
		</g>
	</g>
</g>
<text transform="matrix(1 0 0 1 224.3552 126.1582)" font-family="'ArialMT'" font-size="6">1</text>
<text transform="matrix(1 0 0 1 257.3494 126.1582)" font-family="'ArialMT'" font-size="6">3</text>
<text transform="matrix(1 0 0 1 290.283 126.1582)" font-family="'ArialMT'" font-size="6">6</text>
<text transform="matrix(0 -1 1 0 194.1335 187.7354)" font-family="'ArialMT'" font-size="8">VS Activation, Reward &gt; Loss (β)</text>
<text transform="matrix(1 0 0 1 198.1238 42.0293)" font-family="'ArialMT'" font-size="6">200</text>
<text transform="matrix(1 0 0 1 198.0251 71.7676)" font-family="'ArialMT'" font-size="6">100</text>
<path id="mf313588ff5_3_" stroke="#000000" stroke-width="0.8" stroke-linejoin="round" d="M209.659,69.732h-1.08"/>
<text transform="matrix(1 0 0 1 -87.3411 67.375)" font-family="'ArialMT'" font-size="8">Region of Interest:</text>
<text transform="matrix(1 0 0 1 -92.2371 76.7266)" font-family="'ArialMT'" font-size="8">V</text>
<text transform="matrix(1 0 0 1 -87.3411 76.7266)" font-family="'ArialMT'" font-size="8">entral Striatum (VS)</text>
<text transform="matrix(1 0 0 1 40.7571 159.8086)" font-family="'ArialMT'" font-size="6">50</text>
<text transform="matrix(1 0 0 1 40.7571 176.5195)" font-family="'ArialMT'" font-size="6">40</text>
<text transform="matrix(1 0 0 1 40.7571 192.4609)" font-family="'ArialMT'" font-size="6">30</text>
<text transform="matrix(1 0 0 1 40.7571 208.9443)" font-family="'ArialMT'" font-size="6">20</text>
<text transform="matrix(1 0 0 1 40.7571 226.7715)" font-family="'ArialMT'" font-size="6">10</text>
<text transform="matrix(1 0 0 1 45.0906 119.4219)" font-family="'ArialMT'" font-size="6">0</text>
<g id="text_5_2_">
	<text transform="matrix(1 0 0 1 198.5046 237.8936)" font-family="'ArialMT'" font-size="6">−50</text>
</g>
<g id="text_6_2_">
	<text transform="matrix(1 0 0 1 204.6638 222.9902)" font-family="'ArialMT'" font-size="6">0</text>
</g>
<g id="text_7_2_">
	<text transform="matrix(1 0 0 1 201.7156 208.373)" font-family="'ArialMT'" font-size="6">50</text>
</g>
<g id="text_9_2_">
	<text transform="matrix(1 0 0 1 198.7546 178.709)" font-family="'ArialMT'" font-size="6">150</text>
</g>
<text transform="matrix(1 0 0 1 198.7556 163.7373)" font-family="'ArialMT'" font-size="6">200</text>
<text transform="matrix(1 0 0 1 198.656 193.4756)" font-family="'ArialMT'" font-size="6">100</text>
<text transform="matrix(1 0 0 1 221.739 149.3838)" font-family="'ArialMT'" font-size="8">HeadCoil = 20-channel</text>
<text transform="matrix(1 0 0 1 221.988 24.2212)" font-family="'ArialMT'" font-size="8">HeadCoil = 64-channel</text>
<g id="line2d_17">
	<g>
		<g>
			<path id="mc794a9a6e6_18_" stroke="#000000" stroke-width="0.8" stroke-linejoin="round" d="M99.045,241.483v1.057"/>
		</g>
	</g>
</g>
<line fill="none" x1="150.503" y1="117.144" x2="51.643" y2="117.144"/>
<path fill="#3274A1" d="M54.939,117.144H68.12v-45.6H54.939V117.144z"/>
<line fill="none" x1="150.503" y1="117.144" x2="51.643" y2="117.144"/>
<path fill="#3274A1" d="M87.891,117.144h13.182V72.597H87.891V117.144z"/>
<line fill="none" x1="150.503" y1="117.144" x2="51.643" y2="117.144"/>
<path fill="#3274A1" d="M120.845,117.144h13.181V75.406h-13.181V117.144z"/>
<line fill="none" x1="150.503" y1="117.144" x2="51.643" y2="117.144"/>
<path fill="#E1812C" d="M68.12,117.144h13.181V37.053H68.12V117.144z"/>
<line fill="none" x1="150.503" y1="117.144" x2="51.643" y2="117.144"/>
<path fill="#E1812C" d="M101.073,117.144h13.181V52.542h-13.181V117.144z"/>
<line fill="none" x1="150.503" y1="117.144" x2="51.643" y2="117.144"/>
<path fill="#E1812C" d="M134.026,117.144h13.182V70.381h-13.182V117.144z"/>
<path id="mc794a9a6e6_21_" stroke="#000000" stroke-width="0.8" stroke-linejoin="round" d="M68.12,117.144v1.063"/>
<path id="mc794a9a6e6_20_" stroke="#000000" stroke-width="0.8" stroke-linejoin="round" d="M101.073,117.144v1.063"/>
<path id="mc794a9a6e6_19_" stroke="#000000" stroke-width="0.8" stroke-linejoin="round" d="M134.026,117.144v1.063"/>
<line fill="none" x1="150.503" y1="117.144" x2="51.643" y2="117.144"/>
<path fill="none" stroke="#424242" stroke-linecap="square" stroke-linejoin="round" d="M61.529,77.813V65.454"/>
<line fill="none" x1="150.503" y1="117.144" x2="51.643" y2="117.144"/>
<path fill="none" stroke="#424242" stroke-linecap="square" stroke-linejoin="round" d="M94.483,78.123V67.061"/>
<line fill="none" x1="150.503" y1="117.144" x2="51.643" y2="117.144"/>
<path fill="none" stroke="#424242" stroke-linecap="square" stroke-linejoin="round" d="M127.436,80.089v-9.777"/>
<line fill="none" x1="150.503" y1="117.144" x2="51.643" y2="117.144"/>
<path fill="none" stroke="#424242" stroke-linecap="square" stroke-linejoin="round" d="M74.71,42.299V32.271"/>
<line fill="none" x1="150.503" y1="117.144" x2="51.643" y2="117.144"/>
<path fill="none" stroke="#424242" stroke-linecap="square" stroke-linejoin="round" d="M107.664,57.338V48.01"/>
<g id="line2d_15">
	<g>
		<path fill="none" stroke="#424242" stroke-linecap="square" stroke-linejoin="round" d="M140.617,73.124v-5.686"/>
	</g>
</g>
<path fill="none" stroke="#000000" stroke-width="0.8" stroke-linecap="square" d="M51.643,117.144h98.859"/>
<path fill="#3274A1" d="M213.156,99.276h13.215V70.124h-13.215V99.276z"/>
<path fill="#3274A1" d="M246.192,99.276h13.215V55.75h-13.215V99.276z"/>
<path fill="#3274A1" d="M279.228,99.276h13.214v-49.12h-13.214V99.276z"/>
<path fill="#E1812C" d="M226.371,99.276h13.214v-57.71h-13.214V99.276z"/>
<path fill="#E1812C" d="M259.407,99.276h13.214V70.254h-13.214V99.276z"/>
<path fill="#E1812C" d="M292.442,99.276h13.215V57.01h-13.215V99.276z"/>
<path fill="none" stroke="#424242" stroke-linecap="square" stroke-linejoin="round" d="M219.763,81.19V59.139"/>
<path fill="none" stroke="#424242" stroke-linecap="square" stroke-linejoin="round" d="M252.8,71.432V38.4"/>
<path fill="none" stroke="#424242" stroke-linecap="square" stroke-linejoin="round" d="M285.836,60.289V40.233"/>
<path fill="none" stroke="#424242" stroke-linecap="square" stroke-linejoin="round" d="M232.978,55.204V29.136"/>
<path fill="none" stroke="#424242" stroke-linecap="square" stroke-linejoin="round" d="M266.013,79.355V61.699"/>
<path fill="none" stroke="#424242" stroke-linecap="square" stroke-linejoin="round" d="M299.05,64.817V49.586"/>
<path fill="#3274A1" d="M213.758,221.789h13.177v-14.175h-13.177V221.789z"/>
<path fill="#3274A1" d="M246.701,221.789h13.177v-37.408h-13.177V221.789z"/>
<path fill="#3274A1" d="M279.644,221.789h13.177v-37.842h-13.177V221.789z"/>
<path fill="#E1812C" d="M226.934,221.789h13.178v-39.542h-13.178V221.789z"/>
<path fill="#E1812C" d="M259.878,221.789h13.178v-40.484h-13.178V221.789z"/>
<path fill="#E1812C" d="M292.821,221.789h13.178v-31.09h-13.178V221.789z"/>
<path fill="none" stroke="#424242" stroke-linecap="square" stroke-linejoin="round" d="M220.346,231.207v-45.091"/>
<path fill="none" stroke="#424242" stroke-linecap="square" stroke-linejoin="round" d="M253.29,196.813v-24.643"/>
<path fill="none" stroke="#424242" stroke-linecap="square" stroke-linejoin="round" d="M286.233,202.521v-35.07"/>
<path fill="none" stroke="#424242" stroke-linecap="square" stroke-linejoin="round" d="M233.523,193.211v-23.195"/>
<g id="line2d_27">
	<g>
		<path fill="none" stroke="#424242" stroke-linecap="square" stroke-linejoin="round" d="M266.467,191.637v-21.128"/>
	</g>
</g>
<g id="line2d_28">
	<g>
		<path fill="none" stroke="#424242" stroke-linecap="square" stroke-linejoin="round" d="M299.41,201.879v-23.034"/>
	</g>
</g>
</svg>
