<?xml version="1.0" encoding="utf-8"?>
<!-- Generator: Adobe Illustrator 16.0.3, SVG Export Plug-In . SVG Version: 6.00 Build 0)  -->
<!DOCTYPE svg PUBLIC "-//W3C//DTD SVG 1.1//EN" "http://www.w3.org/Graphics/SVG/1.1/DTD/svg11.dtd">
<svg version="1.1" id="Layer_1" xmlns="http://www.w3.org/2000/svg" xmlns:xlink="http://www.w3.org/1999/xlink" x="0px" y="0px"
	 width="510.236px" height="266.5px" viewBox="0 0 510.236 266.5" enable-background="new 0 0 510.236 266.5" xml:space="preserve">
<path fill="#3274A1" d="M204.29,244.482v-44.066h-13.101v44.066H204.29"/>
<path fill="#3274A1" d="M237.045,244.482v-40.008h-13.102v40.008H237.045"/>
<path fill="#3274A1" d="M269.799,244.482v-38.727h-13.102v38.727H269.799"/>
<path fill="#E1812C" d="M204.29,244.482h13.102v-75.529H204.29V244.482z"/>
<path fill="#E1812C" d="M237.045,244.482h13.102V192.65h-13.102V244.482"/>
<path fill="#E1812C" d="M269.799,244.482h13.101V215.49h-13.102L269.799,244.482L269.799,244.482z"/>
<path fill="none" stroke="#424242" stroke-linecap="square" stroke-linejoin="round" d="M197.74,206.363V195.12"/>
<path fill="none" stroke="#424242" stroke-linecap="square" stroke-linejoin="round" d="M230.493,210.206v-10.888"/>
<path fill="none" stroke="#424242" stroke-linecap="square" stroke-linejoin="round" d="M263.248,210.596v-9.365"/>
<path fill="none" stroke="#424242" stroke-linecap="square" stroke-linejoin="round" d="M210.842,174.462V164.32"/>
<path fill="none" stroke="#424242" stroke-linecap="square" stroke-linejoin="round" d="M243.596,198.277v-10.564"/>
<path fill="none" stroke="#424242" stroke-linecap="square" stroke-linejoin="round" d="M276.351,218.199v-5.105"/>
<g id="mask_x5F_VS.tif">
	<g>
		<g>
			<g>
				<defs>
					<rect id="SVGID_1_" x="14.646" y="75.051" width="133.811" height="139.801"/>
				</defs>
				<clipPath id="SVGID_2_">
					<use xlink:href="#SVGID_1_"  overflow="visible"/>
				</clipPath>
				<g transform="matrix(1 0 0 1 7.233612e-006 -5.916445e-007)" clip-path="url(#SVGID_2_)">
					
						<image overflow="visible" enable-background="new    " width="508" height="520" id="Background" xlink:href="E3A5C720.jpg"  transform="matrix(0.2634 0 0 0.2634 14.6377 75.061)">
					</image>
				</g>
			</g>
		</g>
	</g>
	<g>
		<g>
			<g>
				<defs>
					<rect id="SVGID_3_" x="14.646" y="75.051" width="133.811" height="139.801"/>
				</defs>
				<clipPath id="SVGID_4_">
					<use xlink:href="#SVGID_3_"  overflow="visible"/>
				</clipPath>
				<g transform="matrix(1 0 0 1 7.542345e-006 1.810095e-007)" clip-path="url(#SVGID_4_)">
					
						<image overflow="visible" enable-background="new    " width="400" height="388" id="Layer_1_1_" xlink:href="E3A5C720.png"  transform="matrix(0.2646 0 0 0.2646 28.48 90.7383)">
					</image>
				</g>
			</g>
		</g>
	</g>
</g>
<path id="m7a7075d8d9_12_" stroke="#000000" stroke-width="0.8" stroke-linejoin="round" d="M350.123,58.222"/>
<path id="m7a7075d8d9_14_" stroke="#000000" stroke-width="0.8" stroke-linejoin="round" d="M350.123,43.56h-1.065"/>
<g id="figure_1_1_">
	<g id="axes_1_1_">
		<g id="patch_2_1_">
			<path fill="#FFFFFF" d="M446.805,31.991h-98.891v90.393h98.891"/>
		</g>
		<g id="patch_3_1_">
			<g>
				<g>
					<g>
						<g>
							<g>
								<defs>
									<polyline id="SVGID_5_" points="446.805,122.384 347.915,122.384 347.915,31.991 446.805,31.991 									"/>
								</defs>
								<clipPath id="SVGID_6_">
									<use xlink:href="#SVGID_5_"  overflow="visible"/>
								</clipPath>
								<path clip-path="url(#SVGID_6_)" fill="#3274A1" d="M351.212,70.958v31.295"/>
							</g>
						</g>
					</g>
				</g>
			</g>
		</g>
		<g id="matplotlib.axis_2_1_">
			<g id="ytick_1_1_">
				<g id="line2d_4_1_">
					<g>
						<g>
							<path id="mf313588ff5" stroke="#000000" stroke-width="0.8" stroke-linejoin="round" d="M347.915,117.015h-1.079"/>
						</g>
					</g>
				</g>
				<g id="text_5_1_">
					<text transform="matrix(1 0 0 1 336.373 119.1855)" font-family="'ArialMT'" font-size="6">−50</text>
				</g>
			</g>
			<g id="ytick_2_1_">
				<g id="line2d_5_1_">
					<g>
						<g>
							<path id="mf313588ff5_1_" stroke="#000000" stroke-width="0.8" stroke-linejoin="round" d="M347.915,102.253h-1.079"/>
						</g>
					</g>
				</g>
				<g id="text_6_1_">
					<text transform="matrix(1 0 0 1 342.5313 104.2822)" font-family="'ArialMT'" font-size="6">0</text>
				</g>
			</g>
			<g id="ytick_3_1_">
				<g id="line2d_6_1_">
					<g>
						<g>
							<path id="mf313588ff5_2_" stroke="#000000" stroke-width="0.8" stroke-linejoin="round" d="M347.915,87.495h-1.079"/>
						</g>
					</g>
				</g>
				<g id="text_7_1_">
					<text transform="matrix(1 0 0 1 339.584 89.665)" font-family="'ArialMT'" font-size="6">50</text>
				</g>
			</g>
			<g id="ytick_4_1_">
				<g id="line2d_7_1_">
					<g>
						<g>
							<path id="mf313588ff5_12_" stroke="#000000" stroke-width="0.8" stroke-linejoin="round" d="M347.915,72.732"/>
						</g>
					</g>
				</g>
			</g>
			<g id="ytick_5_1_">
				<g id="line2d_8_1_">
					<g>
						<g>
							<path id="mf313588ff5_4_" stroke="#000000" stroke-width="0.8" stroke-linejoin="round" d="M347.915,57.974h-1.079"/>
						</g>
					</g>
				</g>
				<g id="text_9_1_">
					<text transform="matrix(1 0 0 1 336.123 60.001)" font-family="'ArialMT'" font-size="6">150</text>
				</g>
			</g>
			<g id="ytick_6_1_">
				<g id="line2d_9_1_">
					<g>
						<g>
							<path id="mf313588ff5_5_" stroke="#000000" stroke-width="0.8" stroke-linejoin="round" d="M347.915,43.214h-1.079"/>
						</g>
					</g>
				</g>
			</g>
		</g>
		<g id="patch_9_1_">
			<path fill="none" stroke="#000000" stroke-width="0.8" stroke-linecap="square" d="M347.915,122.384V31.991"/>
		</g>
		<g id="patch_10_1_">
			<path fill="none" stroke="#000000" stroke-width="0.8" stroke-linecap="square" d="M347.915,122.384h98.891"/>
		</g>
	</g>
	<g id="axes_2_1_">
		<g id="patch_12_1_">
			<g>
				<g>
					<g>
						<g>
							<g>
								<defs>
									<polyline id="SVGID_7_" points="447.335,244.384 348.444,244.384 348.444,153.991 447.335,153.991 									"/>
								</defs>
								<clipPath id="SVGID_8_">
									<use xlink:href="#SVGID_7_"  overflow="visible"/>
								</clipPath>
								<path clip-path="url(#SVGID_8_)" fill="#3274A1" d="M351.741,219.448v4.805"/>
							</g>
						</g>
					</g>
				</g>
			</g>
		</g>
		<g id="matplotlib.axis_4_1_">
			<g id="ytick_7_1_">
				<g id="line2d_19_1_">
					<g>
						<g>
							<path id="mf313588ff5_6_" stroke="#000000" stroke-width="0.8" stroke-linejoin="round" d="M348.444,239.016h-1.08"/>
						</g>
					</g>
				</g>
			</g>
			<g id="ytick_8_1_">
				<g id="line2d_20_1_">
					<g>
						<g>
							<path id="mf313588ff5_7_" stroke="#000000" stroke-width="0.8" stroke-linejoin="round" d="M348.444,224.253h-1.08"/>
						</g>
					</g>
				</g>
			</g>
			<g id="ytick_9_1_">
				<g id="line2d_21_1_">
					<g>
						<g>
							<path id="mf313588ff5_8_" stroke="#000000" stroke-width="0.8" stroke-linejoin="round" d="M348.444,209.495h-1.08"/>
						</g>
					</g>
				</g>
			</g>
			<g id="ytick_10_1_">
				<g id="line2d_22_1_">
					<g>
						<g>
							<path id="mf313588ff5_9_" stroke="#000000" stroke-width="0.8" stroke-linejoin="round" d="M348.444,194.732h-1.08"/>
						</g>
					</g>
				</g>
			</g>
			<g id="ytick_11_1_">
				<g id="line2d_23_1_">
					<g>
						<g>
							<path id="mf313588ff5_10_" stroke="#000000" stroke-width="0.8" stroke-linejoin="round" d="M348.444,179.975h-1.08"/>
						</g>
					</g>
				</g>
			</g>
			<g id="ytick_12_1_">
				<g id="line2d_24_1_">
					<g>
						<g>
							<path id="mf313588ff5_11_" stroke="#000000" stroke-width="0.8" stroke-linejoin="round" d="M348.444,165.214h-1.08"/>
						</g>
					</g>
				</g>
			</g>
		</g>
		<g id="line2d_25_1_">
			<g>
				<g>
					<g>
						<g>
							<g>
								<defs>
									<polyline id="SVGID_9_" points="447.335,244.384 348.444,244.384 348.444,153.991 447.335,153.991 									"/>
								</defs>
								<clipPath id="SVGID_10_">
									<use xlink:href="#SVGID_9_"  overflow="visible"/>
								</clipPath>
								<path clip-path="url(#SVGID_10_)" fill="none" stroke="#424242" stroke-linecap="square" stroke-linejoin="round" d="
									M358.333,240.271"/>
							</g>
						</g>
					</g>
				</g>
			</g>
		</g>
		<g id="patch_18_1_">
			<path fill="none" stroke="#000000" stroke-width="0.8" stroke-linecap="square" d="M348.444,244.384v-90.393"/>
		</g>
		<g id="patch_19_1_">
			<path fill="none" stroke="#000000" stroke-width="0.8" stroke-linecap="square" d="M348.444,244.384h98.891"/>
		</g>
	</g>
</g>
<g id="legend_1">
	<g id="patch_20">
		<path fill="#3274A1" d="M468.579,137.82h15.262v-4.793h-15.262V137.82z"/>
	</g>
	<g id="patch_21">
		<path fill="#E1812C" d="M468.579,147.865h15.262v-4.789h-15.262V147.865z"/>
	</g>
	<text transform="matrix(1 0 0 1 465.0938 124.6348)" font-family="'ArialMT'" font-size="8">Multiecho</text>
	<text transform="matrix(1 0 0 1 489.9336 137.0977)" font-family="'ArialMT'" font-size="8">1</text>
	<text transform="matrix(1 0 0 1 490.2148 147.5781)" font-family="'ArialMT'" font-size="8">4</text>
</g>
<g id="axes_1_2_">
	<g id="text_1_2_">
		<g id="patch_2_2_">
			<path fill="none" d="M38.198,128.753h3.788v-5.447h-3.788V128.753z"/>
			<text transform="matrix(1 0 0 1 20.9727 91.668)" font-family="'ArialMT'" font-size="6">L</text>
		</g>
	</g>
	<text transform="matrix(1 0 0 1 20.9727 204.4814)" font-family="'ArialMT'" font-size="6">y = 11</text>
</g>
<g id="text_1_3_">
	<text transform="matrix(1 0 0 1 6.6455 14.2178)" font-family="'Arial-BoldMT'" font-size="12">A</text>
	<text transform="matrix(1 0 0 1 153.2783 14.666)" font-family="'Arial-BoldMT'" font-size="12">B</text>
	<text transform="matrix(1 0 0 1 309.3535 13.7686)" font-family="'Arial-BoldMT'" font-size="12">C</text>
</g>
<g id="figure_1">
	<g id="axes_1">
		<g id="matplotlib.axis_1">
			<g id="xtick_1">
				<g id="line2d_1">
					<g>
						<g>
							<path id="mc794a9a6e6" stroke="#000000" stroke-width="0.8" stroke-linejoin="round" d="M206.104,119.358v2.064"/>
						</g>
					</g>
				</g>
			</g>
			<g id="xtick_2">
				<g id="line2d_2">
					<g>
						<g>
							<path id="mc794a9a6e6_1_" stroke="#000000" stroke-width="0.8" stroke-linejoin="round" d="M239.065,119.358v2.064"/>
						</g>
					</g>
				</g>
			</g>
			<g id="xtick_3">
				<g id="line2d_3">
					<g>
						<g>
							<path id="mc794a9a6e6_2_" stroke="#000000" stroke-width="0.8" stroke-linejoin="round" d="M272.024,119.358v2.064"/>
						</g>
					</g>
				</g>
			</g>
			<g id="matplotlib.axis_3">
				<text transform="matrix(1 0 0 1 204.1445 128.1328)" font-family="'ArialMT'" font-size="6">1</text>
				<text transform="matrix(1 0 0 1 237.1357 128.1328)" font-family="'ArialMT'" font-size="6">3</text>
				<text transform="matrix(1 0 0 1 270.0732 128.1328)" font-family="'ArialMT'" font-size="6">6</text>
			</g>
		</g>
		<g id="matplotlib.axis_2">
			<g id="ytick_1">
				<g id="line2d_4">
					<g>
						<g>
							<path id="m7a7075d8d9" stroke="#000000" stroke-width="0.8" stroke-linejoin="round" d="M189.623,120.358h-1.063"/>
						</g>
					</g>
				</g>
			</g>
			<g id="ytick_2">
				<g id="line2d_5">
					<g>
						<g>
							<path id="m7a7075d8d9_1_" stroke="#000000" stroke-width="0.8" stroke-linejoin="round" d="M189.623,103.699h-1.063"/>
						</g>
					</g>
				</g>
				<text transform="matrix(1 0 0 1 181.0908 39.1426)" font-family="'ArialMT'" font-size="6">50</text>
				<text transform="matrix(1 0 0 1 181.0908 55.8516)" font-family="'ArialMT'" font-size="6">40</text>
				<text transform="matrix(1 0 0 1 181.0908 71.793)" font-family="'ArialMT'" font-size="6">30</text>
				<text transform="matrix(1 0 0 1 181.0908 88.2773)" font-family="'ArialMT'" font-size="6">20</text>
				<text transform="matrix(1 0 0 1 181.0908 106.1055)" font-family="'ArialMT'" font-size="6">10</text>
			</g>
			<g id="ytick_3">
				<g id="line2d_6">
					<g>
						<g>
							<path id="m7a7075d8d9_2_" stroke="#000000" stroke-width="0.8" stroke-linejoin="round" d="M189.623,87.037h-1.063"/>
						</g>
					</g>
				</g>
			</g>
			<g id="ytick_4">
				<g id="line2d_7">
					<g>
						<g>
							<path id="m7a7075d8d9_3_" stroke="#000000" stroke-width="0.8" stroke-linejoin="round" d="M189.623,70.375h-1.063"/>
						</g>
					</g>
				</g>
			</g>
			<g id="ytick_5">
				<g id="line2d_8">
					<g>
						<g>
							<path id="m7a7075d8d9_4_" stroke="#000000" stroke-width="0.8" stroke-linejoin="round" d="M189.623,53.714h-1.063"/>
						</g>
					</g>
				</g>
			</g>
			<g id="ytick_6">
				<g id="line2d_9">
					<g>
						<g>
							<path id="m7a7075d8d9_5_" stroke="#000000" stroke-width="0.8" stroke-linejoin="round" d="M189.623,37.053h-1.063"/>
						</g>
					</g>
				</g>
			</g>
			<text transform="matrix(0 -1 1 0 174.0859 162.8096)" font-family="'ArialMT'" font-size="8">VS tSNR (a.u.)</text>
		</g>
		<g id="patch_9">
			<path fill="none" stroke="#000000" stroke-width="0.8" stroke-linecap="square" d="M189.623,120.358V31.221"/>
		</g>
		<g id="patch_10">
			<path fill="none" stroke="#000000" stroke-width="0.8" stroke-linecap="square" d="M189.623,120.358h98.879"/>
		</g>
		<text transform="matrix(1 0 0 1 198.8174 28.3848)" font-family="'ArialMT'" font-size="8">HeadCoil = 64-channel</text>
	</g>
	<g id="axes_2">
		<g id="matplotlib.axis_4">
			<g id="ytick_7">
				<g id="line2d_19">
					<g>
						<g>
							<path id="m7a7075d8d9_6_" stroke="#000000" stroke-width="0.8" stroke-linejoin="round" d="M188.23,244.357h-1.066"/>
						</g>
					</g>
				</g>
			</g>
			<g id="ytick_8">
				<g id="line2d_20">
					<g>
						<g>
							<path id="m7a7075d8d9_7_" stroke="#000000" stroke-width="0.8" stroke-linejoin="round" d="M188.23,227.698h-1.066"/>
						</g>
					</g>
				</g>
			</g>
			<g id="ytick_9">
				<g id="line2d_21">
					<g>
						<g>
							<path id="m7a7075d8d9_8_" stroke="#000000" stroke-width="0.8" stroke-linejoin="round" d="M188.23,211.036h-1.066"/>
						</g>
					</g>
				</g>
			</g>
			<g id="ytick_10">
				<g id="line2d_22">
					<g>
						<g>
							<path id="m7a7075d8d9_9_" stroke="#000000" stroke-width="0.8" stroke-linejoin="round" d="M188.23,194.374h-1.066"/>
						</g>
					</g>
				</g>
			</g>
			<g id="ytick_11">
				<g id="line2d_23">
					<g>
						<g>
							<path id="m7a7075d8d9_10_" stroke="#000000" stroke-width="0.8" stroke-linejoin="round" d="M188.23,177.714h-1.066"/>
						</g>
					</g>
				</g>
			</g>
			<g id="ytick_12">
				<g id="line2d_24">
					<g>
						<g>
							<path id="m7a7075d8d9_11_" stroke="#000000" stroke-width="0.8" stroke-linejoin="round" d="M188.23,161.053h-1.066"/>
						</g>
					</g>
				</g>
			</g>
		</g>
		<g id="patch_18">
			<path fill="none" stroke="#000000" stroke-width="0.8" stroke-linecap="square" d="M188.23,244.357v-89.137"/>
		</g>
		<g id="patch_19">
			<path fill="none" stroke="#000000" stroke-width="0.8" stroke-linecap="square" d="M188.23,244.357h98.878"/>
		</g>
		<text transform="matrix(1 0 0 1 200.7383 152.3838)" font-family="'ArialMT'" font-size="8">HeadCoil = 20-channel</text>
	</g>
</g>
<g id="matplotlib.axis_1_2_">
	<g id="matplotlib.axis_3_2_">
		<text transform="matrix(1 0 0 1 208.2949 260.7432)" font-family="'ArialMT'" font-size="8">Multiband Factor</text>
	</g>
</g>
<text transform="matrix(1 0 0 1 366.8301 259.7188)" font-family="'ArialMT'" font-size="8">Multiband Factor</text>
<text transform="matrix(1 0 0 1 181.0908 246.0381)" font-family="'ArialMT'" font-size="6">0</text>
<path fill="#FFFFFF" d="M184.68,129.591"/>
<path fill="#FFFFFF" d="M346.382,121.745"/>
<g id="xtick_1_2_">
	<g id="line2d_1_2_">
		<g>
			<g>
				<path id="mc794a9a6e6_5_" stroke="#000000" stroke-width="0.8" stroke-linejoin="round" d="M204.156,244.505v1.063"/>
			</g>
		</g>
	</g>
</g>
<g id="xtick_2_2_">
	<g id="line2d_2_2_">
		<g>
			<g>
				<path id="mc794a9a6e6_4_" stroke="#000000" stroke-width="0.8" stroke-linejoin="round" d="M237.117,244.505v1.063"/>
			</g>
		</g>
	</g>
</g>
<g id="xtick_3_2_">
	<g id="line2d_3_2_">
		<g>
			<g>
				<path id="mc794a9a6e6_3_" stroke="#000000" stroke-width="0.8" stroke-linejoin="round" d="M270.076,244.505v1.063"/>
			</g>
		</g>
	</g>
</g>
<text transform="matrix(1 0 0 1 202.1963 252.2803)" font-family="'ArialMT'" font-size="6">1</text>
<text transform="matrix(1 0 0 1 235.1904 252.2803)" font-family="'ArialMT'" font-size="6">3</text>
<text transform="matrix(1 0 0 1 268.124 252.2803)" font-family="'ArialMT'" font-size="6">6</text>
<g id="xtick_1_1_">
	<g id="line2d_1_1_">
		<g>
			<g>
				<path id="mc794a9a6e6_14_" stroke="#000000" stroke-width="0.8" stroke-linejoin="round" d="M364.583,244.384v1.063"/>
			</g>
		</g>
	</g>
</g>
<g id="xtick_2_1_">
	<g id="line2d_2_1_">
		<g>
			<g>
				<path id="mc794a9a6e6_13_" stroke="#000000" stroke-width="0.8" stroke-linejoin="round" d="M397.544,244.384v1.063"/>
			</g>
		</g>
	</g>
</g>
<g id="xtick_3_1_">
	<g id="line2d_3_1_">
		<g>
			<g>
				<path id="mc794a9a6e6_12_" stroke="#000000" stroke-width="0.8" stroke-linejoin="round" d="M430.503,244.384v1.063"/>
			</g>
		</g>
	</g>
</g>
<text transform="matrix(1 0 0 1 362.625 251.1582)" font-family="'ArialMT'" font-size="6">1</text>
<text transform="matrix(1 0 0 1 395.6172 251.1582)" font-family="'ArialMT'" font-size="6">3</text>
<text transform="matrix(1 0 0 1 428.5527 251.1582)" font-family="'ArialMT'" font-size="6">6</text>
<g id="xtick_1_3_">
	<g id="line2d_1_3_">
		<g>
			<g>
				<path id="mc794a9a6e6_17_" stroke="#000000" stroke-width="0.8" stroke-linejoin="round" d="M364.313,122.384v1.063"/>
			</g>
		</g>
	</g>
</g>
<g id="xtick_2_3_">
	<g id="line2d_2_3_">
		<g>
			<g>
				<path id="mc794a9a6e6_16_" stroke="#000000" stroke-width="0.8" stroke-linejoin="round" d="M397.274,122.384v1.063"/>
			</g>
		</g>
	</g>
</g>
<g id="xtick_3_3_">
	<g id="line2d_3_3_">
		<g>
			<g>
				<path id="mc794a9a6e6_15_" stroke="#000000" stroke-width="0.8" stroke-linejoin="round" d="M430.233,122.384v1.063"/>
			</g>
		</g>
	</g>
</g>
<text transform="matrix(1 0 0 1 362.3555 129.1582)" font-family="'ArialMT'" font-size="6">1</text>
<text transform="matrix(1 0 0 1 395.3496 129.1582)" font-family="'ArialMT'" font-size="6">3</text>
<text transform="matrix(1 0 0 1 428.2832 129.1582)" font-family="'ArialMT'" font-size="6">6</text>
<text transform="matrix(0 -1 1 0 332.1338 190.7354)" font-family="'ArialMT'" font-size="8">VS Activation, Reward &gt; Loss (β)</text>
<text transform="matrix(1 0 0 1 336.124 45.0293)" font-family="'ArialMT'" font-size="6">200</text>
<text transform="matrix(1 0 0 1 336.0254 74.7676)" font-family="'ArialMT'" font-size="6">100</text>
<path id="mf313588ff5_3_" stroke="#000000" stroke-width="0.8" stroke-linejoin="round" d="M347.659,72.732h-1.08"/>
<text transform="matrix(1 0 0 1 50.6592 70.375)" font-family="'ArialMT'" font-size="8">Region of Interest:</text>
<text transform="matrix(1 0 0 1 45.7627 79.7266)" font-family="'ArialMT'" font-size="8">V</text>
<text transform="matrix(1 0 0 1 50.6592 79.7266)" font-family="'ArialMT'" font-size="8">entral Striatum (VS)</text>
<text transform="matrix(1 0 0 1 178.7568 162.8086)" font-family="'ArialMT'" font-size="6">50</text>
<text transform="matrix(1 0 0 1 178.7568 179.5195)" font-family="'ArialMT'" font-size="6">40</text>
<text transform="matrix(1 0 0 1 178.7568 195.4609)" font-family="'ArialMT'" font-size="6">30</text>
<text transform="matrix(1 0 0 1 178.7568 211.9443)" font-family="'ArialMT'" font-size="6">20</text>
<text transform="matrix(1 0 0 1 178.7568 229.7715)" font-family="'ArialMT'" font-size="6">10</text>
<text transform="matrix(1 0 0 1 183.0908 122.4219)" font-family="'ArialMT'" font-size="6">0</text>
<g id="text_5_2_">
	<text transform="matrix(1 0 0 1 336.5049 240.8936)" font-family="'ArialMT'" font-size="6">−50</text>
</g>
<g id="text_6_2_">
	<text transform="matrix(1 0 0 1 342.6641 225.9902)" font-family="'ArialMT'" font-size="6">0</text>
</g>
<g id="text_7_2_">
	<text transform="matrix(1 0 0 1 339.7158 211.373)" font-family="'ArialMT'" font-size="6">50</text>
</g>
<g id="text_9_2_">
	<text transform="matrix(1 0 0 1 336.7549 181.709)" font-family="'ArialMT'" font-size="6">150</text>
</g>
<text transform="matrix(1 0 0 1 336.7559 166.7373)" font-family="'ArialMT'" font-size="6">200</text>
<text transform="matrix(1 0 0 1 336.6563 196.4756)" font-family="'ArialMT'" font-size="6">100</text>
<text transform="matrix(1 0 0 1 359.7393 152.3838)" font-family="'ArialMT'" font-size="8">HeadCoil = 20-channel</text>
<text transform="matrix(1 0 0 1 359.9883 27.2207)" font-family="'ArialMT'" font-size="8">HeadCoil = 64-channel</text>
<g id="line2d_17">
	<g>
		<g>
			<path id="mc794a9a6e6_18_" stroke="#000000" stroke-width="0.8" stroke-linejoin="round" d="M237.045,244.482v1.058"/>
		</g>
	</g>
</g>
<line fill="none" x1="288.503" y1="120.144" x2="189.643" y2="120.144"/>
<path fill="#3274A1" d="M192.939,120.144h13.181v-45.6h-13.181V120.144z"/>
<line fill="none" x1="288.503" y1="120.144" x2="189.643" y2="120.144"/>
<path fill="#3274A1" d="M225.891,120.144h13.182V75.597h-13.182V120.144z"/>
<line fill="none" x1="288.503" y1="120.144" x2="189.643" y2="120.144"/>
<path fill="#3274A1" d="M258.845,120.144h13.182V78.406h-13.182V120.144z"/>
<line fill="none" x1="288.503" y1="120.144" x2="189.643" y2="120.144"/>
<path fill="#E1812C" d="M206.12,120.144h13.181V40.053H206.12V120.144z"/>
<line fill="none" x1="288.503" y1="120.144" x2="189.643" y2="120.144"/>
<path fill="#E1812C" d="M239.073,120.144h13.181V55.542h-13.181V120.144z"/>
<line fill="none" x1="288.503" y1="120.144" x2="189.643" y2="120.144"/>
<path fill="#E1812C" d="M272.026,120.144h13.182V73.381h-13.182V120.144z"/>
<path id="mc794a9a6e6_21_" stroke="#000000" stroke-width="0.8" stroke-linejoin="round" d="M206.12,120.144v1.063"/>
<path id="mc794a9a6e6_20_" stroke="#000000" stroke-width="0.8" stroke-linejoin="round" d="M239.073,120.144v1.063"/>
<path id="mc794a9a6e6_19_" stroke="#000000" stroke-width="0.8" stroke-linejoin="round" d="M272.026,120.144v1.063"/>
<line fill="none" x1="288.503" y1="120.144" x2="189.643" y2="120.144"/>
<path fill="none" stroke="#424242" stroke-linecap="square" stroke-linejoin="round" d="M199.529,80.813V68.454"/>
<line fill="none" x1="288.503" y1="120.144" x2="189.643" y2="120.144"/>
<path fill="none" stroke="#424242" stroke-linecap="square" stroke-linejoin="round" d="M232.483,81.123V70.061"/>
<line fill="none" x1="288.503" y1="120.144" x2="189.643" y2="120.144"/>
<path fill="none" stroke="#424242" stroke-linecap="square" stroke-linejoin="round" d="M265.437,83.089v-9.777"/>
<line fill="none" x1="288.503" y1="120.144" x2="189.643" y2="120.144"/>
<path fill="none" stroke="#424242" stroke-linecap="square" stroke-linejoin="round" d="M212.71,45.299V35.271"/>
<line fill="none" x1="288.503" y1="120.144" x2="189.643" y2="120.144"/>
<path fill="none" stroke="#424242" stroke-linecap="square" stroke-linejoin="round" d="M245.664,60.338V51.01"/>
<g id="line2d_15">
	<g>
		<path fill="none" stroke="#424242" stroke-linecap="square" stroke-linejoin="round" d="M278.617,76.124v-5.686"/>
	</g>
</g>
<path fill="none" stroke="#000000" stroke-width="0.8" stroke-linecap="square" d="M189.643,120.144h98.859"/>
<path fill="#3274A1" d="M351.156,102.276h13.215V73.124h-13.215V102.276z"/>
<path fill="#3274A1" d="M384.192,102.276h13.215V58.75h-13.215V102.276z"/>
<path fill="#3274A1" d="M417.228,102.276h13.215v-49.12h-13.215V102.276z"/>
<path fill="#E1812C" d="M364.371,102.276h13.214v-57.71h-13.214V102.276z"/>
<path fill="#E1812C" d="M397.407,102.276h13.214V73.254h-13.214V102.276z"/>
<path fill="#E1812C" d="M430.442,102.276h13.215V60.01h-13.215V102.276z"/>
<path fill="none" stroke="#424242" stroke-linecap="square" stroke-linejoin="round" d="M357.763,84.19V62.139"/>
<path fill="none" stroke="#424242" stroke-linecap="square" stroke-linejoin="round" d="M390.8,74.432V41.4"/>
<path fill="none" stroke="#424242" stroke-linecap="square" stroke-linejoin="round" d="M423.836,63.289V43.233"/>
<path fill="none" stroke="#424242" stroke-linecap="square" stroke-linejoin="round" d="M370.978,58.204V32.136"/>
<path fill="none" stroke="#424242" stroke-linecap="square" stroke-linejoin="round" d="M404.013,82.355V64.699"/>
<path fill="none" stroke="#424242" stroke-linecap="square" stroke-linejoin="round" d="M437.05,67.817V52.586"/>
<path fill="#3274A1" d="M351.758,224.789h13.177v-14.176h-13.177V224.789z"/>
<path fill="#3274A1" d="M384.701,224.789h13.177v-37.408h-13.177V224.789z"/>
<path fill="#3274A1" d="M417.644,224.789h13.178v-37.842h-13.178V224.789z"/>
<path fill="#E1812C" d="M364.935,224.789h13.178v-39.542h-13.178V224.789z"/>
<path fill="#E1812C" d="M397.878,224.789h13.178v-40.484h-13.178V224.789z"/>
<path fill="#E1812C" d="M430.821,224.789h13.178v-31.09h-13.178V224.789z"/>
<path fill="none" stroke="#424242" stroke-linecap="square" stroke-linejoin="round" d="M358.346,234.207v-45.091"/>
<path fill="none" stroke="#424242" stroke-linecap="square" stroke-linejoin="round" d="M391.29,199.813V175.17"/>
<path fill="none" stroke="#424242" stroke-linecap="square" stroke-linejoin="round" d="M424.233,205.521v-35.07"/>
<path fill="none" stroke="#424242" stroke-linecap="square" stroke-linejoin="round" d="M371.522,196.211v-23.195"/>
<g id="line2d_27">
	<g>
		<path fill="none" stroke="#424242" stroke-linecap="square" stroke-linejoin="round" d="M404.467,194.637v-21.128"/>
	</g>
</g>
<g id="line2d_28">
	<g>
		<path fill="none" stroke="#424242" stroke-linecap="square" stroke-linejoin="round" d="M437.41,204.879v-23.033"/>
	</g>
</g>
</svg>
