<?xml version="1.0" encoding="utf-8"?>
<!-- Generator: Adobe Illustrator 16.0.3, SVG Export Plug-In . SVG Version: 6.00 Build 0)  -->
<!DOCTYPE svg PUBLIC "-//W3C//DTD SVG 1.1//EN" "http://www.w3.org/Graphics/SVG/1.1/DTD/svg11.dtd">
<svg version="1.1" id="Layer_1" xmlns="http://www.w3.org/2000/svg" xmlns:xlink="http://www.w3.org/1999/xlink" x="0px" y="0px"
	 width="510.236px" height="242px" viewBox="0 0 510.236 242" enable-background="new 0 0 510.236 242" xml:space="preserve">
<path fill="#3274A1" d="M212.078,104.973V75.227h-13.163v29.746H212.078"/>
<path fill="#3274A1" d="M244.985,104.973V80.605h-13.163v24.367H244.985"/>
<path fill="#3274A1" d="M277.894,104.973V89.358h-13.164v15.614H277.894"/>
<path fill="#E1812C" d="M212.078,104.973h13.163V58.695h-13.163V104.973z"/>
<path fill="#E1812C" d="M244.985,104.973h13.163V64.871h-13.163V104.973"/>
<path fill="#E1812C" d="M277.894,104.973h13.162V86.75h-13.162V104.973"/>
<path id="m80b23ce12f_7_" stroke="#000000" stroke-linejoin="round" d="M244.985,104.973v1.067"/>
<path id="m80b23ce12f_6_" stroke="#000000" stroke-linejoin="round" d="M277.894,104.973v1.067"/>
<path fill="none" stroke="#424242" stroke-linecap="square" stroke-linejoin="round" d="M205.497,87.013V65.16"/>
<path fill="none" stroke="#424242" stroke-linecap="square" stroke-linejoin="round" d="M238.404,88.423V72.654"/>
<path fill="none" stroke="#424242" stroke-linecap="square" stroke-linejoin="round" d="M271.312,96.852V79.388"/>
<path fill="none" stroke="#424242" stroke-linecap="square" stroke-linejoin="round" d="M218.66,76.924V40.001"/>
<path fill="none" stroke="#424242" stroke-linecap="square" stroke-linejoin="round" d="M251.567,76.463V53.357"/>
<path fill="none" stroke="#424242" stroke-linecap="square" stroke-linejoin="round" d="M284.475,92.485V80.716"/>
<g id="mask_x5F_vmPFC.tif">
	
		<image overflow="visible" enable-background="new    " width="1009" height="1203" id="mask_x5F_vmPFC" xlink:href="33C8F9CA.jpg"  transform="matrix(0.0892 0 0 0.0892 29.4927 135.7148)">
	</image>
</g>
<g transform="matrix(1 0 0 1 7.542345e-006 1.810095e-007)">
	
		<image overflow="visible" enable-background="new    " width="400" height="388" id="Layer_1_2_" xlink:href="E3A5C720.png"  transform="matrix(0.2136 0 0 0.2136 26.4092 37.6421)">
	</image>
</g>
<g id="figure_1">
	<g id="axes_1">
		<g id="matplotlib.axis_1">
			<g id="xtick_1">
				<g id="line2d_1">
					<g>
						<g>
							<path id="m80b23ce12f" stroke="#000000" stroke-width="0.8" stroke-linejoin="round" d="M211.847,104.669v1.039"/>
						</g>
					</g>
				</g>
				<g id="text_1">
					<text transform="matrix(1.0284 0 0 1 209.9961 111.0098)" font-family="'ArialMT'" font-size="6">1</text>
				</g>
			</g>
			<g id="xtick_2">
				<g id="line2d_2">
					<g>
						<g>
							<path id="m80b23ce12f_1_" stroke="#000000" stroke-width="0.8" stroke-linejoin="round" d="M244.833,104.669v1.039"/>
						</g>
					</g>
				</g>
				<g id="text_2">
					<text transform="matrix(1.0284 0 0 1 242.9834 111.0098)" font-family="'ArialMT'" font-size="6">3</text>
				</g>
			</g>
			<g id="xtick_3">
				<g id="line2d_3">
					<g>
						<g>
							<path id="m80b23ce12f_2_" stroke="#000000" stroke-width="0.8" stroke-linejoin="round" d="M277.817,104.669v1.039"/>
						</g>
					</g>
				</g>
				<g id="text_3">
					<text transform="matrix(1.0284 0 0 1 275.9697 111.0098)" font-family="'ArialMT'" font-size="6">6</text>
				</g>
			</g>
		</g>
		<g id="matplotlib.axis_2">
			<g id="ytick_1">
				<g id="line2d_4">
					<g>
						<g>
							<path id="m395762797d" stroke="#000000" stroke-width="0.8" stroke-linejoin="round" d="M195.354,104.669h-1.07"/>
						</g>
					</g>
				</g>
				<g id="text_5">
					<text transform="matrix(1.0284 0 0 1 184.9639 105.7988)" font-family="'ArialMT'" font-size="6">0.0</text>
				</g>
			</g>
			<g id="ytick_2">
				<g id="line2d_5">
					<g>
						<g>
							<path id="m395762797d_1_" stroke="#000000" stroke-width="0.8" stroke-linejoin="round" d="M195.354,93.064h-1.07"/>
						</g>
					</g>
				</g>
				<g id="text_6">
					<text transform="matrix(1.0284 0 0 1 184.9639 94.1934)" font-family="'ArialMT'" font-size="6">0.2</text>
				</g>
			</g>
			<g id="ytick_3">
				<g id="line2d_6">
					<g>
						<g>
							<path id="m395762797d_2_" stroke="#000000" stroke-width="0.8" stroke-linejoin="round" d="M195.354,81.457h-1.07"/>
						</g>
					</g>
				</g>
				<g id="text_7">
					<text transform="matrix(1.0284 0 0 1 184.9639 82.5859)" font-family="'ArialMT'" font-size="6">0.4</text>
				</g>
			</g>
			<g id="ytick_4">
				<g id="line2d_7">
					<g>
						<g>
							<path id="m395762797d_3_" stroke="#000000" stroke-width="0.8" stroke-linejoin="round" d="M195.354,69.852h-1.07"/>
						</g>
					</g>
				</g>
				<g id="text_8">
					<text transform="matrix(1.0284 0 0 1 184.9639 70.9805)" font-family="'ArialMT'" font-size="6">0.6</text>
				</g>
			</g>
			<g id="ytick_5">
				<g id="line2d_8">
					<g>
						<g>
							<path id="m395762797d_4_" stroke="#000000" stroke-width="0.8" stroke-linejoin="round" d="M195.354,58.245h-1.07"/>
						</g>
					</g>
				</g>
				<g id="text_9">
					<text transform="matrix(1.0284 0 0 1 184.9639 59.375)" font-family="'ArialMT'" font-size="6">0.8</text>
				</g>
			</g>
			<g id="ytick_6">
				<g id="line2d_9">
					<g>
						<g>
							<path id="m395762797d_5_" stroke="#000000" stroke-width="0.8" stroke-linejoin="round" d="M195.354,46.64h-1.07"/>
						</g>
					</g>
				</g>
				<g id="text_10">
					<text transform="matrix(1.0284 0 0 1 184.9639 47.7686)" font-family="'ArialMT'" font-size="6">1.0</text>
				</g>
			</g>
			<g id="ytick_7">
				<g id="line2d_10">
					<g>
						<g>
							<path id="m395762797d_6_" stroke="#000000" stroke-width="0.8" stroke-linejoin="round" d="M195.354,35.034h-1.07"/>
						</g>
					</g>
				</g>
				<g id="text_11">
					<text transform="matrix(1.0284 0 0 1 184.9639 36.1621)" font-family="'ArialMT'" font-size="6">1.2</text>
				</g>
			</g>
			<g id="ytick_8">
				<g id="line2d_11">
					<g>
						<g>
							<path id="m395762797d_7_" stroke="#000000" stroke-width="0.8" stroke-linejoin="round" d="M195.354,23.427h-1.07"/>
						</g>
					</g>
				</g>
				<g id="text_12">
					<text transform="matrix(1.0284 0 0 1 184.9639 24.5557)" font-family="'ArialMT'" font-size="6">1.4</text>
				</g>
			</g>
		</g>
		<g id="patch_9">
			<path fill="none" stroke="#000000" stroke-width="0.8" stroke-linecap="square" d="M195.354,104.669V17.48"/>
		</g>
		<g id="patch_10">
			<path fill="none" stroke="#000000" stroke-width="0.8" stroke-linecap="square" d="M195.354,104.669h98.959"/>
		</g>
	</g>
	<g id="axes_2">
		<g id="matplotlib.axis_3">
			<g id="xtick_4">
				<g id="line2d_18">
					<g>
						<g>
							<path id="m80b23ce12f_3_" stroke="#000000" stroke-width="0.8" stroke-linejoin="round" d="M211.66,222.863v1.039"/>
						</g>
					</g>
				</g>
				<g id="text_15">
					<text transform="matrix(1.0284 0 0 1 209.8076 229.2031)" font-family="'ArialMT'" font-size="6">1</text>
				</g>
			</g>
			<g id="xtick_5">
				<g id="line2d_19">
					<g>
						<g>
							<path id="m80b23ce12f_4_" stroke="#000000" stroke-width="0.8" stroke-linejoin="round" d="M244.645,222.863v1.039"/>
						</g>
					</g>
				</g>
				<g id="text_16">
					<text transform="matrix(1.0284 0 0 1 242.7939 229.2031)" font-family="'ArialMT'" font-size="6">3</text>
				</g>
			</g>
			<g id="xtick_6">
				<g id="line2d_20">
					<g>
						<g>
							<path id="m80b23ce12f_5_" stroke="#000000" stroke-width="0.8" stroke-linejoin="round" d="M277.631,222.863v1.039"/>
						</g>
					</g>
				</g>
				<g id="text_17">
					<text transform="matrix(1.0284 0 0 1 275.7813 229.2031)" font-family="'ArialMT'" font-size="6">6</text>
				</g>
			</g>
		</g>
		<g id="matplotlib.axis_4">
			<g id="ytick_9">
				<g id="line2d_21">
					<g>
						<g>
							<path id="m395762797d_8_" stroke="#000000" stroke-width="0.8" stroke-linejoin="round" d="M195.166,222.863h-1.069"/>
						</g>
					</g>
				</g>
			</g>
			<g id="ytick_10">
				<g id="line2d_22">
					<g>
						<g>
							<path id="m395762797d_9_" stroke="#000000" stroke-width="0.8" stroke-linejoin="round" d="M195.166,211.258h-1.069"/>
						</g>
					</g>
				</g>
			</g>
			<g id="ytick_11">
				<g id="line2d_23">
					<g>
						<g>
							<path id="m395762797d_10_" stroke="#000000" stroke-width="0.8" stroke-linejoin="round" d="M195.166,199.65h-1.069"/>
						</g>
					</g>
				</g>
			</g>
			<g id="ytick_12">
				<g id="line2d_24">
					<g>
						<g>
							<path id="m395762797d_11_" stroke="#000000" stroke-width="0.8" stroke-linejoin="round" d="M195.166,188.045h-1.069"/>
						</g>
					</g>
				</g>
			</g>
			<g id="ytick_13">
				<g id="line2d_25">
					<g>
						<g>
							<path id="m395762797d_12_" stroke="#000000" stroke-width="0.8" stroke-linejoin="round" d="M195.166,176.438h-1.069"/>
						</g>
					</g>
				</g>
			</g>
			<g id="ytick_14">
				<g id="line2d_26">
					<g>
						<g>
							<path id="m395762797d_13_" stroke="#000000" stroke-width="0.8" stroke-linejoin="round" d="M195.166,164.834h-1.069"/>
						</g>
					</g>
				</g>
			</g>
			<g id="ytick_15">
				<g id="line2d_27">
					<g>
						<g>
							<path id="m395762797d_14_" stroke="#000000" stroke-width="0.8" stroke-linejoin="round" d="M195.166,153.227h-1.069"/>
						</g>
					</g>
				</g>
			</g>
			<g id="ytick_16">
				<g id="line2d_28">
					<g>
						<g>
							<path id="m395762797d_15_" stroke="#000000" stroke-width="0.8" stroke-linejoin="round" d="M195.166,141.621h-1.069"/>
						</g>
					</g>
				</g>
			</g>
		</g>
		<g id="patch_18">
			<path fill="none" stroke="#000000" stroke-width="0.8" stroke-linecap="square" d="M195.166,222.863v-87.189"/>
		</g>
		<g id="patch_19">
			<path fill="none" stroke="#000000" stroke-width="0.8" stroke-linecap="square" d="M195.166,222.863h98.958"/>
		</g>
	</g>
</g>
<g id="figure_1_1_">
	<g id="axes_1_1_">
		<g id="patch_2_1_">
			<path fill="#FFFFFF" d="M455.041,15.43h-98.158v89.703l0,0h98.158"/>
		</g>
		<g id="patch_3_1_">
			<g>
				<g>
					<g>
						<g>
							<g>
								<defs>
									<polyline id="SVGID_1_" points="455.041,105.133 356.883,105.133 356.883,15.43 455.041,15.43 									"/>
								</defs>
								<clipPath id="SVGID_2_">
									<use xlink:href="#SVGID_1_"  overflow="visible"/>
								</clipPath>
							</g>
						</g>
					</g>
				</g>
			</g>
		</g>
		<g id="patch_4_1_">
			<g>
				<g>
					<g>
						<g>
							<g>
								<defs>
									<polyline id="SVGID_3_" points="455.041,105.133 356.883,105.133 356.883,15.43 455.041,15.43 									"/>
								</defs>
								<clipPath id="SVGID_4_">
									<use xlink:href="#SVGID_3_"  overflow="visible"/>
								</clipPath>
							</g>
						</g>
					</g>
				</g>
			</g>
		</g>
		<g id="patch_5_1_">
			<g>
				<g>
					<g>
						<g>
							<g>
								<defs>
									<polyline id="SVGID_5_" points="455.041,105.133 356.883,105.133 356.883,15.43 455.041,15.43 									"/>
								</defs>
								<clipPath id="SVGID_6_">
									<use xlink:href="#SVGID_5_"  overflow="visible"/>
								</clipPath>
							</g>
						</g>
					</g>
				</g>
			</g>
		</g>
		<g id="patch_6_1_">
			<g>
				<g>
					<g>
						<g>
							<g>
								<defs>
									<polyline id="SVGID_7_" points="455.041,105.133 356.883,105.133 356.883,15.43 455.041,15.43 									"/>
								</defs>
								<clipPath id="SVGID_8_">
									<use xlink:href="#SVGID_7_"  overflow="visible"/>
								</clipPath>
							</g>
						</g>
					</g>
				</g>
			</g>
		</g>
		<g id="patch_7_1_">
			<g>
				<g>
					<g>
						<g>
							<g>
								<defs>
									<polyline id="SVGID_9_" points="455.041,105.133 356.883,105.133 356.883,15.43 455.041,15.43 									"/>
								</defs>
								<clipPath id="SVGID_10_">
									<use xlink:href="#SVGID_9_"  overflow="visible"/>
								</clipPath>
							</g>
						</g>
					</g>
				</g>
			</g>
		</g>
		<g id="patch_8_1_">
			<g>
				<g>
					<g>
						<g>
							<g>
								<defs>
									<polyline id="SVGID_11_" points="455.041,105.133 356.883,105.133 356.883,15.43 455.041,15.43 									"/>
								</defs>
								<clipPath id="SVGID_12_">
									<use xlink:href="#SVGID_11_"  overflow="visible"/>
								</clipPath>
							</g>
						</g>
					</g>
				</g>
			</g>
		</g>
		<g id="matplotlib.axis_1_1_">
			<g id="xtick_1_1_">
				<g id="line2d_1_1_">
					<g>
						<g>
							<path id="m991be8bab6" stroke="#000000" stroke-width="0.8" stroke-linejoin="round" d="M373.243,105.133v1.07"/>
						</g>
					</g>
				</g>
				<g id="text_1_1_">
					<text transform="matrix(1 0 0 1 371.3916 111.5977)" font-family="'ArialMT'" font-size="6">1</text>
				</g>
			</g>
			<g id="xtick_2_1_">
				<g id="line2d_2_1_">
					<g>
						<g>
							<path id="m991be8bab6_1_" stroke="#000000" stroke-width="0.8" stroke-linejoin="round" d="M405.961,105.133v1.07"/>
						</g>
					</g>
				</g>
				<g id="text_2_1_">
					<text transform="matrix(1 0 0 1 404.1113 111.5977)" font-family="'ArialMT'" font-size="6">3</text>
				</g>
			</g>
			<g id="xtick_3_1_">
				<g id="line2d_3_1_">
					<g>
						<g>
							<path id="m991be8bab6_2_" stroke="#000000" stroke-width="0.8" stroke-linejoin="round" d="M438.681,105.133v1.07"/>
						</g>
					</g>
				</g>
				<g id="text_3_1_">
					<text transform="matrix(1 0 0 1 436.8301 111.5977)" font-family="'ArialMT'" font-size="6">6</text>
				</g>
			</g>
		</g>
		<g id="matplotlib.axis_2_1_">
			<g id="ytick_1_1_">
				<g id="line2d_4_1_">
					<g>
						<g>
							<path id="mf6fe307bf7" stroke="#000000" stroke-width="0.8" stroke-linejoin="round" d="M356.883,100.135h-1.069"/>
						</g>
					</g>
				</g>
				<g id="text_5_1_">
					<text transform="matrix(1 0 0 1 345.5547 101.2969)" font-family="'ArialMT'" font-size="6">−15</text>
				</g>
			</g>
			<g id="ytick_2_1_">
				<g id="line2d_5_1_">
					<g>
						<g>
							<path id="mf6fe307bf7_1_" stroke="#000000" stroke-width="0.8" stroke-linejoin="round" d="M356.883,80.906h-1.069"/>
						</g>
					</g>
				</g>
				<g id="text_6_1_">
					<text transform="matrix(1 0 0 1 345.5547 82.0684)" font-family="'ArialMT'" font-size="6">−10</text>
				</g>
			</g>
			<g id="ytick_3_1_">
				<g id="line2d_6_1_">
					<g>
						<g>
							<path id="mf6fe307bf7_2_" stroke="#000000" stroke-width="0.8" stroke-linejoin="round" d="M356.883,61.678h-1.069"/>
						</g>
					</g>
				</g>
				<g id="text_7_1_">
					<text transform="matrix(1 0 0 1 347.2549 62.8398)" font-family="'ArialMT'" font-size="6">−5</text>
				</g>
			</g>
			<g id="ytick_4_1_">
				<g id="line2d_7_1_">
					<g>
						<g>
							<path id="mf6fe307bf7_3_" stroke="#000000" stroke-width="0.8" stroke-linejoin="round" d="M356.883,42.449h-1.069"/>
						</g>
					</g>
				</g>
				<g id="text_8_1_">
					<text transform="matrix(1 0 0 1 350.042 43.6104)" font-family="'ArialMT'" font-size="6">0</text>
				</g>
			</g>
			<g id="ytick_5_1_">
				<g id="line2d_8_1_">
					<g>
						<g>
							<path id="mf6fe307bf7_4_" stroke="#000000" stroke-width="0.8" stroke-linejoin="round" d="M356.883,23.223h-1.069"/>
						</g>
					</g>
				</g>
				<g id="text_9_1_">
					<text transform="matrix(1 0 0 1 350.042 24.3818)" font-family="'ArialMT'" font-size="6">5</text>
				</g>
			</g>
		</g>
		<g id="line2d_9_1_">
			<g>
				<g>
					<g>
						<g>
							<g>
								<defs>
									<polyline id="SVGID_13_" points="455.041,105.133 356.883,105.133 356.883,15.43 455.041,15.43 									"/>
								</defs>
								<clipPath id="SVGID_14_">
									<use xlink:href="#SVGID_13_"  overflow="visible"/>
								</clipPath>
							</g>
						</g>
					</g>
				</g>
			</g>
		</g>
		<g id="line2d_10_1_">
			<g>
				<g>
					<g>
						<g>
							<g>
								<defs>
									<polyline id="SVGID_15_" points="455.041,105.133 356.883,105.133 356.883,15.43 455.041,15.43 									"/>
								</defs>
								<clipPath id="SVGID_16_">
									<use xlink:href="#SVGID_15_"  overflow="visible"/>
								</clipPath>
							</g>
						</g>
					</g>
				</g>
			</g>
		</g>
		<g id="line2d_11_1_">
			<g>
				<g>
					<g>
						<g>
							<g>
								<defs>
									<polyline id="SVGID_17_" points="455.041,105.133 356.883,105.133 356.883,15.43 455.041,15.43 									"/>
								</defs>
								<clipPath id="SVGID_18_">
									<use xlink:href="#SVGID_17_"  overflow="visible"/>
								</clipPath>
							</g>
						</g>
					</g>
				</g>
			</g>
		</g>
		<g id="line2d_12_1_">
			<g>
				<g>
					<g>
						<g>
							<g>
								<defs>
									<polyline id="SVGID_19_" points="455.041,105.133 356.883,105.133 356.883,15.43 455.041,15.43 									"/>
								</defs>
								<clipPath id="SVGID_20_">
									<use xlink:href="#SVGID_19_"  overflow="visible"/>
								</clipPath>
							</g>
						</g>
					</g>
				</g>
			</g>
		</g>
		<g id="line2d_13_1_">
			<g>
				<g>
					<g>
						<g>
							<g>
								<defs>
									<polyline id="SVGID_21_" points="455.041,105.133 356.883,105.133 356.883,15.43 455.041,15.43 									"/>
								</defs>
								<clipPath id="SVGID_22_">
									<use xlink:href="#SVGID_21_"  overflow="visible"/>
								</clipPath>
							</g>
						</g>
					</g>
				</g>
			</g>
		</g>
		<g id="line2d_14_1_">
			<g>
				<g>
					<g>
						<g>
							<g>
								<defs>
									<polyline id="SVGID_23_" points="455.041,105.133 356.883,105.133 356.883,15.43 455.041,15.43 									"/>
								</defs>
								<clipPath id="SVGID_24_">
									<use xlink:href="#SVGID_23_"  overflow="visible"/>
								</clipPath>
							</g>
						</g>
					</g>
				</g>
			</g>
		</g>
		<g id="patch_9_1_">
			<path fill="none" stroke="#000000" stroke-width="0.8" stroke-linecap="square" d="M356.883,105.133V15.43"/>
		</g>
		<g id="patch_10_1_">
			<path fill="none" stroke="#000000" stroke-width="0.8" stroke-linecap="square" d="M356.883,105.133h98.158"/>
		</g>
	</g>
	<g id="axes_2_1_">
		<g id="patch_11_1_">
			<path fill="#FFFFFF" d="M454.336,133.582h-98.157v89.703h98.157"/>
		</g>
		<g id="patch_12_1_">
			<g>
				<g>
					<g>
						<g>
							<g>
								<defs>
									<polyline id="SVGID_25_" points="454.336,223.285 356.179,223.285 356.179,133.582 454.336,133.582 									"/>
								</defs>
								<clipPath id="SVGID_26_">
									<use xlink:href="#SVGID_25_"  overflow="visible"/>
								</clipPath>
								<path clip-path="url(#SVGID_26_)" fill="#3274A1" d="M359.451,157.713v2.887l0,0"/>
							</g>
						</g>
					</g>
				</g>
			</g>
		</g>
		<g id="patch_13_1_">
			<g>
				<g>
					<g>
						<g>
							<g>
								<defs>
									<polyline id="SVGID_27_" points="454.336,223.285 356.179,223.285 356.179,133.582 454.336,133.582 									"/>
								</defs>
								<clipPath id="SVGID_28_">
									<use xlink:href="#SVGID_27_"  overflow="visible"/>
								</clipPath>
							</g>
						</g>
					</g>
				</g>
			</g>
		</g>
		<g id="patch_14_1_">
			<g>
				<g>
					<g>
						<g>
							<g>
								<defs>
									<polyline id="SVGID_29_" points="454.336,223.285 356.179,223.285 356.179,133.582 454.336,133.582 									"/>
								</defs>
								<clipPath id="SVGID_30_">
									<use xlink:href="#SVGID_29_"  overflow="visible"/>
								</clipPath>
							</g>
						</g>
					</g>
				</g>
			</g>
		</g>
		<g id="patch_15_1_">
			<g>
				<g>
					<g>
						<g>
							<g>
								<defs>
									<polyline id="SVGID_31_" points="454.336,223.285 356.179,223.285 356.179,133.582 454.336,133.582 									"/>
								</defs>
								<clipPath id="SVGID_32_">
									<use xlink:href="#SVGID_31_"  overflow="visible"/>
								</clipPath>
							</g>
						</g>
					</g>
				</g>
			</g>
		</g>
		<g id="patch_16_1_">
			<g>
				<g>
					<g>
						<g>
							<g>
								<defs>
									<polyline id="SVGID_33_" points="454.336,223.285 356.179,223.285 356.179,133.582 454.336,133.582 									"/>
								</defs>
								<clipPath id="SVGID_34_">
									<use xlink:href="#SVGID_33_"  overflow="visible"/>
								</clipPath>
							</g>
						</g>
					</g>
				</g>
			</g>
		</g>
		<g id="patch_17_1_">
			<g>
				<g>
					<g>
						<g>
							<g>
								<defs>
									<polyline id="SVGID_35_" points="454.336,223.285 356.179,223.285 356.179,133.582 454.336,133.582 									"/>
								</defs>
								<clipPath id="SVGID_36_">
									<use xlink:href="#SVGID_35_"  overflow="visible"/>
								</clipPath>
							</g>
						</g>
					</g>
				</g>
			</g>
		</g>
		<g id="matplotlib.axis_3_1_">
			<g id="xtick_4_1_">
				<g id="line2d_15_1_">
					<g>
						<g>
							<path id="m991be8bab6_3_" stroke="#000000" stroke-width="0.8" stroke-linejoin="round" d="M372.539,223.285v1.068"/>
						</g>
					</g>
				</g>
				<g id="text_12_1_">
					<text transform="matrix(1 0 0 1 370.6875 229.75)" font-family="'ArialMT'" font-size="6">1</text>
				</g>
			</g>
			<g id="xtick_5_1_">
				<g id="line2d_16_1_">
					<g>
						<g>
							<path id="m991be8bab6_4_" stroke="#000000" stroke-width="0.8" stroke-linejoin="round" d="M405.258,223.285v1.068"/>
						</g>
					</g>
				</g>
				<g id="text_13_1_">
					<text transform="matrix(1 0 0 1 403.4072 229.75)" font-family="'ArialMT'" font-size="6">3</text>
				</g>
			</g>
			<g id="xtick_6_1_">
				<g id="line2d_17_1_">
					<g>
						<g>
							<path id="m991be8bab6_5_" stroke="#000000" stroke-width="0.8" stroke-linejoin="round" d="M437.977,223.285v1.068"/>
						</g>
					</g>
				</g>
				<g id="text_14">
					<text transform="matrix(1 0 0 1 436.127 229.75)" font-family="'ArialMT'" font-size="6">6</text>
				</g>
			</g>
		</g>
		<g id="matplotlib.axis_4_1_">
			<g id="ytick_6_1_">
				<g id="line2d_18_1_">
					<g>
						<g>
							<path id="mf6fe307bf7_5_" stroke="#000000" stroke-width="0.8" stroke-linejoin="round" d="M356.179,218.287h-1.07"/>
						</g>
					</g>
				</g>
			</g>
			<g id="ytick_7_1_">
				<g id="line2d_19_1_">
					<g>
						<g>
							<path id="mf6fe307bf7_6_" stroke="#000000" stroke-width="0.8" stroke-linejoin="round" d="M356.179,199.057h-1.07"/>
						</g>
					</g>
				</g>
			</g>
			<g id="ytick_8_1_">
				<g id="line2d_20_1_">
					<g>
						<g>
							<path id="mf6fe307bf7_7_" stroke="#000000" stroke-width="0.8" stroke-linejoin="round" d="M356.179,179.83h-1.07"/>
						</g>
					</g>
				</g>
			</g>
			<g id="ytick_9_1_">
				<g id="line2d_21_1_">
					<g>
						<g>
							<path id="mf6fe307bf7_8_" stroke="#000000" stroke-width="0.8" stroke-linejoin="round" d="M356.179,160.6h-1.07"/>
						</g>
					</g>
				</g>
			</g>
			<g id="ytick_10_1_">
				<g id="line2d_22_1_">
					<g>
						<g>
							<path id="mf6fe307bf7_9_" stroke="#000000" stroke-width="0.8" stroke-linejoin="round" d="M356.179,141.375h-1.07"/>
						</g>
					</g>
				</g>
			</g>
		</g>
		<g id="line2d_23_1_">
			<g>
				<g>
					<g>
						<g>
							<g>
								<defs>
									<polyline id="SVGID_37_" points="454.336,223.285 356.179,223.285 356.179,133.582 454.336,133.582 									"/>
								</defs>
								<clipPath id="SVGID_38_">
									<use xlink:href="#SVGID_37_"  overflow="visible"/>
								</clipPath>
								<path clip-path="url(#SVGID_38_)" fill="none" stroke="#424242" stroke-linecap="square" stroke-linejoin="round" d="
									M365.994,137.66"/>
							</g>
						</g>
					</g>
				</g>
			</g>
		</g>
		<g id="line2d_24_1_">
			<g>
				<g>
					<g>
						<g>
							<g>
								<defs>
									<polyline id="SVGID_39_" points="454.336,223.285 356.179,223.285 356.179,133.582 454.336,133.582 									"/>
								</defs>
								<clipPath id="SVGID_40_">
									<use xlink:href="#SVGID_39_"  overflow="visible"/>
								</clipPath>
							</g>
						</g>
					</g>
				</g>
			</g>
		</g>
		<g id="line2d_25_1_">
			<g>
				<g>
					<g>
						<g>
							<g>
								<defs>
									<polyline id="SVGID_41_" points="454.336,223.285 356.179,223.285 356.179,133.582 454.336,133.582 									"/>
								</defs>
								<clipPath id="SVGID_42_">
									<use xlink:href="#SVGID_41_"  overflow="visible"/>
								</clipPath>
							</g>
						</g>
					</g>
				</g>
			</g>
		</g>
		<g id="line2d_26_1_">
			<g>
				<g>
					<g>
						<g>
							<g>
								<defs>
									<polyline id="SVGID_43_" points="454.336,223.285 356.179,223.285 356.179,133.582 454.336,133.582 									"/>
								</defs>
								<clipPath id="SVGID_44_">
									<use xlink:href="#SVGID_43_"  overflow="visible"/>
								</clipPath>
								<path clip-path="url(#SVGID_44_)" fill="none" stroke="#424242" stroke-linecap="square" stroke-linejoin="round" d="
									M379.082,219.207"/>
							</g>
						</g>
					</g>
				</g>
			</g>
		</g>
		<g id="line2d_27_1_">
			<g>
				<g>
					<g>
						<g>
							<g>
								<defs>
									<polyline id="SVGID_45_" points="454.336,223.285 356.179,223.285 356.179,133.582 454.336,133.582 									"/>
								</defs>
								<clipPath id="SVGID_46_">
									<use xlink:href="#SVGID_45_"  overflow="visible"/>
								</clipPath>
								<path clip-path="url(#SVGID_46_)" fill="none" stroke="#424242" stroke-linecap="square" stroke-linejoin="round" d="
									M411.802,147.08"/>
							</g>
						</g>
					</g>
				</g>
			</g>
		</g>
		<g id="line2d_28_1_">
			<g>
				<g>
					<g>
						<g>
							<g>
								<defs>
									<polyline id="SVGID_47_" points="454.336,223.285 356.179,223.285 356.179,133.582 454.336,133.582 									"/>
								</defs>
								<clipPath id="SVGID_48_">
									<use xlink:href="#SVGID_47_"  overflow="visible"/>
								</clipPath>
							</g>
						</g>
					</g>
				</g>
			</g>
		</g>
		<g id="patch_18_1_">
			<path fill="none" stroke="#000000" stroke-width="0.8" stroke-linecap="square" d="M356.179,223.285v-89.703"/>
		</g>
		<g id="patch_19_1_">
			<path fill="none" stroke="#000000" stroke-width="0.8" stroke-linecap="square" d="M356.179,223.285h98.157"/>
		</g>
	</g>
</g>
<text transform="matrix(4.489659e-011 -1 1 4.489659e-011 330.8525 143.7402)" font-family="'ArialMT'" font-size="8">VS-VMPFC</text>
<text transform="matrix(4.489659e-011 -1 1 4.489659e-011 340.4521 160.7559)" font-family="'ArialMT'" font-size="8">PPI, Reward&gt;Neutral</text>
<text transform="matrix(4.489659e-011 -1 1 4.489659e-011 167.0024 145.6875)" font-family="'ArialMT'" font-size="8">VS-VMPFC </text>
<text transform="matrix(4.489659e-011 -1 1 4.489659e-011 176.6021 170.75)" font-family="'ArialMT'" font-size="8">Functional Connectivity (β)</text>
<text transform="matrix(1 0 0 1 208.6602 19.4805)" font-family="'ArialMT'" font-size="8">HeadCoil = 64-channel</text>
<text transform="matrix(1 0 0 1 207.8057 135.6738)" font-family="'ArialMT'" font-size="8">HeadCoil = 20-channel</text>
<text transform="matrix(1 0 0 1 214.6445 236.4102)" font-family="'ArialMT'" font-size="8">Multiband Factor</text>
<text transform="matrix(1 0 0 1 214.5762 117.2178)" font-family="'ArialMT'" font-size="8">Multiband Factor</text>
<text transform="matrix(1 0 0 1 373.9014 237.4316)" font-family="'ArialMT'" font-size="8">Multiband Factor</text>
<text transform="matrix(1 0 0 1 375.373 118.2793)" font-family="'ArialMT'" font-size="8">Multiband Factor</text>
<g id="text_1_2_">
	<text transform="matrix(1 0 0 1 4.1162 11.0879)" font-family="'Arial-BoldMT'" font-size="12">A</text>
	<text transform="matrix(1 0 0 1 144.9414 11.0879)" font-family="'Arial-BoldMT'" font-size="12">B</text>
	<text transform="matrix(1 0 0 1 307.6816 11.0879)" font-family="'Arial-BoldMT'" font-size="12">C</text>
</g>
<text transform="matrix(1 0 0 1 21.7578 43.5815)" font-family="'ArialMT'" font-size="6">L</text>
<text transform="matrix(1 0 0 1 16.2871 127.1953)" font-family="'ArialMT'" font-size="6">y = 11</text>
<text transform="matrix(1 0 0 1 17.7192 228.0146)" font-family="'ArialMT'" font-size="6">x = 4</text>
<g>
	<g>
		<path fill="none" stroke="#000000" stroke-miterlimit="10" d="M152.905,69.421c0-0.168,0.01-0.334,0.03-0.497"/>
		<path fill="none" stroke="#000000" stroke-miterlimit="10" stroke-dasharray="0.9985,0.9985" d="M83.285,89.833
			c49.06-10.345,81.616,80.289,31.333,103.333"/>
		<path fill="none" stroke="#000000" stroke-miterlimit="10" d="M89.461,177.752c0.055,0.156,0.104,0.316,0.145,0.479"/>
	</g>
</g>
<text transform="matrix(1 0 0 1 32.0537 24.2354)" font-family="'ArialMT'" font-size="8">PPI Seed Region:</text>
<text transform="matrix(1 0 0 1 32.0537 33.835)" font-family="'ArialMT'" font-size="8">Ventral Striatum (VS)</text>
<text transform="matrix(1 0 0 1 27.9131 143.2529)" font-family="'ArialMT'" font-size="8">PPI</text>
<text transform="matrix(1 0 0 1 40.8086 134.043)" font-family="'ArialMT'" font-size="8"> </text>
<text transform="matrix(1 0 0 1 42.8945 143.2529)" font-family="'ArialMT'" font-size="8">T</text>
<text transform="matrix(1 0 0 1 46.9004 143.2529)" font-family="'ArialMT'" font-size="8">arget Region:</text>
<text transform="matrix(1 0 0 1 27.9131 152.8525)" font-family="'ArialMT'" font-size="8">Ventromedial PFC (VMPFC)</text>
<g id="text_5_2_">
	<text transform="matrix(1.0284 0 0 1 183.7051 224.4238)" font-family="'ArialMT'" font-size="6">0.0</text>
</g>
<g id="text_6_2_">
	<text transform="matrix(1.0284 0 0 1 183.7051 212.8164)" font-family="'ArialMT'" font-size="6">0.2</text>
</g>
<g id="text_7_2_">
	<text transform="matrix(1.0284 0 0 1 183.7051 201.2109)" font-family="'ArialMT'" font-size="6">0.4</text>
</g>
<g id="text_8_2_">
	<text transform="matrix(1.0284 0 0 1 183.7051 189.6055)" font-family="'ArialMT'" font-size="6">0.6</text>
</g>
<g id="text_9_2_">
	<text transform="matrix(1.0284 0 0 1 183.7051 178)" font-family="'ArialMT'" font-size="6">0.8</text>
</g>
<g id="text_10_1_">
	<text transform="matrix(1.0284 0 0 1 183.7051 166.3926)" font-family="'ArialMT'" font-size="6">1.0</text>
</g>
<g id="text_11_1_">
	<text transform="matrix(1.0284 0 0 1 183.7051 154.7871)" font-family="'ArialMT'" font-size="6">1.2</text>
</g>
<g id="text_12_2_">
	<text transform="matrix(1.0284 0 0 1 183.7051 143.1797)" font-family="'ArialMT'" font-size="6">1.4</text>
</g>
<g id="legend_1">
	<g id="patch_20">
		<path fill="#3274A1" d="M477.482,124.314h15.264v-4.793h-15.264V124.314z"/>
	</g>
	<g id="patch_21">
		<path fill="#E1812C" d="M477.482,134.359h15.264v-4.789h-15.264V134.359z"/>
	</g>
	<text transform="matrix(1 0 0 1 473.999 111.1289)" font-family="'ArialMT'" font-size="8">Multiecho</text>
	<text transform="matrix(1 0 0 1 498.8389 123.5918)" font-family="'ArialMT'" font-size="8">1</text>
	<text transform="matrix(1 0 0 1 499.1201 134.0723)" font-family="'ArialMT'" font-size="8">4</text>
</g>
<g id="text_5_3_">
	<text transform="matrix(1 0 0 1 343.3105 220.0938)" font-family="'ArialMT'" font-size="6">−15</text>
</g>
<g id="text_6_3_">
	<text transform="matrix(1 0 0 1 343.3105 200.8652)" font-family="'ArialMT'" font-size="6">−10</text>
</g>
<g id="text_7_3_">
	<text transform="matrix(1 0 0 1 345.0107 181.6367)" font-family="'ArialMT'" font-size="6">−5</text>
</g>
<g id="text_8_3_">
	<text transform="matrix(1 0 0 1 347.7979 162.4102)" font-family="'ArialMT'" font-size="6">0</text>
</g>
<g id="text_9_3_">
	<text transform="matrix(1 0 0 1 347.7979 143.1797)" font-family="'ArialMT'" font-size="6">5</text>
</g>
<text transform="matrix(1 0 0 1 369.1143 19.6152)" font-family="'ArialMT'" font-size="8">HeadCoil = 64-channel</text>
<text transform="matrix(1 0 0 1 368.2598 135.8086)" font-family="'ArialMT'" font-size="8">HeadCoil = 20-channel</text>
<line fill="none" x1="294.109" y1="223.038" x2="195.154" y2="223.038"/>
<path fill="#3274A1" d="M198.453,223.038h13.195v-20.477h-13.195V223.038z"/>
<line fill="none" x1="294.109" y1="223.038" x2="195.154" y2="223.038"/>
<path fill="#3274A1" d="M231.438,223.038h13.192v-25.719h-13.192V223.038z"/>
<line fill="none" x1="294.109" y1="223.038" x2="195.154" y2="223.038"/>
<path fill="#3274A1" d="M264.422,223.038h13.194v-24.751h-13.194V223.038z"/>
<line fill="none" x1="294.109" y1="223.038" x2="195.154" y2="223.038"/>
<path fill="#E1812C" d="M211.647,223.038h13.193v-55.726h-13.193V223.038z"/>
<line fill="none" x1="294.109" y1="223.038" x2="195.154" y2="223.038"/>
<path fill="#E1812C" d="M244.631,223.038h13.193v-28.989h-13.193V223.038z"/>
<line fill="none" x1="294.109" y1="223.038" x2="195.154" y2="223.038"/>
<path fill="#E1812C" d="M277.616,223.038h13.193v-8.844h-13.193V223.038z"/>
<path id="m80b23ce12f_10_" stroke="#000000" stroke-linejoin="round" d="M211.647,223.038v1.067"/>
<path id="m80b23ce12f_9_" stroke="#000000" stroke-linejoin="round" d="M244.631,223.038v1.067"/>
<path id="m80b23ce12f_8_" stroke="#000000" stroke-linejoin="round" d="M277.616,223.038v1.067"/>
<line fill="none" x1="294.109" y1="223.038" x2="195.154" y2="223.038"/>
<path fill="none" stroke="#424242" stroke-linecap="square" stroke-linejoin="round" d="M205.05,222.678v-39.821"/>
<line fill="none" x1="294.109" y1="223.038" x2="195.154" y2="223.038"/>
<path fill="none" stroke="#424242" stroke-linecap="square" stroke-linejoin="round" d="M238.034,209.928v-24.17"/>
<line fill="none" x1="294.109" y1="223.038" x2="195.154" y2="223.038"/>
<path fill="none" stroke="#424242" stroke-linecap="square" stroke-linejoin="round" d="M271.02,212.267v-24.934"/>
<line fill="none" x1="294.109" y1="223.038" x2="195.154" y2="223.038"/>
<path fill="none" stroke="#424242" stroke-linecap="square" stroke-linejoin="round" d="M218.244,193.249v-55.604"/>
<line fill="none" x1="294.109" y1="223.038" x2="195.154" y2="223.038"/>
<path fill="none" stroke="#424242" stroke-linecap="square" stroke-linejoin="round" d="M251.229,205.556v-22.818"/>
<line fill="none" x1="294.109" y1="223.038" x2="195.154" y2="223.038"/>
<path fill="none" stroke="#424242" stroke-linecap="square" stroke-linejoin="round" d="M284.213,221.774v-16.396"/>
<path fill="none" stroke="#000000" stroke-linecap="square" d="M195.154,223.038h98.955"/>
<path fill="#3274A1" d="M359.85,42.607h13.224v12.739H359.85V42.607z"/>
<path fill="#3274A1" d="M392.908,42.607h13.225v4.977h-13.225V42.607z"/>
<path fill="#3274A1" d="M425.967,42.607h13.225v-4.476h-13.225V42.607z"/>
<path fill="#E1812C" d="M373.073,42.607h13.224v10.191h-13.224V42.607z"/>
<path fill="#E1812C" d="M406.133,42.607h13.224v0.853h-13.224V42.607z"/>
<path fill="#E1812C" d="M439.191,42.607h13.224v-5.582h-13.224V42.607z"/>
<path fill="none" stroke="#424242" stroke-linecap="square" stroke-linejoin="round" d="M366.463,63.104V47.395"/>
<path fill="none" stroke="#424242" stroke-linecap="square" stroke-linejoin="round" d="M399.521,52.961V42.051"/>
<path fill="none" stroke="#424242" stroke-linecap="square" stroke-linejoin="round" d="M432.579,43.33V33.261"/>
<path fill="none" stroke="#424242" stroke-linecap="square" stroke-linejoin="round" d="M379.685,66.992V37.751"/>
<path fill="none" stroke="#424242" stroke-linecap="square" stroke-linejoin="round" d="M412.744,50.351V35.833"/>
<path fill="none" stroke="#424242" stroke-linecap="square" stroke-linejoin="round" d="M445.803,41.625v-9.352"/>
<path fill="#3274A1" d="M359.571,160.647h13.015v-2.871h-13.015V160.647z"/>
<path fill="#3274A1" d="M392.108,160.647h13.017v-1.534h-13.017V160.647z"/>
<path fill="#3274A1" d="M424.647,160.647h13.016v2.199h-13.016V160.647z"/>
<path fill="#E1812C" d="M372.586,160.647h13.015v24.512h-13.015V160.647z"/>
<path fill="#E1812C" d="M405.125,160.647h13.015v-1.052h-13.015V160.647z"/>
<path fill="#E1812C" d="M437.663,160.647h13.015v-3.707h-13.015V160.647z"/>
<path fill="none" stroke="#424242" stroke-linecap="square" stroke-linejoin="round" d="M366.079,180.01v-42.178"/>
<path fill="none" stroke="#424242" stroke-linecap="square" stroke-linejoin="round" d="M398.617,171.386v-20.988"/>
<path fill="none" stroke="#424242" stroke-linecap="square" stroke-linejoin="round" d="M431.155,172.608v-21.352"/>
<path fill="none" stroke="#424242" stroke-linecap="square" stroke-linejoin="round" d="M379.095,218.93v-69.3"/>
<g id="line2d_27_2_">
	<g>
		<path fill="none" stroke="#424242" stroke-linecap="square" stroke-linejoin="round" d="M411.633,173.276v-26.075"/>
	</g>
</g>
<g id="line2d_28_2_">
	<g>
		<path fill="none" stroke="#424242" stroke-linecap="square" stroke-linejoin="round" d="M444.17,163.158v-13.437"/>
	</g>
</g>
</svg>
