<?xml version="1.0" encoding="utf-8"?>
<!-- Generator: Adobe Illustrator 16.0.3, SVG Export Plug-In . SVG Version: 6.00 Build 0)  -->
<!DOCTYPE svg PUBLIC "-//W3C//DTD SVG 1.1//EN" "http://www.w3.org/Graphics/SVG/1.1/DTD/svg11.dtd">
<svg version="1.1" id="Layer_1" xmlns="http://www.w3.org/2000/svg" xmlns:xlink="http://www.w3.org/1999/xlink" x="0px" y="0px"
	 width="510.236px" height="242px" viewBox="-134.646 0 510.236 242" enable-background="new -134.646 0 510.236 242"
	 xml:space="preserve">
<g id="mask_x5F_vmPFC.tif">
	
		<image overflow="visible" enable-background="new    " width="1009" height="1203" id="mask_x5F_vmPFC" xlink:href="33C8F9CA.jpg"  transform="matrix(0.0817 0 0 0.0817 -103.3337 125.7593)">
	</image>
</g>
<g transform="matrix(1 0 0 1 7.542345e-006 1.810095e-007)">
	
		<image overflow="visible" enable-background="new    " width="400" height="388" id="Layer_1_2_" xlink:href="E3A5C720.png"  transform="matrix(0.1721 0 0 0.1721 -97.385 36.897)">
	</image>
</g>
<g id="figure_1">
	<g id="axes_1">
		<g id="patch_2">
			<path fill="#FFFFFF" d="M54.979,104.925h98.959V17.736H54.979V104.925L54.979,104.925z"/>
		</g>
		<g id="patch_3">
			<g>
				<g>
					<g>
						<defs>
							<rect id="SVGID_1_" x="54.979" y="17.736" width="98.959" height="87.189"/>
						</defs>
						<clipPath id="SVGID_2_">
							<use xlink:href="#SVGID_1_"  overflow="visible"/>
						</clipPath>
						<path clip-path="url(#SVGID_2_)" fill="#3274A1" d="M58.277,104.925h13.194V75.931H58.277V104.925z"/>
					</g>
				</g>
			</g>
		</g>
		<g id="patch_4">
			<g>
				<g>
					<g>
						<defs>
							<rect id="SVGID_3_" x="54.979" y="17.736" width="98.959" height="87.189"/>
						</defs>
						<clipPath id="SVGID_4_">
							<use xlink:href="#SVGID_3_"  overflow="visible"/>
						</clipPath>
						<path clip-path="url(#SVGID_4_)" fill="#3274A1" d="M91.264,104.925h13.193V81.173H91.264V104.925z"/>
					</g>
				</g>
			</g>
		</g>
		<g id="patch_5">
			<g>
				<g>
					<g>
						<defs>
							<rect id="SVGID_5_" x="54.979" y="17.736" width="98.959" height="87.189"/>
						</defs>
						<clipPath id="SVGID_6_">
							<use xlink:href="#SVGID_5_"  overflow="visible"/>
						</clipPath>
						<path clip-path="url(#SVGID_6_)" fill="#3274A1" d="M124.25,104.925h13.193V89.705H124.25V104.925z"/>
					</g>
				</g>
			</g>
		</g>
		<g id="patch_6">
			<g>
				<g>
					<g>
						<defs>
							<rect id="SVGID_7_" x="54.979" y="17.736" width="98.959" height="87.189"/>
						</defs>
						<clipPath id="SVGID_8_">
							<use xlink:href="#SVGID_7_"  overflow="visible"/>
						</clipPath>
						<path clip-path="url(#SVGID_8_)" fill="#E1812C" d="M71.472,104.925h13.194V59.816H71.472V104.925L71.472,104.925z"/>
					</g>
				</g>
			</g>
		</g>
		<g id="patch_7">
			<g>
				<g>
					<g>
						<defs>
							<rect id="SVGID_9_" x="54.979" y="17.736" width="98.959" height="87.189"/>
						</defs>
						<clipPath id="SVGID_10_">
							<use xlink:href="#SVGID_9_"  overflow="visible"/>
						</clipPath>
						<path clip-path="url(#SVGID_10_)" fill="#E1812C" d="M104.458,104.925h13.194V65.837h-13.194V104.925z"/>
					</g>
				</g>
			</g>
		</g>
		<g id="patch_8">
			<g>
				<g>
					<g>
						<defs>
							<rect id="SVGID_11_" x="54.979" y="17.736" width="98.959" height="87.189"/>
						</defs>
						<clipPath id="SVGID_12_">
							<use xlink:href="#SVGID_11_"  overflow="visible"/>
						</clipPath>
						<path clip-path="url(#SVGID_12_)" fill="#E1812C" d="M137.443,104.925h13.196V87.164h-13.196V104.925L137.443,104.925z"/>
					</g>
				</g>
			</g>
		</g>
		<g id="matplotlib.axis_1">
			<g id="xtick_1">
				<g id="line2d_1">
					<g>
						<g>
							<path id="m80b23ce12f" stroke="#000000" stroke-width="0.8" stroke-linejoin="round" d="M71.472,104.925v1.039"/>
						</g>
					</g>
				</g>
				<g id="text_1">
					<text transform="matrix(1.0284 0 0 1 69.6208 111.2642)" font-family="'ArialMT'" font-size="6">1</text>
				</g>
			</g>
			<g id="xtick_2">
				<g id="line2d_2">
					<g>
						<g>
							<path id="m80b23ce12f_1_" stroke="#000000" stroke-width="0.8" stroke-linejoin="round" d="M104.458,104.925v1.039"/>
						</g>
					</g>
				</g>
				<g id="text_2">
					<text transform="matrix(1.0284 0 0 1 102.6082 111.2642)" font-family="'ArialMT'" font-size="6">3</text>
				</g>
			</g>
			<g id="xtick_3">
				<g id="line2d_3">
					<g>
						<g>
							<path id="m80b23ce12f_2_" stroke="#000000" stroke-width="0.8" stroke-linejoin="round" d="M137.443,104.925v1.039"/>
						</g>
					</g>
				</g>
				<g id="text_3">
					<text transform="matrix(1.0284 0 0 1 135.5945 111.2642)" font-family="'ArialMT'" font-size="6">6</text>
				</g>
			</g>
		</g>
		<g id="matplotlib.axis_2">
			<g id="ytick_1">
				<g id="line2d_4">
					<g>
						<g>
							<path id="m395762797d" stroke="#000000" stroke-width="0.8" stroke-linejoin="round" d="M54.979,104.925h-1.07"/>
						</g>
					</g>
				</g>
				<g id="text_5">
					<text transform="matrix(1.0284 0 0 1 44.5886 106.0542)" font-family="'ArialMT'" font-size="6">0.0</text>
				</g>
			</g>
			<g id="ytick_2">
				<g id="line2d_5">
					<g>
						<g>
							<path id="m395762797d_1_" stroke="#000000" stroke-width="0.8" stroke-linejoin="round" d="M54.979,93.32h-1.07"/>
						</g>
					</g>
				</g>
				<g id="text_6">
					<text transform="matrix(1.0284 0 0 1 44.5886 94.4478)" font-family="'ArialMT'" font-size="6">0.2</text>
				</g>
			</g>
			<g id="ytick_3">
				<g id="line2d_6">
					<g>
						<g>
							<path id="m395762797d_2_" stroke="#000000" stroke-width="0.8" stroke-linejoin="round" d="M54.979,81.712h-1.07"/>
						</g>
					</g>
				</g>
				<g id="text_7">
					<text transform="matrix(1.0284 0 0 1 44.5886 82.8413)" font-family="'ArialMT'" font-size="6">0.4</text>
				</g>
			</g>
			<g id="ytick_4">
				<g id="line2d_7">
					<g>
						<g>
							<path id="m395762797d_3_" stroke="#000000" stroke-width="0.8" stroke-linejoin="round" d="M54.979,70.107h-1.07"/>
						</g>
					</g>
				</g>
				<g id="text_8">
					<text transform="matrix(1.0284 0 0 1 44.5886 71.2358)" font-family="'ArialMT'" font-size="6">0.6</text>
				</g>
			</g>
			<g id="ytick_5">
				<g id="line2d_8">
					<g>
						<g>
							<path id="m395762797d_4_" stroke="#000000" stroke-width="0.8" stroke-linejoin="round" d="M54.979,58.5h-1.07"/>
						</g>
					</g>
				</g>
				<g id="text_9">
					<text transform="matrix(1.0284 0 0 1 44.5886 59.6304)" font-family="'ArialMT'" font-size="6">0.8</text>
				</g>
			</g>
			<g id="ytick_6">
				<g id="line2d_9">
					<g>
						<g>
							<path id="m395762797d_5_" stroke="#000000" stroke-width="0.8" stroke-linejoin="round" d="M54.979,46.895h-1.07"/>
						</g>
					</g>
				</g>
				<g id="text_10">
					<text transform="matrix(1.0284 0 0 1 44.5886 48.0239)" font-family="'ArialMT'" font-size="6">1.0</text>
				</g>
			</g>
			<g id="ytick_7">
				<g id="line2d_10">
					<g>
						<g>
							<path id="m395762797d_6_" stroke="#000000" stroke-width="0.8" stroke-linejoin="round" d="M54.979,35.289h-1.07"/>
						</g>
					</g>
				</g>
				<g id="text_11">
					<text transform="matrix(1.0284 0 0 1 44.5886 36.4175)" font-family="'ArialMT'" font-size="6">1.2</text>
				</g>
			</g>
			<g id="ytick_8">
				<g id="line2d_11">
					<g>
						<g>
							<path id="m395762797d_7_" stroke="#000000" stroke-width="0.8" stroke-linejoin="round" d="M54.979,23.682h-1.07"/>
						</g>
					</g>
				</g>
				<g id="text_12">
					<text transform="matrix(1.0284 0 0 1 44.5886 24.811)" font-family="'ArialMT'" font-size="6">1.4</text>
				</g>
			</g>
		</g>
		<g id="line2d_12">
			<g>
				<g>
					<g>
						<defs>
							<rect id="SVGID_13_" x="54.979" y="17.736" width="98.959" height="87.189"/>
						</defs>
						<clipPath id="SVGID_14_">
							<use xlink:href="#SVGID_13_"  overflow="visible"/>
						</clipPath>
						<path clip-path="url(#SVGID_14_)" fill="none" stroke="#424242" stroke-linecap="square" stroke-linejoin="round" d="
							M64.875,87.417V66.121"/>
					</g>
				</g>
			</g>
		</g>
		<g id="line2d_13">
			<g>
				<g>
					<g>
						<defs>
							<rect id="SVGID_15_" x="54.979" y="17.736" width="98.959" height="87.189"/>
						</defs>
						<clipPath id="SVGID_16_">
							<use xlink:href="#SVGID_15_"  overflow="visible"/>
						</clipPath>
						<path clip-path="url(#SVGID_16_)" fill="none" stroke="#424242" stroke-linecap="square" stroke-linejoin="round" d="
							M97.861,88.794V73.423"/>
					</g>
				</g>
			</g>
		</g>
		<g id="line2d_14">
			<g>
				<g>
					<g>
						<defs>
							<rect id="SVGID_17_" x="54.979" y="17.736" width="98.959" height="87.189"/>
						</defs>
						<clipPath id="SVGID_18_">
							<use xlink:href="#SVGID_17_"  overflow="visible"/>
						</clipPath>
						<path clip-path="url(#SVGID_18_)" fill="none" stroke="#424242" stroke-linecap="square" stroke-linejoin="round" d="
							M130.848,97.009V79.988"/>
					</g>
				</g>
			</g>
		</g>
		<g id="line2d_15">
			<g>
				<g>
					<g>
						<defs>
							<rect id="SVGID_19_" x="54.979" y="17.736" width="98.959" height="87.189"/>
						</defs>
						<clipPath id="SVGID_20_">
							<use xlink:href="#SVGID_19_"  overflow="visible"/>
						</clipPath>
						<path clip-path="url(#SVGID_20_)" fill="none" stroke="#424242" stroke-linecap="square" stroke-linejoin="round" d="
							M78.068,77.585V41.597"/>
					</g>
				</g>
			</g>
		</g>
		<g id="line2d_16">
			<g>
				<g>
					<g>
						<defs>
							<rect id="SVGID_21_" x="54.979" y="17.736" width="98.959" height="87.189"/>
						</defs>
						<clipPath id="SVGID_22_">
							<use xlink:href="#SVGID_21_"  overflow="visible"/>
						</clipPath>
						<path clip-path="url(#SVGID_22_)" fill="none" stroke="#424242" stroke-linecap="square" stroke-linejoin="round" d="
							M111.055,77.134V54.614"/>
					</g>
				</g>
			</g>
		</g>
		<g id="line2d_17">
			<g>
				<g>
					<g>
						<defs>
							<rect id="SVGID_23_" x="54.979" y="17.736" width="98.959" height="87.189"/>
						</defs>
						<clipPath id="SVGID_24_">
							<use xlink:href="#SVGID_23_"  overflow="visible"/>
						</clipPath>
						<path clip-path="url(#SVGID_24_)" fill="none" stroke="#424242" stroke-linecap="square" stroke-linejoin="round" d="
							M144.042,92.753V81.283"/>
					</g>
				</g>
			</g>
		</g>
		<g id="patch_9">
			<path fill="none" stroke="#000000" stroke-width="0.8" stroke-linecap="square" d="M54.979,104.925V17.736"/>
		</g>
		<g id="patch_10">
			<path fill="none" stroke="#000000" stroke-width="0.8" stroke-linecap="square" d="M54.979,104.925h98.959"/>
		</g>
	</g>
	<g id="axes_2">
		<g id="patch_11">
			<path fill="#FFFFFF" d="M54.791,219.139h98.958v-87.189H54.791V219.139L54.791,219.139z"/>
		</g>
		<g id="patch_12">
			<g>
				<g>
					<g>
						<defs>
							<rect id="SVGID_25_" x="54.791" y="132.93" width="98.958" height="87.189"/>
						</defs>
						<clipPath id="SVGID_26_">
							<use xlink:href="#SVGID_25_"  overflow="visible"/>
						</clipPath>
						<path clip-path="url(#SVGID_26_)" fill="#3274A1" d="M58.09,220.119h13.194v-19.91H58.09V220.119z"/>
					</g>
				</g>
			</g>
		</g>
		<g id="patch_13">
			<g>
				<g>
					<g>
						<defs>
							<rect id="SVGID_27_" x="54.791" y="132.93" width="98.958" height="87.189"/>
						</defs>
						<clipPath id="SVGID_28_">
							<use xlink:href="#SVGID_27_"  overflow="visible"/>
						</clipPath>
						<path clip-path="url(#SVGID_28_)" fill="#3274A1" d="M91.076,220.119h13.193v-25.008H91.076V220.119z"/>
					</g>
				</g>
			</g>
		</g>
		<g id="patch_14">
			<g>
				<g>
					<g>
						<defs>
							<rect id="SVGID_29_" x="54.791" y="132.93" width="98.958" height="87.189"/>
						</defs>
						<clipPath id="SVGID_30_">
							<use xlink:href="#SVGID_29_"  overflow="visible"/>
						</clipPath>
						<path clip-path="url(#SVGID_30_)" fill="#3274A1" d="M124.062,220.119h13.193v-24.066h-13.193V220.119z"/>
					</g>
				</g>
			</g>
		</g>
		<g id="patch_15">
			<g>
				<g>
					<g>
						<defs>
							<rect id="SVGID_31_" x="54.791" y="132.93" width="98.958" height="87.189"/>
						</defs>
						<clipPath id="SVGID_32_">
							<use xlink:href="#SVGID_31_"  overflow="visible"/>
						</clipPath>
						<path clip-path="url(#SVGID_32_)" fill="#E1812C" d="M71.285,220.119H84.48v-54.188H71.285V220.119z"/>
					</g>
				</g>
			</g>
		</g>
		<g id="patch_16">
			<g>
				<g>
					<g>
						<defs>
							<rect id="SVGID_33_" x="54.791" y="132.93" width="98.958" height="87.189"/>
						</defs>
						<clipPath id="SVGID_34_">
							<use xlink:href="#SVGID_33_"  overflow="visible"/>
						</clipPath>
						<path clip-path="url(#SVGID_34_)" fill="#E1812C" d="M104.27,220.119h13.195V191.93h-13.194L104.27,220.119L104.27,220.119z"
							/>
					</g>
				</g>
			</g>
		</g>
		<g id="patch_17">
			<g>
				<g>
					<g>
						<defs>
							<rect id="SVGID_35_" x="54.791" y="132.93" width="98.958" height="87.189"/>
						</defs>
						<clipPath id="SVGID_36_">
							<use xlink:href="#SVGID_35_"  overflow="visible"/>
						</clipPath>
						<path clip-path="url(#SVGID_36_)" fill="#E1812C" d="M137.256,220.119h13.195v-8.599h-13.195V220.119z"/>
					</g>
				</g>
			</g>
		</g>
		<g id="matplotlib.axis_3">
			<g id="xtick_4">
				<g id="line2d_18">
					<g>
						<g>
							<path id="m80b23ce12f_3_" stroke="#000000" stroke-width="0.8" stroke-linejoin="round" d="M71.285,220.119v1.039"/>
						</g>
					</g>
				</g>
				<g id="text_15">
					<text transform="matrix(1.0284 0 0 1 69.4329 226.458)" font-family="'ArialMT'" font-size="6">1</text>
				</g>
			</g>
			<g id="xtick_5">
				<g id="line2d_19">
					<g>
						<g>
							<path id="m80b23ce12f_4_" stroke="#000000" stroke-width="0.8" stroke-linejoin="round" d="M104.27,220.119v1.039"/>
						</g>
					</g>
				</g>
				<g id="text_16">
					<text transform="matrix(1.0284 0 0 1 102.4192 226.458)" font-family="'ArialMT'" font-size="6">3</text>
				</g>
			</g>
			<g id="xtick_6">
				<g id="line2d_20">
					<g>
						<g>
							<path id="m80b23ce12f_5_" stroke="#000000" stroke-width="0.8" stroke-linejoin="round" d="M137.256,220.119v1.039"/>
						</g>
					</g>
				</g>
				<g id="text_17">
					<text transform="matrix(1.0284 0 0 1 135.406 226.458)" font-family="'ArialMT'" font-size="6">6</text>
				</g>
			</g>
		</g>
		<g id="matplotlib.axis_4">
			<g id="ytick_9">
				<g id="line2d_21">
					<g>
						<g>
							<path id="m395762797d_8_" stroke="#000000" stroke-width="0.8" stroke-linejoin="round" d="M54.791,220.119h-1.069"/>
						</g>
					</g>
				</g>
			</g>
			<g id="ytick_10">
				<g id="line2d_22">
					<g>
						<g>
							<path id="m395762797d_9_" stroke="#000000" stroke-width="0.8" stroke-linejoin="round" d="M54.791,208.514h-1.069"/>
						</g>
					</g>
				</g>
			</g>
			<g id="ytick_11">
				<g id="line2d_23">
					<g>
						<g>
							<path id="m395762797d_10_" stroke="#000000" stroke-width="0.8" stroke-linejoin="round" d="M54.791,196.906h-1.069"/>
						</g>
					</g>
				</g>
			</g>
			<g id="ytick_12">
				<g id="line2d_24">
					<g>
						<g>
							<path id="m395762797d_11_" stroke="#000000" stroke-width="0.8" stroke-linejoin="round" d="M54.791,185.301h-1.069"/>
						</g>
					</g>
				</g>
			</g>
			<g id="ytick_13">
				<g id="line2d_25">
					<g>
						<g>
							<path id="m395762797d_12_" stroke="#000000" stroke-width="0.8" stroke-linejoin="round" d="M54.791,173.693h-1.069"/>
						</g>
					</g>
				</g>
			</g>
			<g id="ytick_14">
				<g id="line2d_26">
					<g>
						<g>
							<path id="m395762797d_13_" stroke="#000000" stroke-width="0.8" stroke-linejoin="round" d="M54.791,162.089h-1.069"/>
						</g>
					</g>
				</g>
			</g>
			<g id="ytick_15">
				<g id="line2d_27">
					<g>
						<g>
							<path id="m395762797d_14_" stroke="#000000" stroke-width="0.8" stroke-linejoin="round" d="M54.791,150.482h-1.069"/>
						</g>
					</g>
				</g>
			</g>
			<g id="ytick_16">
				<g id="line2d_28">
					<g>
						<g>
							<path id="m395762797d_15_" stroke="#000000" stroke-width="0.8" stroke-linejoin="round" d="M54.791,138.876h-1.069"/>
						</g>
					</g>
				</g>
			</g>
		</g>
		<g id="line2d_29">
			<g>
				<g>
					<g>
						<defs>
							<rect id="SVGID_37_" x="54.791" y="132.93" width="98.958" height="87.189"/>
						</defs>
						<clipPath id="SVGID_38_">
							<use xlink:href="#SVGID_37_"  overflow="visible"/>
						</clipPath>
						<path clip-path="url(#SVGID_38_)" fill="none" stroke="#424242" stroke-linecap="square" stroke-linejoin="round" d="
							M64.686,219.771v-38.723"/>
					</g>
				</g>
			</g>
		</g>
		<g id="line2d_30">
			<g>
				<g>
					<g>
						<defs>
							<rect id="SVGID_39_" x="54.791" y="132.93" width="98.958" height="87.189"/>
						</defs>
						<clipPath id="SVGID_40_">
							<use xlink:href="#SVGID_39_"  overflow="visible"/>
						</clipPath>
						<path clip-path="url(#SVGID_40_)" fill="none" stroke="#424242" stroke-linecap="square" stroke-linejoin="round" d="
							M97.672,207.375v-23.508"/>
					</g>
				</g>
			</g>
		</g>
		<g id="line2d_31">
			<g>
				<g>
					<g>
						<defs>
							<rect id="SVGID_41_" x="54.791" y="132.93" width="98.958" height="87.189"/>
						</defs>
						<clipPath id="SVGID_42_">
							<use xlink:href="#SVGID_41_"  overflow="visible"/>
						</clipPath>
						<path clip-path="url(#SVGID_42_)" fill="none" stroke="#424242" stroke-linecap="square" stroke-linejoin="round" d="
							M130.662,209.646v-25.226"/>
					</g>
				</g>
			</g>
		</g>
		<g id="line2d_32">
			<g>
				<g>
					<g>
						<defs>
							<rect id="SVGID_43_" x="54.791" y="132.93" width="98.958" height="87.189"/>
						</defs>
						<clipPath id="SVGID_44_">
							<use xlink:href="#SVGID_43_"  overflow="visible"/>
						</clipPath>
						<path clip-path="url(#SVGID_44_)" fill="none" stroke="#424242" stroke-linecap="square" stroke-linejoin="round" d="
							M77.881,191.154v-54.07"/>
					</g>
				</g>
			</g>
		</g>
		<g id="line2d_33">
			<g>
				<g>
					<g>
						<defs>
							<rect id="SVGID_45_" x="54.791" y="132.93" width="98.958" height="87.189"/>
						</defs>
						<clipPath id="SVGID_46_">
							<use xlink:href="#SVGID_45_"  overflow="visible"/>
						</clipPath>
						<path clip-path="url(#SVGID_46_)" fill="none" stroke="#424242" stroke-linecap="square" stroke-linejoin="round" d="
							M110.868,202.143v-22.189"/>
					</g>
				</g>
			</g>
		</g>
		<g id="line2d_34">
			<g>
				<g>
					<g>
						<defs>
							<rect id="SVGID_47_" x="54.791" y="132.93" width="98.958" height="87.189"/>
						</defs>
						<clipPath id="SVGID_48_">
							<use xlink:href="#SVGID_47_"  overflow="visible"/>
						</clipPath>
						<path clip-path="url(#SVGID_48_)" fill="none" stroke="#424242" stroke-linecap="square" stroke-linejoin="round" d="
							M143.853,217.914v-15.945"/>
					</g>
				</g>
			</g>
		</g>
		<g id="patch_18">
			<path fill="none" stroke="#000000" stroke-width="0.8" stroke-linecap="square" d="M54.791,220.119V132.93"/>
		</g>
		<g id="patch_19">
			<path fill="none" stroke="#000000" stroke-width="0.8" stroke-linecap="square" d="M54.791,220.119h98.958"/>
		</g>
	</g>
</g>
<g id="figure_1_1_">
	<g id="axes_1_1_">
		<g id="patch_2_1_">
			<path fill="#FFFFFF" d="M216.508,105.388h98.158V15.685h-98.158V105.388L216.508,105.388z"/>
		</g>
		<g id="patch_3_1_">
			<g>
				<g>
					<g>
						<defs>
							<rect id="SVGID_49_" x="216.508" y="15.685" width="98.158" height="89.703"/>
						</defs>
						<clipPath id="SVGID_50_">
							<use xlink:href="#SVGID_49_"  overflow="visible"/>
						</clipPath>
						<path clip-path="url(#SVGID_50_)" fill="#3274A1" d="M219.78,42.704h13.088v12.608H219.78V42.704z"/>
					</g>
				</g>
			</g>
		</g>
		<g id="patch_4_1_">
			<g>
				<g>
					<g>
						<defs>
							<rect id="SVGID_51_" x="216.508" y="15.685" width="98.158" height="89.703"/>
						</defs>
						<clipPath id="SVGID_52_">
							<use xlink:href="#SVGID_51_"  overflow="visible"/>
						</clipPath>
						<path clip-path="url(#SVGID_52_)" fill="#3274A1" d="M252.499,42.704h13.088v4.926h-13.088V42.704z"/>
					</g>
				</g>
			</g>
		</g>
		<g id="patch_5_1_">
			<g>
				<g>
					<g>
						<defs>
							<rect id="SVGID_53_" x="216.508" y="15.685" width="98.158" height="89.703"/>
						</defs>
						<clipPath id="SVGID_54_">
							<use xlink:href="#SVGID_53_"  overflow="visible"/>
						</clipPath>
						<path clip-path="url(#SVGID_54_)" fill="#3274A1" d="M285.218,42.704h13.088v-4.431h-13.088V42.704z"/>
					</g>
				</g>
			</g>
		</g>
		<g id="patch_6_1_">
			<g>
				<g>
					<g>
						<defs>
							<rect id="SVGID_55_" x="216.508" y="15.685" width="98.158" height="89.703"/>
						</defs>
						<clipPath id="SVGID_56_">
							<use xlink:href="#SVGID_55_"  overflow="visible"/>
						</clipPath>
						<path clip-path="url(#SVGID_56_)" fill="#E1812C" d="M232.868,42.704h13.088v10.088h-13.088V42.704z"/>
					</g>
				</g>
			</g>
		</g>
		<g id="patch_7_1_">
			<g>
				<g>
					<g>
						<defs>
							<rect id="SVGID_57_" x="216.508" y="15.685" width="98.158" height="89.703"/>
						</defs>
						<clipPath id="SVGID_58_">
							<use xlink:href="#SVGID_57_"  overflow="visible"/>
						</clipPath>
						<path clip-path="url(#SVGID_58_)" fill="#E1812C" d="M265.586,42.704h13.088v0.846h-13.088V42.704z"/>
					</g>
				</g>
			</g>
		</g>
		<g id="patch_8_1_">
			<g>
				<g>
					<g>
						<defs>
							<rect id="SVGID_59_" x="216.508" y="15.685" width="98.158" height="89.703"/>
						</defs>
						<clipPath id="SVGID_60_">
							<use xlink:href="#SVGID_59_"  overflow="visible"/>
						</clipPath>
						<path clip-path="url(#SVGID_60_)" fill="#E1812C" d="M298.306,42.704h13.087v-5.523h-13.087V42.704z"/>
					</g>
				</g>
			</g>
		</g>
		<g id="matplotlib.axis_1_1_">
			<g id="xtick_1_1_">
				<g id="line2d_1_1_">
					<g>
						<g>
							<path id="m991be8bab6" stroke="#000000" stroke-width="0.8" stroke-linejoin="round" d="M232.868,105.388v1.07"/>
						</g>
					</g>
				</g>
				<g id="text_1_1_">
					<text transform="matrix(1 0 0 1 231.0164 111.8525)" font-family="'ArialMT'" font-size="6">1</text>
				</g>
			</g>
			<g id="xtick_2_1_">
				<g id="line2d_2_1_">
					<g>
						<g>
							<path id="m991be8bab6_1_" stroke="#000000" stroke-width="0.8" stroke-linejoin="round" d="M265.586,105.388v1.07"/>
						</g>
					</g>
				</g>
				<g id="text_2_1_">
					<text transform="matrix(1 0 0 1 263.7361 111.8525)" font-family="'ArialMT'" font-size="6">3</text>
				</g>
			</g>
			<g id="xtick_3_1_">
				<g id="line2d_3_1_">
					<g>
						<g>
							<path id="m991be8bab6_2_" stroke="#000000" stroke-width="0.8" stroke-linejoin="round" d="M298.306,105.388v1.07"/>
						</g>
					</g>
				</g>
				<g id="text_3_1_">
					<text transform="matrix(1 0 0 1 296.4548 111.8525)" font-family="'ArialMT'" font-size="6">6</text>
				</g>
			</g>
		</g>
		<g id="matplotlib.axis_2_1_">
			<g id="ytick_1_1_">
				<g id="line2d_4_1_">
					<g>
						<g>
							<path id="mf6fe307bf7" stroke="#000000" stroke-width="0.8" stroke-linejoin="round" d="M216.508,100.39h-1.07"/>
						</g>
					</g>
				</g>
				<g id="text_5_1_">
					<text transform="matrix(1 0 0 1 205.1794 101.5518)" font-family="'ArialMT'" font-size="6">−15</text>
				</g>
			</g>
			<g id="ytick_2_1_">
				<g id="line2d_5_1_">
					<g>
						<g>
							<path id="mf6fe307bf7_1_" stroke="#000000" stroke-width="0.8" stroke-linejoin="round" d="M216.508,81.161h-1.07"/>
						</g>
					</g>
				</g>
				<g id="text_6_1_">
					<text transform="matrix(1 0 0 1 205.1794 82.3232)" font-family="'ArialMT'" font-size="6">−10</text>
				</g>
			</g>
			<g id="ytick_3_1_">
				<g id="line2d_6_1_">
					<g>
						<g>
							<path id="mf6fe307bf7_2_" stroke="#000000" stroke-width="0.8" stroke-linejoin="round" d="M216.508,61.933h-1.07"/>
						</g>
					</g>
				</g>
				<g id="text_7_1_">
					<text transform="matrix(1 0 0 1 206.8796 63.0947)" font-family="'ArialMT'" font-size="6">−5</text>
				</g>
			</g>
			<g id="ytick_4_1_">
				<g id="line2d_7_1_">
					<g>
						<g>
							<path id="mf6fe307bf7_3_" stroke="#000000" stroke-width="0.8" stroke-linejoin="round" d="M216.508,42.704h-1.07"/>
						</g>
					</g>
				</g>
				<g id="text_8_1_">
					<text transform="matrix(1 0 0 1 209.6667 43.8662)" font-family="'ArialMT'" font-size="6">0</text>
				</g>
			</g>
			<g id="ytick_5_1_">
				<g id="line2d_8_1_">
					<g>
						<g>
							<path id="mf6fe307bf7_4_" stroke="#000000" stroke-width="0.8" stroke-linejoin="round" d="M216.508,23.478h-1.07"/>
						</g>
					</g>
				</g>
				<g id="text_9_1_">
					<text transform="matrix(1 0 0 1 209.6667 24.6377)" font-family="'ArialMT'" font-size="6">5</text>
				</g>
			</g>
		</g>
		<g id="line2d_9_1_">
			<g>
				<g>
					<g>
						<defs>
							<rect id="SVGID_61_" x="216.508" y="15.685" width="98.158" height="89.703"/>
						</defs>
						<clipPath id="SVGID_62_">
							<use xlink:href="#SVGID_61_"  overflow="visible"/>
						</clipPath>
						<path clip-path="url(#SVGID_62_)" fill="none" stroke="#424242" stroke-linecap="square" stroke-linejoin="round" d="
							M226.324,62.991V47.443"/>
					</g>
				</g>
			</g>
		</g>
		<g id="line2d_10_1_">
			<g>
				<g>
					<g>
						<defs>
							<rect id="SVGID_63_" x="216.508" y="15.685" width="98.158" height="89.703"/>
						</defs>
						<clipPath id="SVGID_64_">
							<use xlink:href="#SVGID_63_"  overflow="visible"/>
						</clipPath>
						<path clip-path="url(#SVGID_64_)" fill="none" stroke="#424242" stroke-linecap="square" stroke-linejoin="round" d="
							M259.043,52.954v-10.8"/>
					</g>
				</g>
			</g>
		</g>
		<g id="line2d_11_1_">
			<g>
				<g>
					<g>
						<defs>
							<rect id="SVGID_65_" x="216.508" y="15.685" width="98.158" height="89.703"/>
						</defs>
						<clipPath id="SVGID_66_">
							<use xlink:href="#SVGID_65_"  overflow="visible"/>
						</clipPath>
						<path clip-path="url(#SVGID_66_)" fill="none" stroke="#424242" stroke-linecap="square" stroke-linejoin="round" d="
							M291.762,43.421v-9.967"/>
					</g>
				</g>
			</g>
		</g>
		<g id="line2d_12_1_">
			<g>
				<g>
					<g>
						<defs>
							<rect id="SVGID_67_" x="216.508" y="15.685" width="98.158" height="89.703"/>
						</defs>
						<clipPath id="SVGID_68_">
							<use xlink:href="#SVGID_67_"  overflow="visible"/>
						</clipPath>
						<path clip-path="url(#SVGID_68_)" fill="none" stroke="#424242" stroke-linecap="square" stroke-linejoin="round" d="
							M239.412,66.841V37.899"/>
					</g>
				</g>
			</g>
		</g>
		<g id="line2d_13_1_">
			<g>
				<g>
					<g>
						<defs>
							<rect id="SVGID_69_" x="216.508" y="15.685" width="98.158" height="89.703"/>
						</defs>
						<clipPath id="SVGID_70_">
							<use xlink:href="#SVGID_69_"  overflow="visible"/>
						</clipPath>
						<path clip-path="url(#SVGID_70_)" fill="none" stroke="#424242" stroke-linecap="square" stroke-linejoin="round" d="
							M272.131,50.37V36.001"/>
					</g>
				</g>
			</g>
		</g>
		<g id="line2d_14_1_">
			<g>
				<g>
					<g>
						<defs>
							<rect id="SVGID_71_" x="216.508" y="15.685" width="98.158" height="89.703"/>
						</defs>
						<clipPath id="SVGID_72_">
							<use xlink:href="#SVGID_71_"  overflow="visible"/>
						</clipPath>
						<path clip-path="url(#SVGID_72_)" fill="none" stroke="#424242" stroke-linecap="square" stroke-linejoin="round" d="
							M304.849,41.733v-9.258"/>
					</g>
				</g>
			</g>
		</g>
		<g id="patch_9_1_">
			<path fill="none" stroke="#000000" stroke-width="0.8" stroke-linecap="square" d="M216.508,105.388V15.685"/>
		</g>
		<g id="patch_10_1_">
			<path fill="none" stroke="#000000" stroke-width="0.8" stroke-linecap="square" d="M216.508,105.388h98.158"/>
		</g>
	</g>
	<g id="axes_2_1_">
		<g id="patch_11_1_">
			<path fill="#FFFFFF" d="M215.804,220.54h98.157v-89.703h-98.157V220.54z"/>
		</g>
		<g id="patch_12_1_">
			<g>
				<g>
					<g>
						<defs>
							<rect id="SVGID_73_" x="215.804" y="130.837" width="98.157" height="89.703"/>
						</defs>
						<clipPath id="SVGID_74_">
							<use xlink:href="#SVGID_73_"  overflow="visible"/>
						</clipPath>
						<path clip-path="url(#SVGID_74_)" fill="#3274A1" d="M219.076,157.856h13.088v-2.888h-13.088V157.856L219.076,157.856z"/>
					</g>
				</g>
			</g>
		</g>
		<g id="patch_13_1_">
			<g>
				<g>
					<g>
						<defs>
							<rect id="SVGID_75_" x="215.804" y="130.837" width="98.157" height="89.703"/>
						</defs>
						<clipPath id="SVGID_76_">
							<use xlink:href="#SVGID_75_"  overflow="visible"/>
						</clipPath>
						<path clip-path="url(#SVGID_76_)" fill="#3274A1" d="M251.797,157.856h13.087v-1.543h-13.087V157.856z"/>
					</g>
				</g>
			</g>
		</g>
		<g id="patch_14_1_">
			<g>
				<g>
					<g>
						<defs>
							<rect id="SVGID_77_" x="215.804" y="130.837" width="98.157" height="89.703"/>
						</defs>
						<clipPath id="SVGID_78_">
							<use xlink:href="#SVGID_77_"  overflow="visible"/>
						</clipPath>
						<path clip-path="url(#SVGID_78_)" fill="#3274A1" d="M284.514,157.856H297.6v2.213h-13.086V157.856z"/>
					</g>
				</g>
			</g>
		</g>
		<g id="patch_15_1_">
			<g>
				<g>
					<g>
						<defs>
							<rect id="SVGID_79_" x="215.804" y="130.837" width="98.157" height="89.703"/>
						</defs>
						<clipPath id="SVGID_80_">
							<use xlink:href="#SVGID_79_"  overflow="visible"/>
						</clipPath>
						<path clip-path="url(#SVGID_80_)" fill="#E1812C" d="M232.164,157.856h13.088v24.647h-13.088V157.856z"/>
					</g>
				</g>
			</g>
		</g>
		<g id="patch_16_1_">
			<g>
				<g>
					<g>
						<defs>
							<rect id="SVGID_81_" x="215.804" y="130.837" width="98.157" height="89.703"/>
						</defs>
						<clipPath id="SVGID_82_">
							<use xlink:href="#SVGID_81_"  overflow="visible"/>
						</clipPath>
						<path clip-path="url(#SVGID_82_)" fill="#E1812C" d="M264.883,157.856h13.089v-1.06h-13.089V157.856z"/>
					</g>
				</g>
			</g>
		</g>
		<g id="patch_17_1_">
			<g>
				<g>
					<g>
						<defs>
							<rect id="SVGID_83_" x="215.804" y="130.837" width="98.157" height="89.703"/>
						</defs>
						<clipPath id="SVGID_84_">
							<use xlink:href="#SVGID_83_"  overflow="visible"/>
						</clipPath>
						<path clip-path="url(#SVGID_84_)" fill="#E1812C" d="M297.6,157.856h13.088v-3.729H297.6V157.856z"/>
					</g>
				</g>
			</g>
		</g>
		<g id="matplotlib.axis_3_1_">
			<g id="xtick_4_1_">
				<g id="line2d_15_1_">
					<g>
						<g>
							<path id="m991be8bab6_3_" stroke="#000000" stroke-width="0.8" stroke-linejoin="round" d="M232.164,220.54v1.07"/>
						</g>
					</g>
				</g>
				<g id="text_12_1_">
					<text transform="matrix(1 0 0 1 230.3123 227.0049)" font-family="'ArialMT'" font-size="6">1</text>
				</g>
			</g>
			<g id="xtick_5_1_">
				<g id="line2d_16_1_">
					<g>
						<g>
							<path id="m991be8bab6_4_" stroke="#000000" stroke-width="0.8" stroke-linejoin="round" d="M264.883,220.54v1.07"/>
						</g>
					</g>
				</g>
				<g id="text_13_1_">
					<text transform="matrix(1 0 0 1 263.032 227.0049)" font-family="'ArialMT'" font-size="6">3</text>
				</g>
			</g>
			<g id="xtick_6_1_">
				<g id="line2d_17_1_">
					<g>
						<g>
							<path id="m991be8bab6_5_" stroke="#000000" stroke-width="0.8" stroke-linejoin="round" d="M297.6,220.54v1.07"/>
						</g>
					</g>
				</g>
				<g id="text_14">
					<text transform="matrix(1 0 0 1 295.7517 227.0049)" font-family="'ArialMT'" font-size="6">6</text>
				</g>
			</g>
		</g>
		<g id="matplotlib.axis_4_1_">
			<g id="ytick_6_1_">
				<g id="line2d_18_1_">
					<g>
						<g>
							<path id="mf6fe307bf7_5_" stroke="#000000" stroke-width="0.8" stroke-linejoin="round" d="M215.804,215.542h-1.071"/>
						</g>
					</g>
				</g>
			</g>
			<g id="ytick_7_1_">
				<g id="line2d_19_1_">
					<g>
						<g>
							<path id="mf6fe307bf7_6_" stroke="#000000" stroke-width="0.8" stroke-linejoin="round" d="M215.804,196.313h-1.071"/>
						</g>
					</g>
				</g>
			</g>
			<g id="ytick_8_1_">
				<g id="line2d_20_1_">
					<g>
						<g>
							<path id="mf6fe307bf7_7_" stroke="#000000" stroke-width="0.8" stroke-linejoin="round" d="M215.804,177.085h-1.071"/>
						</g>
					</g>
				</g>
			</g>
			<g id="ytick_9_1_">
				<g id="line2d_21_1_">
					<g>
						<g>
							<path id="mf6fe307bf7_8_" stroke="#000000" stroke-width="0.8" stroke-linejoin="round" d="M215.804,157.856h-1.071"/>
						</g>
					</g>
				</g>
			</g>
			<g id="ytick_10_1_">
				<g id="line2d_22_1_">
					<g>
						<g>
							<path id="mf6fe307bf7_9_" stroke="#000000" stroke-width="0.8" stroke-linejoin="round" d="M215.804,138.63h-1.071"/>
						</g>
					</g>
				</g>
			</g>
		</g>
		<g id="line2d_23_1_">
			<g>
				<g>
					<g>
						<defs>
							<rect id="SVGID_85_" x="215.804" y="130.837" width="98.157" height="89.703"/>
						</defs>
						<clipPath id="SVGID_86_">
							<use xlink:href="#SVGID_85_"  overflow="visible"/>
						</clipPath>
						<path clip-path="url(#SVGID_86_)" fill="none" stroke="#424242" stroke-linecap="square" stroke-linejoin="round" d="
							M225.619,177.327v-42.412"/>
					</g>
				</g>
			</g>
		</g>
		<g id="line2d_24_1_">
			<g>
				<g>
					<g>
						<defs>
							<rect id="SVGID_87_" x="215.804" y="130.837" width="98.157" height="89.703"/>
						</defs>
						<clipPath id="SVGID_88_">
							<use xlink:href="#SVGID_87_"  overflow="visible"/>
						</clipPath>
						<path clip-path="url(#SVGID_88_)" fill="none" stroke="#424242" stroke-linecap="square" stroke-linejoin="round" d="
							M258.34,168.655V147.55"/>
					</g>
				</g>
			</g>
		</g>
		<g id="line2d_25_1_">
			<g>
				<g>
					<g>
						<defs>
							<rect id="SVGID_89_" x="215.804" y="130.837" width="98.157" height="89.703"/>
						</defs>
						<clipPath id="SVGID_90_">
							<use xlink:href="#SVGID_89_"  overflow="visible"/>
						</clipPath>
						<path clip-path="url(#SVGID_90_)" fill="none" stroke="#424242" stroke-linecap="square" stroke-linejoin="round" d="
							M291.059,169.884v-21.471"/>
					</g>
				</g>
			</g>
		</g>
		<g id="line2d_26_1_">
			<g>
				<g>
					<g>
						<defs>
							<rect id="SVGID_91_" x="215.804" y="130.837" width="98.157" height="89.703"/>
						</defs>
						<clipPath id="SVGID_92_">
							<use xlink:href="#SVGID_91_"  overflow="visible"/>
						</clipPath>
						<path clip-path="url(#SVGID_92_)" fill="none" stroke="#424242" stroke-linecap="square" stroke-linejoin="round" d="
							M238.707,216.462v-69.686"/>
					</g>
				</g>
			</g>
		</g>
		<g id="line2d_27_1_">
			<g>
				<g>
					<g>
						<defs>
							<rect id="SVGID_93_" x="215.804" y="130.837" width="98.157" height="89.703"/>
						</defs>
						<clipPath id="SVGID_94_">
							<use xlink:href="#SVGID_93_"  overflow="visible"/>
						</clipPath>
						<path clip-path="url(#SVGID_94_)" fill="none" stroke="#424242" stroke-linecap="square" stroke-linejoin="round" d="
							M271.427,170.556v-26.221"/>
					</g>
				</g>
			</g>
		</g>
		<g id="line2d_28_1_">
			<g>
				<g>
					<g>
						<defs>
							<rect id="SVGID_95_" x="215.804" y="130.837" width="98.157" height="89.703"/>
						</defs>
						<clipPath id="SVGID_96_">
							<use xlink:href="#SVGID_95_"  overflow="visible"/>
						</clipPath>
						<path clip-path="url(#SVGID_96_)" fill="none" stroke="#424242" stroke-linecap="square" stroke-linejoin="round" d="
							M304.146,160.38v-13.51"/>
					</g>
				</g>
			</g>
		</g>
		<g id="patch_18_1_">
			<path fill="none" stroke="#000000" stroke-width="0.8" stroke-linecap="square" d="M215.804,220.54v-89.703"/>
		</g>
		<g id="patch_19_1_">
			<path fill="none" stroke="#000000" stroke-width="0.8" stroke-linecap="square" d="M215.804,220.54h98.157"/>
		</g>
	</g>
</g>
<text transform="matrix(4.489659e-011 -1 1 4.489659e-011 190.4773 140.9961)" font-family="'ArialMT'" font-size="8">VS-VMPFC</text>
<text transform="matrix(4.489659e-011 -1 1 4.489659e-011 200.0769 158.0117)" font-family="'ArialMT'" font-size="8">PPI, Reward&gt;Neutral</text>
<text transform="matrix(4.489659e-011 -1 1 4.489659e-011 26.6277 142.9434)" font-family="'ArialMT'" font-size="8">VS-VMPFC </text>
<text transform="matrix(4.489659e-011 -1 1 4.489659e-011 36.2273 168.0049)" font-family="'ArialMT'" font-size="8">Functional Connectivity (β)</text>
<text transform="matrix(1 0 0 1 68.2849 19.7358)" font-family="'ArialMT'" font-size="8">HeadCoil = 64-channel</text>
<text transform="matrix(1 0 0 1 67.4309 134.9297)" font-family="'ArialMT'" font-size="8">HeadCoil = 20-channel</text>
<text transform="matrix(1 0 0 1 74.2698 233.666)" font-family="'ArialMT'" font-size="8">Multiband Factor</text>
<text transform="matrix(1 0 0 1 74.2009 118.4722)" font-family="'ArialMT'" font-size="8">Multiband Factor</text>
<text transform="matrix(1 0 0 1 233.5261 234.6865)" font-family="'ArialMT'" font-size="8">Multiband Factor</text>
<text transform="matrix(1 0 0 1 234.9978 119.5342)" font-family="'ArialMT'" font-size="8">Multiband Factor</text>
<g id="text_1_2_">
	<text transform="matrix(1 0 0 1 -133.2585 11.3428)" font-family="'Arial-BoldMT'" font-size="12">A</text>
	<text transform="matrix(1 0 0 1 4.5662 11.3428)" font-family="'Arial-BoldMT'" font-size="12">B</text>
	<text transform="matrix(1 0 0 1 167.3064 11.3428)" font-family="'Arial-BoldMT'" font-size="12">C</text>
</g>
<text transform="matrix(1 0 0 1 -101.95 51.5029)" font-family="'ArialMT'" font-size="6">L</text>
<text transform="matrix(1 0 0 1 -110.0876 107.1172)" font-family="'ArialMT'" font-size="6">y = 11</text>
<text transform="matrix(1 0 0 1 -107.989 215.0596)" font-family="'ArialMT'" font-size="6">x = 4</text>
<g>
	<g>
		<path fill="none" stroke="#000000" stroke-miterlimit="10" d="M12.53,66.677c0-0.168,0.01-0.334,0.03-0.497"/>
		<path fill="none" stroke="#000000" stroke-miterlimit="10" stroke-dasharray="0.9985,0.9985" d="M-54.444,77.022
			c49.058-10.345,75.323,79.729,25.041,102.775"/>
		<path fill="none" stroke="#000000" stroke-miterlimit="10" d="M-50.914,175.008c0.055,0.155,0.104,0.315,0.145,0.478"/>
	</g>
</g>
<text transform="matrix(1 0 0 1 -108.321 23.4902)" font-family="'ArialMT'" font-size="8">PPI Seed Region:</text>
<text transform="matrix(1 0 0 1 -108.321 33.0898)" font-family="'ArialMT'" font-size="8">Ventral Striatum (VS)</text>
<text transform="matrix(1 0 0 1 -112.4617 133.2979)" font-family="'ArialMT'" font-size="8">PPI</text>
<text transform="matrix(1 0 0 1 -99.5667 133.2979)" font-family="'ArialMT'" font-size="8"> </text>
<text transform="matrix(1 0 0 1 -97.4807 133.2979)" font-family="'ArialMT'" font-size="8">T</text>
<text transform="matrix(1 0 0 1 -93.4749 133.2979)" font-family="'ArialMT'" font-size="8">arget Region:</text>
<text transform="matrix(1 0 0 1 -112.4617 142.8975)" font-family="'ArialMT'" font-size="8">Ventromedial PFC (VMPFC)</text>
<g id="text_5_2_">
	<text transform="matrix(1.0284 0 0 1 43.3298 221.6797)" font-family="'ArialMT'" font-size="6">0.0</text>
</g>
<g id="text_6_2_">
	<text transform="matrix(1.0284 0 0 1 43.3298 210.0723)" font-family="'ArialMT'" font-size="6">0.2</text>
</g>
<g id="text_7_2_">
	<text transform="matrix(1.0284 0 0 1 43.3298 198.4668)" font-family="'ArialMT'" font-size="6">0.4</text>
</g>
<g id="text_8_2_">
	<text transform="matrix(1.0284 0 0 1 43.3298 186.8613)" font-family="'ArialMT'" font-size="6">0.6</text>
</g>
<g id="text_9_2_">
	<text transform="matrix(1.0284 0 0 1 43.3298 175.2559)" font-family="'ArialMT'" font-size="6">0.8</text>
</g>
<g id="text_10_1_">
	<text transform="matrix(1.0284 0 0 1 43.3298 163.6489)" font-family="'ArialMT'" font-size="6">1.0</text>
</g>
<g id="text_11_1_">
	<text transform="matrix(1.0284 0 0 1 43.3298 152.0425)" font-family="'ArialMT'" font-size="6">1.2</text>
</g>
<g id="text_12_2_">
	<text transform="matrix(1.0284 0 0 1 43.3298 140.436)" font-family="'ArialMT'" font-size="6">1.4</text>
</g>
<g id="legend_1">
	<g id="patch_20">
		<path fill="#3274A1" d="M337.109,121.57h15.262v-4.793h-15.262V121.57z"/>
	</g>
	<g id="patch_21">
		<path fill="#E1812C" d="M337.109,131.615h15.262v-4.789h-15.262V131.615z"/>
	</g>
	<text transform="matrix(1 0 0 1 333.6238 108.3843)" font-family="'ArialMT'" font-size="8">Multiecho</text>
	<text transform="matrix(1 0 0 1 358.4636 120.8472)" font-family="'ArialMT'" font-size="8">1</text>
	<text transform="matrix(1 0 0 1 358.7449 131.3276)" font-family="'ArialMT'" font-size="8">4</text>
</g>
<g id="text_5_3_">
	<text transform="matrix(1 0 0 1 202.9353 217.3496)" font-family="'ArialMT'" font-size="6">−15</text>
</g>
<g id="text_6_3_">
	<text transform="matrix(1 0 0 1 202.9353 198.1211)" font-family="'ArialMT'" font-size="6">−10</text>
</g>
<g id="text_7_3_">
	<text transform="matrix(1 0 0 1 204.6355 178.8926)" font-family="'ArialMT'" font-size="6">−5</text>
</g>
<g id="text_8_3_">
	<text transform="matrix(1 0 0 1 207.4226 159.6646)" font-family="'ArialMT'" font-size="6">0</text>
</g>
<g id="text_9_3_">
	<text transform="matrix(1 0 0 1 207.4226 140.436)" font-family="'ArialMT'" font-size="6">5</text>
</g>
<text transform="matrix(1 0 0 1 228.739 19.8706)" font-family="'ArialMT'" font-size="8">HeadCoil = 64-channel</text>
<text transform="matrix(1 0 0 1 227.8845 135.0645)" font-family="'ArialMT'" font-size="8">HeadCoil = 20-channel</text>
</svg>
