<?xml version="1.0" encoding="utf-8"?>
<!-- Generator: Adobe Illustrator 16.0.3, SVG Export Plug-In . SVG Version: 6.00 Build 0)  -->
<!DOCTYPE svg PUBLIC "-//W3C//DTD SVG 1.1//EN" "http://www.w3.org/Graphics/SVG/1.1/DTD/svg11.dtd">
<svg version="1.1" id="Layer_1" xmlns="http://www.w3.org/2000/svg" xmlns:xlink="http://www.w3.org/1999/xlink" x="0px" y="0px"
	 width="240.945px" height="994.618px" viewBox="134.646 0 240.945 994.618" enable-background="new 134.646 0 240.945 994.618"
	 xml:space="preserve">
<g id="mask_x5F_vmPFC.tif">
	<g>
		<defs>
			<rect id="SVGID_1_" x="252.021" y="-9.021" width="139.422" height="166.895"/>
		</defs>
		<clipPath id="SVGID_2_">
			<use xlink:href="#SVGID_1_"  overflow="visible"/>
		</clipPath>
		<g transform="matrix(1 0 0 1 1.545784e-005 -2.191427e-006)" clip-path="url(#SVGID_2_)">
			
				<image overflow="visible" enable-background="new    " width="544" height="653" id="Background" xlink:href="33C8F9C8.jpg"  transform="matrix(0.2559 0 0 0.2559 252.1348 -9.1147)">
			</image>
		</g>
	</g>
	<g>
		<defs>
			<rect id="SVGID_3_" x="252.021" y="-9.021" width="139.422" height="166.895"/>
		</defs>
		<clipPath id="SVGID_4_">
			<use xlink:href="#SVGID_3_"  overflow="visible"/>
		</clipPath>
		<g transform="matrix(1 0 0 1 1.545784e-005 -2.191427e-006)" clip-path="url(#SVGID_4_)">
			
				<image overflow="visible" enable-background="new    " width="544" height="653" id="Layer_1_1_" xlink:href="33C8F9C8.png"  transform="matrix(0.2559 0 0 0.2559 252.1348 -9.1162)">
			</image>
		</g>
	</g>
	<g>
		<defs>
			<rect id="SVGID_5_" x="252.021" y="-9.021" width="139.422" height="166.895"/>
		</defs>
		<clipPath id="SVGID_6_">
			<use xlink:href="#SVGID_5_"  overflow="visible"/>
		</clipPath>
		<g transform="matrix(1 0 0 1 1.981384e-005 -1.875305e-006)" clip-path="url(#SVGID_6_)">
			
				<image overflow="visible" enable-background="new    " width="393" height="486" id="Layer_2" xlink:href="33C8F9CF.png"  transform="matrix(0.2547 0 0 0.2547 274.8906 6.6284)">
			</image>
		</g>
	</g>
</g>
<g id="figure_1">
	<g id="axes_1">
		<g id="patch_2">
			<path fill="#FFFFFF" d="M187.612,311.886H361.28V158.875H187.612V311.886z"/>
		</g>
		<g id="patch_3">
			<g>
				<g>
					<defs>
						<rect id="SVGID_7_" x="187.612" y="158.875" width="173.668" height="153.011"/>
					</defs>
					<clipPath id="SVGID_8_">
						<use xlink:href="#SVGID_7_"  overflow="visible"/>
					</clipPath>
					<path clip-path="url(#SVGID_8_)" fill="#3274A1" d="M193.402,311.886h23.155v-50.881h-23.155V311.886z"/>
				</g>
			</g>
		</g>
		<g id="patch_4">
			<g>
				<g>
					<defs>
						<rect id="SVGID_9_" x="187.612" y="158.875" width="173.668" height="153.011"/>
					</defs>
					<clipPath id="SVGID_10_">
						<use xlink:href="#SVGID_9_"  overflow="visible"/>
					</clipPath>
					<path clip-path="url(#SVGID_10_)" fill="#3274A1" d="M251.291,311.886h23.155v-41.682h-23.155V311.886z"/>
				</g>
			</g>
		</g>
		<g id="patch_5">
			<g>
				<g>
					<defs>
						<rect id="SVGID_11_" x="187.612" y="158.875" width="173.668" height="153.011"/>
					</defs>
					<clipPath id="SVGID_12_">
						<use xlink:href="#SVGID_11_"  overflow="visible"/>
					</clipPath>
					<path clip-path="url(#SVGID_12_)" fill="#3274A1" d="M309.181,311.886h23.154v-26.709h-23.154V311.886z"/>
				</g>
			</g>
		</g>
		<g id="patch_6">
			<g>
				<g>
					<defs>
						<rect id="SVGID_13_" x="187.612" y="158.875" width="173.668" height="153.011"/>
					</defs>
					<clipPath id="SVGID_14_">
						<use xlink:href="#SVGID_13_"  overflow="visible"/>
					</clipPath>
					<path clip-path="url(#SVGID_14_)" fill="#E1812C" d="M216.557,311.886h23.158v-79.162h-23.158V311.886L216.557,311.886z"/>
				</g>
			</g>
		</g>
		<g id="patch_7">
			<g>
				<g>
					<defs>
						<rect id="SVGID_15_" x="187.612" y="158.875" width="173.668" height="153.011"/>
					</defs>
					<clipPath id="SVGID_16_">
						<use xlink:href="#SVGID_15_"  overflow="visible"/>
					</clipPath>
					<path clip-path="url(#SVGID_16_)" fill="#E1812C" d="M274.446,311.886h23.155v-68.595h-23.155V311.886z"/>
				</g>
			</g>
		</g>
		<g id="patch_8">
			<g>
				<g>
					<defs>
						<rect id="SVGID_17_" x="187.612" y="158.875" width="173.668" height="153.011"/>
					</defs>
					<clipPath id="SVGID_18_">
						<use xlink:href="#SVGID_17_"  overflow="visible"/>
					</clipPath>
					<path clip-path="url(#SVGID_18_)" fill="#E1812C" d="M332.335,311.886h23.157v-31.17h-23.157V311.886z"/>
				</g>
			</g>
		</g>
		<g id="matplotlib.axis_1">
			<g id="xtick_1">
				<g id="line2d_1">
					<g>
						<g>
							<path id="m80b23ce12f" stroke="#000000" stroke-width="0.8" stroke-linejoin="round" d="M216.557,311.886v1.826"/>
						</g>
					</g>
				</g>
				<g id="text_1">
					<text transform="matrix(1.0284 0 0 1 215.0654 319.501)" font-family="'ArialMT'" font-size="6">1</text>
				</g>
			</g>
			<g id="xtick_2">
				<g id="line2d_2">
					<g>
						<g>
							<path id="m80b23ce12f_1_" stroke="#000000" stroke-width="0.8" stroke-linejoin="round" d="M274.446,311.886v1.826"/>
						</g>
					</g>
				</g>
				<g id="text_2">
					<text transform="matrix(1.0284 0 0 1 272.9551 319.501)" font-family="'ArialMT'" font-size="6">3</text>
				</g>
			</g>
			<g id="xtick_3">
				<g id="line2d_3">
					<g>
						<g>
							<path id="m80b23ce12f_2_" stroke="#000000" stroke-width="0.8" stroke-linejoin="round" d="M332.335,311.886v1.826"/>
						</g>
					</g>
				</g>
				<g id="text_3">
					<text transform="matrix(1.0284 0 0 1 330.8447 319.501)" font-family="'ArialMT'" font-size="6">6</text>
				</g>
			</g>
		</g>
		<g id="matplotlib.axis_2">
			<g id="ytick_1">
				<g id="line2d_4">
					<g>
						<g>
							<path id="m395762797d" stroke="#000000" stroke-width="0.8" stroke-linejoin="round" d="M187.612,311.886h-1.877"/>
						</g>
					</g>
				</g>
				<g id="text_5">
					<text transform="matrix(1.0284 0 0 1 176.4004 313.8682)" font-family="'ArialMT'" font-size="6">0.0</text>
				</g>
			</g>
			<g id="ytick_2">
				<g id="line2d_5">
					<g>
						<g>
							<path id="m395762797d_1_" stroke="#000000" stroke-width="0.8" stroke-linejoin="round" d="M187.612,291.519h-1.877"/>
						</g>
					</g>
				</g>
				<g id="text_6">
					<text transform="matrix(1.0284 0 0 1 176.4004 293.499)" font-family="'ArialMT'" font-size="6">0.2</text>
				</g>
			</g>
			<g id="ytick_3">
				<g id="line2d_6">
					<g>
						<g>
							<path id="m395762797d_2_" stroke="#000000" stroke-width="0.8" stroke-linejoin="round" d="M187.612,271.149h-1.877"/>
						</g>
					</g>
				</g>
				<g id="text_7">
					<text transform="matrix(1.0284 0 0 1 176.4004 273.1318)" font-family="'ArialMT'" font-size="6">0.4</text>
				</g>
			</g>
			<g id="ytick_4">
				<g id="line2d_7">
					<g>
						<g>
							<path id="m395762797d_3_" stroke="#000000" stroke-width="0.8" stroke-linejoin="round" d="M187.612,250.781h-1.877"/>
						</g>
					</g>
				</g>
				<g id="text_8">
					<text transform="matrix(1.0284 0 0 1 176.4004 252.7642)" font-family="'ArialMT'" font-size="6">0.6</text>
				</g>
			</g>
			<g id="ytick_5">
				<g id="line2d_8">
					<g>
						<g>
							<path id="m395762797d_4_" stroke="#000000" stroke-width="0.8" stroke-linejoin="round" d="M187.612,230.414h-1.877"/>
						</g>
					</g>
				</g>
				<g id="text_9">
					<text transform="matrix(1.0284 0 0 1 176.4004 232.396)" font-family="'ArialMT'" font-size="6">0.8</text>
				</g>
			</g>
			<g id="ytick_6">
				<g id="line2d_9">
					<g>
						<g>
							<path id="m395762797d_5_" stroke="#000000" stroke-width="0.8" stroke-linejoin="round" d="M187.612,210.045h-1.877"/>
						</g>
					</g>
				</g>
				<g id="text_10">
					<text transform="matrix(1.0284 0 0 1 176.4004 212.0288)" font-family="'ArialMT'" font-size="6">1.0</text>
				</g>
			</g>
			<g id="ytick_7">
				<g id="line2d_10">
					<g>
						<g>
							<path id="m395762797d_6_" stroke="#000000" stroke-width="0.8" stroke-linejoin="round" d="M187.612,189.678h-1.877"/>
						</g>
					</g>
				</g>
				<g id="text_11">
					<text transform="matrix(1.0284 0 0 1 176.4004 191.6597)" font-family="'ArialMT'" font-size="6">1.2</text>
				</g>
			</g>
			<g id="ytick_8">
				<g id="line2d_11">
					<g>
						<g>
							<path id="m395762797d_7_" stroke="#000000" stroke-width="0.8" stroke-linejoin="round" d="M187.612,169.31h-1.877"/>
						</g>
					</g>
				</g>
				<g id="text_12">
					<text transform="matrix(1.0284 0 0 1 176.4004 171.2925)" font-family="'ArialMT'" font-size="6">1.4</text>
				</g>
			</g>
		</g>
		<g id="line2d_12">
			<g>
				<g>
					<defs>
						<rect id="SVGID_19_" x="187.612" y="158.875" width="173.668" height="153.011"/>
					</defs>
					<clipPath id="SVGID_20_">
						<use xlink:href="#SVGID_19_"  overflow="visible"/>
					</clipPath>
					<path clip-path="url(#SVGID_20_)" fill="none" stroke="#424242" stroke-linecap="square" stroke-linejoin="round" d="
						M204.979,281.163v-37.378"/>
				</g>
			</g>
		</g>
		<g id="line2d_13">
			<g>
				<g>
					<defs>
						<rect id="SVGID_21_" x="187.612" y="158.875" width="173.668" height="153.011"/>
					</defs>
					<clipPath id="SVGID_22_">
						<use xlink:href="#SVGID_21_"  overflow="visible"/>
					</clipPath>
					<path clip-path="url(#SVGID_22_)" fill="none" stroke="#424242" stroke-linecap="square" stroke-linejoin="round" d="
						M262.869,283.577v-26.976"/>
				</g>
			</g>
		</g>
		<g id="line2d_14">
			<g>
				<g>
					<defs>
						<rect id="SVGID_23_" x="187.612" y="158.875" width="173.668" height="153.011"/>
					</defs>
					<clipPath id="SVGID_24_">
						<use xlink:href="#SVGID_23_"  overflow="visible"/>
					</clipPath>
					<path clip-path="url(#SVGID_24_)" fill="none" stroke="#424242" stroke-linecap="square" stroke-linejoin="round" d="
						M320.759,297.995v-29.873"/>
				</g>
			</g>
		</g>
		<g id="line2d_15">
			<g>
				<g>
					<defs>
						<rect id="SVGID_25_" x="187.612" y="158.875" width="173.668" height="153.011"/>
					</defs>
					<clipPath id="SVGID_26_">
						<use xlink:href="#SVGID_25_"  overflow="visible"/>
					</clipPath>
					<path clip-path="url(#SVGID_26_)" fill="none" stroke="#424242" stroke-linecap="square" stroke-linejoin="round" d="
						M228.134,263.908v-63.161"/>
				</g>
			</g>
		</g>
		<g id="line2d_16">
			<g>
				<g>
					<defs>
						<rect id="SVGID_27_" x="187.612" y="158.875" width="173.668" height="153.011"/>
					</defs>
					<clipPath id="SVGID_28_">
						<use xlink:href="#SVGID_27_"  overflow="visible"/>
					</clipPath>
					<path clip-path="url(#SVGID_28_)" fill="none" stroke="#424242" stroke-linecap="square" stroke-linejoin="round" d="
						M286.024,263.117v-39.524"/>
				</g>
			</g>
		</g>
		<g id="line2d_17">
			<g>
				<g>
					<defs>
						<rect id="SVGID_29_" x="187.612" y="158.875" width="173.668" height="153.011"/>
					</defs>
					<clipPath id="SVGID_30_">
						<use xlink:href="#SVGID_29_"  overflow="visible"/>
					</clipPath>
					<path clip-path="url(#SVGID_30_)" fill="none" stroke="#424242" stroke-linecap="square" stroke-linejoin="round" d="
						M343.914,290.524v-20.129"/>
				</g>
			</g>
		</g>
		<g id="patch_9">
			<path fill="none" stroke="#000000" stroke-width="0.8" stroke-linecap="square" d="M187.612,311.886V158.875"/>
		</g>
		<g id="patch_10">
			<path fill="none" stroke="#000000" stroke-width="0.8" stroke-linecap="square" d="M187.612,311.886H361.28"/>
		</g>
	</g>
	<g id="axes_2">
		<g id="patch_11">
			<path fill="#FFFFFF" d="M186.075,503.165h173.667V350.153H186.075V503.165z"/>
		</g>
		<g id="patch_12">
			<g>
				<g>
					<defs>
						<rect id="SVGID_31_" x="186.075" y="351.874" width="173.667" height="153.012"/>
					</defs>
					<clipPath id="SVGID_32_">
						<use xlink:href="#SVGID_31_"  overflow="visible"/>
					</clipPath>
					<path clip-path="url(#SVGID_32_)" fill="#3274A1" d="M191.864,504.886h23.155v-34.939h-23.155V504.886z"/>
				</g>
			</g>
		</g>
		<g id="patch_13">
			<g>
				<g>
					<defs>
						<rect id="SVGID_33_" x="186.075" y="351.874" width="173.667" height="153.012"/>
					</defs>
					<clipPath id="SVGID_34_">
						<use xlink:href="#SVGID_33_"  overflow="visible"/>
					</clipPath>
					<path clip-path="url(#SVGID_34_)" fill="#3274A1" d="M249.754,504.886h23.154v-43.885h-23.154V504.886z"/>
				</g>
			</g>
		</g>
		<g id="patch_14">
			<g>
				<g>
					<defs>
						<rect id="SVGID_35_" x="186.075" y="351.874" width="173.667" height="153.012"/>
					</defs>
					<clipPath id="SVGID_36_">
						<use xlink:href="#SVGID_35_"  overflow="visible"/>
					</clipPath>
					<path clip-path="url(#SVGID_36_)" fill="#3274A1" d="M307.643,504.886H330.8v-42.234h-23.157V504.886z"/>
				</g>
			</g>
		</g>
		<g id="patch_15">
			<g>
				<g>
					<defs>
						<rect id="SVGID_37_" x="186.075" y="351.874" width="173.667" height="153.012"/>
					</defs>
					<clipPath id="SVGID_38_">
						<use xlink:href="#SVGID_37_"  overflow="visible"/>
					</clipPath>
					<path clip-path="url(#SVGID_38_)" fill="#E1812C" d="M215.021,504.886h23.156v-95.098h-23.156V504.886z"/>
				</g>
			</g>
		</g>
		<g id="patch_16">
			<g>
				<g>
					<defs>
						<rect id="SVGID_39_" x="186.075" y="351.874" width="173.667" height="153.012"/>
					</defs>
					<clipPath id="SVGID_40_">
						<use xlink:href="#SVGID_39_"  overflow="visible"/>
					</clipPath>
					<path clip-path="url(#SVGID_40_)" fill="#E1812C" d="M272.908,504.886h23.156v-49.469h-23.155L272.908,504.886L272.908,504.886
						z"/>
				</g>
			</g>
		</g>
		<g id="patch_17">
			<g>
				<g>
					<defs>
						<rect id="SVGID_41_" x="186.075" y="351.874" width="173.667" height="153.012"/>
					</defs>
					<clipPath id="SVGID_42_">
						<use xlink:href="#SVGID_41_"  overflow="visible"/>
					</clipPath>
					<path clip-path="url(#SVGID_42_)" fill="#E1812C" d="M330.8,504.886h23.154V489.8H330.8V504.886z"/>
				</g>
			</g>
		</g>
		<g id="matplotlib.axis_3">
			<g id="xtick_4">
				<g id="line2d_18">
					<g>
						<g>
							<path id="m80b23ce12f_3_" stroke="#000000" stroke-width="0.8" stroke-linejoin="round" d="M215.021,504.886v1.826"/>
						</g>
					</g>
				</g>
				<g id="text_15">
					<text transform="matrix(1.0284 0 0 1 213.5273 512.501)" font-family="'ArialMT'" font-size="6">1</text>
				</g>
			</g>
			<g id="xtick_5">
				<g id="line2d_19">
					<g>
						<g>
							<path id="m80b23ce12f_4_" stroke="#000000" stroke-width="0.8" stroke-linejoin="round" d="M272.908,504.886v1.826"/>
						</g>
					</g>
				</g>
				<g id="text_16">
					<text transform="matrix(1.0284 0 0 1 271.418 512.501)" font-family="'ArialMT'" font-size="6">3</text>
				</g>
			</g>
			<g id="xtick_6">
				<g id="line2d_20">
					<g>
						<g>
							<path id="m80b23ce12f_5_" stroke="#000000" stroke-width="0.8" stroke-linejoin="round" d="M330.8,504.886v1.826"/>
						</g>
					</g>
				</g>
				<g id="text_17">
					<text transform="matrix(1.0284 0 0 1 329.3066 512.501)" font-family="'ArialMT'" font-size="6">6</text>
				</g>
			</g>
		</g>
		<g id="matplotlib.axis_4">
			<g id="ytick_9">
				<g id="line2d_21">
					<g>
						<g>
							<path id="m395762797d_8_" stroke="#000000" stroke-width="0.8" stroke-linejoin="round" d="M186.075,504.886h-1.877"/>
						</g>
					</g>
				</g>
			</g>
			<g id="ytick_10">
				<g id="line2d_22">
					<g>
						<g>
							<path id="m395762797d_9_" stroke="#000000" stroke-width="0.8" stroke-linejoin="round" d="M186.075,484.519h-1.877"/>
						</g>
					</g>
				</g>
			</g>
			<g id="ytick_11">
				<g id="line2d_23">
					<g>
						<g>
							<path id="m395762797d_10_" stroke="#000000" stroke-width="0.8" stroke-linejoin="round" d="M186.075,464.149h-1.877"/>
						</g>
					</g>
				</g>
			</g>
			<g id="ytick_12">
				<g id="line2d_24">
					<g>
						<g>
							<path id="m395762797d_11_" stroke="#000000" stroke-width="0.8" stroke-linejoin="round" d="M186.075,443.781h-1.877"/>
						</g>
					</g>
				</g>
			</g>
			<g id="ytick_13">
				<g id="line2d_25">
					<g>
						<g>
							<path id="m395762797d_12_" stroke="#000000" stroke-width="0.8" stroke-linejoin="round" d="M186.075,423.413h-1.877"/>
						</g>
					</g>
				</g>
			</g>
			<g id="ytick_14">
				<g id="line2d_26">
					<g>
						<g>
							<path id="m395762797d_13_" stroke="#000000" stroke-width="0.8" stroke-linejoin="round" d="M186.075,403.046h-1.877"/>
						</g>
					</g>
				</g>
			</g>
			<g id="ytick_15">
				<g id="line2d_27">
					<g>
						<g>
							<path id="m395762797d_14_" stroke="#000000" stroke-width="0.8" stroke-linejoin="round" d="M186.075,382.679h-1.877"/>
						</g>
					</g>
				</g>
			</g>
			<g id="ytick_16">
				<g id="line2d_28">
					<g>
						<g>
							<path id="m395762797d_15_" stroke="#000000" stroke-width="0.8" stroke-linejoin="round" d="M186.075,362.31h-1.877"/>
						</g>
					</g>
				</g>
			</g>
		</g>
		<g id="line2d_29">
			<g>
				<g>
					<defs>
						<rect id="SVGID_43_" x="186.075" y="351.874" width="173.667" height="153.012"/>
					</defs>
					<clipPath id="SVGID_44_">
						<use xlink:href="#SVGID_43_"  overflow="visible"/>
					</clipPath>
					<path clip-path="url(#SVGID_44_)" fill="none" stroke="#424242" stroke-linecap="square" stroke-linejoin="round" d="
						M203.441,504.275v-67.956"/>
				</g>
			</g>
		</g>
		<g id="line2d_30">
			<g>
				<g>
					<defs>
						<rect id="SVGID_45_" x="186.075" y="351.874" width="173.667" height="153.012"/>
					</defs>
					<clipPath id="SVGID_46_">
						<use xlink:href="#SVGID_45_"  overflow="visible"/>
					</clipPath>
					<path clip-path="url(#SVGID_46_)" fill="none" stroke="#424242" stroke-linecap="square" stroke-linejoin="round" d="
						M261.331,482.521v-41.252"/>
				</g>
			</g>
		</g>
		<g id="line2d_31">
			<g>
				<g>
					<defs>
						<rect id="SVGID_47_" x="186.075" y="351.874" width="173.667" height="153.012"/>
					</defs>
					<clipPath id="SVGID_48_">
						<use xlink:href="#SVGID_47_"  overflow="visible"/>
					</clipPath>
					<path clip-path="url(#SVGID_48_)" fill="none" stroke="#424242" stroke-linecap="square" stroke-linejoin="round" d="
						M319.223,486.509v-44.271"/>
				</g>
			</g>
		</g>
		<g id="line2d_32">
			<g>
				<g>
					<defs>
						<rect id="SVGID_49_" x="186.075" y="351.874" width="173.667" height="153.012"/>
					</defs>
					<clipPath id="SVGID_50_">
						<use xlink:href="#SVGID_49_"  overflow="visible"/>
					</clipPath>
					<path clip-path="url(#SVGID_50_)" fill="none" stroke="#424242" stroke-linecap="square" stroke-linejoin="round" d="
						M226.599,454.056v-94.895"/>
				</g>
			</g>
		</g>
		<g id="line2d_33">
			<g>
				<g>
					<defs>
						<rect id="SVGID_51_" x="186.075" y="351.874" width="173.667" height="153.012"/>
					</defs>
					<clipPath id="SVGID_52_">
						<use xlink:href="#SVGID_51_"  overflow="visible"/>
					</clipPath>
					<path clip-path="url(#SVGID_52_)" fill="none" stroke="#424242" stroke-linecap="square" stroke-linejoin="round" d="
						M284.488,473.337v-38.939"/>
				</g>
			</g>
		</g>
		<g id="line2d_34">
			<g>
				<g>
					<defs>
						<rect id="SVGID_53_" x="186.075" y="351.874" width="173.667" height="153.012"/>
					</defs>
					<clipPath id="SVGID_54_">
						<use xlink:href="#SVGID_53_"  overflow="visible"/>
					</clipPath>
					<path clip-path="url(#SVGID_54_)" fill="none" stroke="#424242" stroke-linecap="square" stroke-linejoin="round" d="
						M342.377,501.015v-27.98"/>
				</g>
			</g>
		</g>
		<g id="patch_18">
			<path fill="none" stroke="#000000" stroke-width="0.8" stroke-linecap="square" d="M186.075,504.886V351.874"/>
		</g>
		<g id="patch_19">
			<path fill="none" stroke="#000000" stroke-width="0.8" stroke-linecap="square" d="M186.075,504.886h173.667"/>
		</g>
	</g>
</g>
<text transform="matrix(4.489659e-011 -1 1 4.489659e-011 158.9199 288.2705)" font-family="'ArialMT'" font-size="8">Contrast of Parameter Estimates</text>
<text transform="matrix(4.489659e-011 -1 1 4.489659e-011 168.5195 273.1475)" font-family="'ArialMT'" font-size="8">VS-vmPFC Connectivity</text>
<text transform="matrix(1 0 0 1 235.7881 161.0542)" font-family="'ArialMT'" font-size="8">HeadCoil = 64-channel</text>
<text transform="matrix(1 0 0 1 230.981 353.3369)" font-family="'ArialMT'" font-size="8">HeadCoil = 20-channel</text>
<g id="text_1_3_">
	<text transform="matrix(1 0 0 1 135.6455 12.999)" font-family="'Arial-BoldMT'" font-size="12">A</text>
	<text transform="matrix(1 0 0 1 135.6455 166.1831)" font-family="'Arial-BoldMT'" font-size="12">B</text>
	<text transform="matrix(1 0 0 1 135.6455 570.708)" font-family="'Arial-BoldMT'" font-size="12">C</text>
</g>
<g id="figure_1_1_">
	<g id="axes_1_1_">
		<g id="patch_2_1_">
			<path fill="#FFFFFF" d="M184.879,721.341h172.261V563.915H184.879V721.341z"/>
		</g>
		<g id="patch_3_1_">
			<g>
				<g>
					<defs>
						<rect id="SVGID_55_" x="184.879" y="563.915" width="172.261" height="157.426"/>
					</defs>
					<clipPath id="SVGID_56_">
						<use xlink:href="#SVGID_55_"  overflow="visible"/>
					</clipPath>
					<path clip-path="url(#SVGID_56_)" fill="#3274A1" d="M190.621,611.335h22.968v22.129h-22.968V611.335z"/>
				</g>
			</g>
		</g>
		<g id="patch_4_1_">
			<g>
				<g>
					<defs>
						<rect id="SVGID_57_" x="184.879" y="563.915" width="172.261" height="157.426"/>
					</defs>
					<clipPath id="SVGID_58_">
						<use xlink:href="#SVGID_57_"  overflow="visible"/>
					</clipPath>
					<path clip-path="url(#SVGID_58_)" fill="#3274A1" d="M248.042,611.335h22.969v8.646h-22.969V611.335z"/>
				</g>
			</g>
		</g>
		<g id="patch_5_1_">
			<g>
				<g>
					<defs>
						<rect id="SVGID_59_" x="184.879" y="563.915" width="172.261" height="157.426"/>
					</defs>
					<clipPath id="SVGID_60_">
						<use xlink:href="#SVGID_59_"  overflow="visible"/>
					</clipPath>
					<path clip-path="url(#SVGID_60_)" fill="#3274A1" d="M305.462,611.335h22.969v-7.773h-22.969V611.335z"/>
				</g>
			</g>
		</g>
		<g id="patch_6_1_">
			<g>
				<g>
					<defs>
						<rect id="SVGID_61_" x="184.879" y="563.915" width="172.261" height="157.426"/>
					</defs>
					<clipPath id="SVGID_62_">
						<use xlink:href="#SVGID_61_"  overflow="visible"/>
					</clipPath>
					<path clip-path="url(#SVGID_62_)" fill="#E1812C" d="M213.589,611.335h22.968v17.701h-22.968V611.335z"/>
				</g>
			</g>
		</g>
		<g id="patch_7_1_">
			<g>
				<g>
					<defs>
						<rect id="SVGID_63_" x="184.879" y="563.915" width="172.261" height="157.426"/>
					</defs>
					<clipPath id="SVGID_64_">
						<use xlink:href="#SVGID_63_"  overflow="visible"/>
					</clipPath>
					<path clip-path="url(#SVGID_64_)" fill="#E1812C" d="M271.009,611.335h22.969v1.482h-22.969V611.335z"/>
				</g>
			</g>
		</g>
		<g id="patch_8_1_">
			<g>
				<g>
					<defs>
						<rect id="SVGID_65_" x="184.879" y="563.915" width="172.261" height="157.426"/>
					</defs>
					<clipPath id="SVGID_66_">
						<use xlink:href="#SVGID_65_"  overflow="visible"/>
					</clipPath>
					<path clip-path="url(#SVGID_66_)" fill="#E1812C" d="M328.431,611.335h22.968v-9.693h-22.968V611.335z"/>
				</g>
			</g>
		</g>
		<g id="matplotlib.axis_1_1_">
			<g id="xtick_1_1_">
				<g id="line2d_1_1_">
					<g>
						<g>
							<path id="m991be8bab6" stroke="#000000" stroke-width="0.8" stroke-linejoin="round" d="M213.589,721.341v1.879"/>
						</g>
					</g>
				</g>
				<g id="text_1_1_">
					<text transform="matrix(1 0 0 1 212.0977 729.1768)" font-family="'ArialMT'" font-size="5.367">1</text>
				</g>
			</g>
			<g id="xtick_2_1_">
				<g id="line2d_2_1_">
					<g>
						<g>
							<path id="m991be8bab6_1_" stroke="#000000" stroke-width="0.8" stroke-linejoin="round" d="M271.009,721.341v1.879"/>
						</g>
					</g>
				</g>
				<g id="text_2_1_">
					<text transform="matrix(1 0 0 1 269.5186 729.1768)" font-family="'ArialMT'" font-size="5.367">3</text>
				</g>
			</g>
			<g id="xtick_3_1_">
				<g id="line2d_3_1_">
					<g>
						<g>
							<path id="m991be8bab6_2_" stroke="#000000" stroke-width="0.8" stroke-linejoin="round" d="M328.431,721.341v1.879"/>
						</g>
					</g>
				</g>
				<g id="text_3_1_">
					<text transform="matrix(1 0 0 1 326.9385 729.1768)" font-family="'ArialMT'" font-size="5.367">6</text>
				</g>
			</g>
		</g>
		<g id="matplotlib.axis_2_1_">
			<g id="ytick_1_1_">
				<g id="line2d_4_1_">
					<g>
						<g>
							<path id="mf6fe307bf7" stroke="#000000" stroke-width="0.8" stroke-linejoin="round" d="M184.879,712.569h-1.878"/>
						</g>
					</g>
				</g>
				<g id="text_5_1_">
					<text transform="matrix(1 0 0 1 172.0195 714.6084)" font-family="'ArialMT'" font-size="5.367">−15</text>
				</g>
			</g>
			<g id="ytick_2_1_">
				<g id="line2d_5_1_">
					<g>
						<g>
							<path id="mf6fe307bf7_1_" stroke="#000000" stroke-width="0.8" stroke-linejoin="round" d="M184.879,678.825h-1.878"/>
						</g>
					</g>
				</g>
				<g id="text_6_1_">
					<text transform="matrix(1 0 0 1 172.0195 680.8643)" font-family="'ArialMT'" font-size="5.367">−10</text>
				</g>
			</g>
			<g id="ytick_3_1_">
				<g id="line2d_6_1_">
					<g>
						<g>
							<path id="mf6fe307bf7_2_" stroke="#000000" stroke-width="0.8" stroke-linejoin="round" d="M184.879,645.079h-1.878"/>
						</g>
					</g>
				</g>
				<g id="text_7_1_">
					<text transform="matrix(1 0 0 1 175.0044 647.1182)" font-family="'ArialMT'" font-size="5.367">−5</text>
				</g>
			</g>
			<g id="ytick_4_1_">
				<g id="line2d_7_1_">
					<g>
						<g>
							<path id="mf6fe307bf7_3_" stroke="#000000" stroke-width="0.8" stroke-linejoin="round" d="M184.879,611.335h-1.878"/>
						</g>
					</g>
				</g>
				<g id="text_8_1_">
					<text transform="matrix(1 0 0 1 178.1392 613.374)" font-family="'ArialMT'" font-size="5.367">0</text>
				</g>
			</g>
			<g id="ytick_5_1_">
				<g id="line2d_8_1_">
					<g>
						<g>
							<path id="mf6fe307bf7_4_" stroke="#000000" stroke-width="0.8" stroke-linejoin="round" d="M184.879,577.591h-1.878"/>
						</g>
					</g>
				</g>
				<g id="text_9_1_">
					<text transform="matrix(1 0 0 1 178.1392 579.6299)" font-family="'ArialMT'" font-size="5.367">5</text>
				</g>
			</g>
		</g>
		<g id="line2d_9_1_">
			<g>
				<g>
					<defs>
						<rect id="SVGID_67_" x="184.879" y="563.915" width="172.261" height="157.426"/>
					</defs>
					<clipPath id="SVGID_68_">
						<use xlink:href="#SVGID_67_"  overflow="visible"/>
					</clipPath>
					<path clip-path="url(#SVGID_68_)" fill="none" stroke="#424242" stroke-linecap="square" stroke-linejoin="round" d="
						M202.105,646.937v-27.285"/>
				</g>
			</g>
		</g>
		<g id="line2d_10_1_">
			<g>
				<g>
					<defs>
						<rect id="SVGID_69_" x="184.879" y="563.915" width="172.261" height="157.426"/>
					</defs>
					<clipPath id="SVGID_70_">
						<use xlink:href="#SVGID_69_"  overflow="visible"/>
					</clipPath>
					<path clip-path="url(#SVGID_70_)" fill="none" stroke="#424242" stroke-linecap="square" stroke-linejoin="round" d="
						M259.526,629.319v-18.951"/>
				</g>
			</g>
		</g>
		<g id="line2d_11_1_">
			<g>
				<g>
					<defs>
						<rect id="SVGID_71_" x="184.879" y="563.915" width="172.261" height="157.426"/>
					</defs>
					<clipPath id="SVGID_72_">
						<use xlink:href="#SVGID_71_"  overflow="visible"/>
					</clipPath>
					<path clip-path="url(#SVGID_72_)" fill="none" stroke="#424242" stroke-linecap="square" stroke-linejoin="round" d="
						M316.946,612.591v-17.488"/>
				</g>
			</g>
		</g>
		<g id="line2d_12_1_">
			<g>
				<g>
					<defs>
						<rect id="SVGID_73_" x="184.879" y="563.915" width="172.261" height="157.426"/>
					</defs>
					<clipPath id="SVGID_74_">
						<use xlink:href="#SVGID_73_"  overflow="visible"/>
					</clipPath>
					<path clip-path="url(#SVGID_74_)" fill="none" stroke="#424242" stroke-linecap="square" stroke-linejoin="round" d="
						M225.073,653.692v-50.791"/>
				</g>
			</g>
		</g>
		<g id="line2d_13_1_">
			<g>
				<g>
					<defs>
						<rect id="SVGID_75_" x="184.879" y="563.915" width="172.261" height="157.426"/>
					</defs>
					<clipPath id="SVGID_76_">
						<use xlink:href="#SVGID_75_"  overflow="visible"/>
					</clipPath>
					<path clip-path="url(#SVGID_76_)" fill="none" stroke="#424242" stroke-linecap="square" stroke-linejoin="round" d="
						M282.494,624.786v-25.217"/>
				</g>
			</g>
		</g>
		<g id="line2d_14_1_">
			<g>
				<g>
					<defs>
						<rect id="SVGID_77_" x="184.879" y="563.915" width="172.261" height="157.426"/>
					</defs>
					<clipPath id="SVGID_78_">
						<use xlink:href="#SVGID_77_"  overflow="visible"/>
					</clipPath>
					<path clip-path="url(#SVGID_78_)" fill="none" stroke="#424242" stroke-linecap="square" stroke-linejoin="round" d="
						M339.914,609.63v-16.246"/>
				</g>
			</g>
		</g>
		<g id="patch_9_1_">
			<path fill="none" stroke="#000000" stroke-width="0.8" stroke-linecap="square" d="M184.879,721.341V563.915"/>
		</g>
		<g id="patch_10_1_">
			<path fill="none" stroke="#000000" stroke-width="0.8" stroke-linecap="square" d="M184.879,721.341h172.261"/>
		</g>
	</g>
	<g id="axes_2_1_">
		<g id="patch_11_1_">
			<path fill="#FFFFFF" d="M184.227,912.841h172.261V755.415H184.227V912.841z"/>
		</g>
		<g id="patch_12_1_">
			<g>
				<g>
					<defs>
						<rect id="SVGID_79_" x="184.227" y="755.415" width="172.261" height="157.426"/>
					</defs>
					<clipPath id="SVGID_80_">
						<use xlink:href="#SVGID_79_"  overflow="visible"/>
					</clipPath>
					<path clip-path="url(#SVGID_80_)" fill="#3274A1" d="M189.969,802.835h22.968v-5.066h-22.968V802.835z"/>
				</g>
			</g>
		</g>
		<g id="patch_13_1_">
			<g>
				<g>
					<defs>
						<rect id="SVGID_81_" x="184.227" y="755.415" width="172.261" height="157.426"/>
					</defs>
					<clipPath id="SVGID_82_">
						<use xlink:href="#SVGID_81_"  overflow="visible"/>
					</clipPath>
					<path clip-path="url(#SVGID_82_)" fill="#3274A1" d="M247.39,802.835h22.968v-2.709H247.39V802.835z"/>
				</g>
			</g>
		</g>
		<g id="patch_14_1_">
			<g>
				<g>
					<defs>
						<rect id="SVGID_83_" x="184.227" y="755.415" width="172.261" height="157.426"/>
					</defs>
					<clipPath id="SVGID_84_">
						<use xlink:href="#SVGID_83_"  overflow="visible"/>
					</clipPath>
					<path clip-path="url(#SVGID_84_)" fill="#3274A1" d="M304.81,802.835h22.968v3.879H304.81V802.835z"/>
				</g>
			</g>
		</g>
		<g id="patch_15_1_">
			<g>
				<g>
					<defs>
						<rect id="SVGID_85_" x="184.227" y="755.415" width="172.261" height="157.426"/>
					</defs>
					<clipPath id="SVGID_86_">
						<use xlink:href="#SVGID_85_"  overflow="visible"/>
					</clipPath>
					<path clip-path="url(#SVGID_86_)" fill="#E1812C" d="M212.937,802.835h22.969v43.254h-22.969V802.835z"/>
				</g>
			</g>
		</g>
		<g id="patch_16_1_">
			<g>
				<g>
					<defs>
						<rect id="SVGID_87_" x="184.227" y="755.415" width="172.261" height="157.426"/>
					</defs>
					<clipPath id="SVGID_88_">
						<use xlink:href="#SVGID_87_"  overflow="visible"/>
					</clipPath>
					<path clip-path="url(#SVGID_88_)" fill="#E1812C" d="M270.356,802.835h22.969v-1.859h-22.969V802.835z"/>
				</g>
			</g>
		</g>
		<g id="patch_17_1_">
			<g>
				<g>
					<defs>
						<rect id="SVGID_89_" x="184.227" y="755.415" width="172.261" height="157.426"/>
					</defs>
					<clipPath id="SVGID_90_">
						<use xlink:href="#SVGID_89_"  overflow="visible"/>
					</clipPath>
					<path clip-path="url(#SVGID_90_)" fill="#E1812C" d="M327.776,802.835h22.968v-6.543h-22.968V802.835z"/>
				</g>
			</g>
		</g>
		<g id="matplotlib.axis_3_1_">
			<g id="xtick_4_1_">
				<g id="line2d_15_1_">
					<g>
						<g>
							<path id="m991be8bab6_3_" stroke="#000000" stroke-width="0.8" stroke-linejoin="round" d="M212.937,912.841v1.879"/>
						</g>
					</g>
				</g>
				<g id="text_12_1_">
					<text transform="matrix(1 0 0 1 211.4458 920.6768)" font-family="'ArialMT'" font-size="5.367">1</text>
				</g>
			</g>
			<g id="xtick_5_1_">
				<g id="line2d_16_1_">
					<g>
						<g>
							<path id="m991be8bab6_4_" stroke="#000000" stroke-width="0.8" stroke-linejoin="round" d="M270.356,912.841v1.879"/>
						</g>
					</g>
				</g>
				<g id="text_13_1_">
					<text transform="matrix(1 0 0 1 268.8662 920.6768)" font-family="'ArialMT'" font-size="5.367">3</text>
				</g>
			</g>
			<g id="xtick_6_1_">
				<g id="line2d_17_1_">
					<g>
						<g>
							<path id="m991be8bab6_5_" stroke="#000000" stroke-width="0.8" stroke-linejoin="round" d="M327.776,912.841v1.879"/>
						</g>
					</g>
				</g>
				<g id="text_14">
					<text transform="matrix(1 0 0 1 326.2861 920.6768)" font-family="'ArialMT'" font-size="5.367">6</text>
				</g>
			</g>
		</g>
		<g id="matplotlib.axis_4_1_">
			<g id="ytick_6_1_">
				<g id="line2d_18_1_">
					<g>
						<g>
							<path id="mf6fe307bf7_5_" stroke="#000000" stroke-width="0.8" stroke-linejoin="round" d="M184.227,904.069h-1.878"/>
						</g>
					</g>
				</g>
			</g>
			<g id="ytick_7_1_">
				<g id="line2d_19_1_">
					<g>
						<g>
							<path id="mf6fe307bf7_6_" stroke="#000000" stroke-width="0.8" stroke-linejoin="round" d="M184.227,870.325h-1.878"/>
						</g>
					</g>
				</g>
			</g>
			<g id="ytick_8_1_">
				<g id="line2d_20_1_">
					<g>
						<g>
							<path id="mf6fe307bf7_7_" stroke="#000000" stroke-width="0.8" stroke-linejoin="round" d="M184.227,836.579h-1.878"/>
						</g>
					</g>
				</g>
			</g>
			<g id="ytick_9_1_">
				<g id="line2d_21_1_">
					<g>
						<g>
							<path id="mf6fe307bf7_8_" stroke="#000000" stroke-width="0.8" stroke-linejoin="round" d="M184.227,802.835h-1.878"/>
						</g>
					</g>
				</g>
			</g>
			<g id="ytick_10_1_">
				<g id="line2d_22_1_">
					<g>
						<g>
							<path id="mf6fe307bf7_9_" stroke="#000000" stroke-width="0.8" stroke-linejoin="round" d="M184.227,769.091h-1.878"/>
						</g>
					</g>
				</g>
			</g>
		</g>
		<g id="line2d_23_1_">
			<g>
				<g>
					<defs>
						<rect id="SVGID_91_" x="184.227" y="755.415" width="172.261" height="157.426"/>
					</defs>
					<clipPath id="SVGID_92_">
						<use xlink:href="#SVGID_91_"  overflow="visible"/>
					</clipPath>
					<path clip-path="url(#SVGID_92_)" fill="none" stroke="#424242" stroke-linecap="square" stroke-linejoin="round" d="
						M201.452,837.003v-74.432"/>
				</g>
			</g>
		</g>
		<g id="line2d_24_1_">
			<g>
				<g>
					<defs>
						<rect id="SVGID_93_" x="184.227" y="755.415" width="172.261" height="157.426"/>
					</defs>
					<clipPath id="SVGID_94_">
						<use xlink:href="#SVGID_93_"  overflow="visible"/>
					</clipPath>
					<path clip-path="url(#SVGID_94_)" fill="none" stroke="#424242" stroke-linecap="square" stroke-linejoin="round" d="
						M258.872,821.784v-37.037"/>
				</g>
			</g>
		</g>
		<g id="line2d_25_1_">
			<g>
				<g>
					<defs>
						<rect id="SVGID_95_" x="184.227" y="755.415" width="172.261" height="157.426"/>
					</defs>
					<clipPath id="SVGID_96_">
						<use xlink:href="#SVGID_95_"  overflow="visible"/>
					</clipPath>
					<path clip-path="url(#SVGID_96_)" fill="none" stroke="#424242" stroke-linecap="square" stroke-linejoin="round" d="
						M316.295,823.942v-37.682"/>
				</g>
			</g>
		</g>
		<g id="line2d_26_1_">
			<g>
				<g>
					<defs>
						<rect id="SVGID_97_" x="184.227" y="755.415" width="172.261" height="157.426"/>
					</defs>
					<clipPath id="SVGID_98_">
						<use xlink:href="#SVGID_97_"  overflow="visible"/>
					</clipPath>
					<path clip-path="url(#SVGID_98_)" fill="none" stroke="#424242" stroke-linecap="square" stroke-linejoin="round" d="
						M224.421,905.685V783.39"/>
				</g>
			</g>
		</g>
		<g id="line2d_27_1_">
			<g>
				<g>
					<defs>
						<rect id="SVGID_99_" x="184.227" y="755.415" width="172.261" height="157.426"/>
					</defs>
					<clipPath id="SVGID_100_">
						<use xlink:href="#SVGID_99_"  overflow="visible"/>
					</clipPath>
					<path clip-path="url(#SVGID_100_)" fill="none" stroke="#424242" stroke-linecap="square" stroke-linejoin="round" d="
						M281.842,825.12v-46.014"/>
				</g>
			</g>
		</g>
		<g id="line2d_28_1_">
			<g>
				<g>
					<defs>
						<rect id="SVGID_101_" x="184.227" y="755.415" width="172.261" height="157.426"/>
					</defs>
					<clipPath id="SVGID_102_">
						<use xlink:href="#SVGID_101_"  overflow="visible"/>
					</clipPath>
					<path clip-path="url(#SVGID_102_)" fill="none" stroke="#424242" stroke-linecap="square" stroke-linejoin="round" d="
						M339.262,807.265v-23.713"/>
				</g>
			</g>
		</g>
		<g id="patch_18_1_">
			<path fill="none" stroke="#000000" stroke-width="0.8" stroke-linecap="square" d="M184.227,912.841V755.415"/>
		</g>
		<g id="patch_19_1_">
			<path fill="none" stroke="#000000" stroke-width="0.8" stroke-linecap="square" d="M184.227,912.841h172.261"/>
		</g>
	</g>
</g>
<text transform="matrix(4.489659e-011 -1 1 4.489659e-011 157.9199 720.1221)" font-family="'ArialMT'" font-size="8">Psychophysiological Interaction, VS-vmPFC</text>
<text transform="matrix(4.489659e-011 -1 1 4.489659e-011 167.5205 692.8955)" font-family="'ArialMT'" font-size="8">Anticipation Reward&gt;Neutral</text>
<text transform="matrix(1 0 0 1 324.9541 178.6543)" font-family="'ArialMT'" font-size="10">Multiecho</text>
<text transform="matrix(1 0 0 1 362.2998 200.6543)" font-family="'ArialMT'" font-size="10">1</text>
<text transform="matrix(1 0 0 1 362.7998 219.1543)" font-family="'ArialMT'" font-size="10">4</text>
<text transform="matrix(1 0 0 1 206.1694 23.9946)" font-family="'ArialMT'" font-size="10">L</text>
<text transform="matrix(4.489659e-011 -1 1 4.489659e-011 158.9199 288.2705)" font-family="'ArialMT'" font-size="8">Contrast of Parameter Estimates</text>
<text transform="matrix(4.489659e-011 -1 1 4.489659e-011 168.5195 273.1475)" font-family="'ArialMT'" font-size="8">VS-vmPFC Connectivity</text>
<text transform="matrix(1 0 0 1 235.7881 161.0542)" font-family="'ArialMT'" font-size="8">HeadCoil = 64-channel</text>
<text transform="matrix(1 0 0 1 230.981 353.3369)" font-family="'ArialMT'" font-size="8">HeadCoil = 20-channel</text>
<text transform="matrix(1 0 0 1 246.9019 521.6416)" font-family="'ArialMT'" font-size="8">Multiband Factor</text>
<text transform="matrix(1 0 0 1 247.9917 328.6416)" font-family="'ArialMT'" font-size="8">Multiband Factor</text>
<text transform="matrix(1 0 0 1 247.144 930.6475)" font-family="'ArialMT'" font-size="8">Multiband Factor</text>
<text transform="matrix(1 0 0 1 246.3896 739.1475)" font-family="'ArialMT'" font-size="8">Multiband Factor</text>
<g id="patch_21">
	<path fill="#E1812C" d="M327.943,220.021h26.945v-8.455h-26.945V220.021z"/>
</g>
<g id="patch_20">
	<path fill="#3274A1" d="M327.941,202.287h26.945v-8.461h-26.945V202.287L327.941,202.287z"/>
</g>
<g transform="matrix(1 0 0 1 7.542345e-006 1.810095e-007)">
	
		<image overflow="visible" enable-background="new    " width="400" height="388" id="Layer_1_2_" xlink:href="E3A5C720.png"  transform="matrix(0.2726 0 0 0.2726 137.3159 14.5313)">
	</image>
</g>
<text transform="matrix(1 0 0 1 140.5713 27.999)" font-family="'ArialMT'" font-size="8">L</text>
<text transform="matrix(1 0 0 1 138.6455 132.7734)" font-family="'ArialMT'" font-size="8">y = 11</text>
<g id="text_5_2_">
	<text transform="matrix(1.0284 0 0 1 174.5205 506.8857)" font-family="'ArialMT'" font-size="6">0.0</text>
</g>
<g id="text_6_2_">
	<text transform="matrix(1.0284 0 0 1 174.5205 486.5166)" font-family="'ArialMT'" font-size="6">0.2</text>
</g>
<g id="text_7_2_">
	<text transform="matrix(1.0284 0 0 1 174.5205 466.1494)" font-family="'ArialMT'" font-size="6">0.4</text>
</g>
<g id="text_8_2_">
	<text transform="matrix(1.0284 0 0 1 174.5205 445.7822)" font-family="'ArialMT'" font-size="6">0.6</text>
</g>
<g id="text_9_2_">
	<text transform="matrix(1.0284 0 0 1 174.5205 425.4131)" font-family="'ArialMT'" font-size="6">0.8</text>
</g>
<g id="text_10_1_">
	<text transform="matrix(1.0284 0 0 1 174.5205 405.0459)" font-family="'ArialMT'" font-size="6">1.0</text>
</g>
<g id="text_11_1_">
	<text transform="matrix(1.0284 0 0 1 174.5205 384.6768)" font-family="'ArialMT'" font-size="6">1.2</text>
</g>
<g id="text_12_2_">
	<text transform="matrix(1.0284 0 0 1 174.5205 364.3096)" font-family="'ArialMT'" font-size="6">1.4</text>
</g>
<text transform="matrix(4.489659e-011 -1 1 4.489659e-011 156.9199 486.5166)" font-family="'ArialMT'" font-size="8">Contrast of Parameter Estimates</text>
<text transform="matrix(4.489659e-011 -1 1 4.489659e-011 166.5195 471.3936)" font-family="'ArialMT'" font-size="8">VS-vmPFC Connectivity</text>
<g id="text_5_3_">
	<text transform="matrix(1 0 0 1 171.9448 905.8525)" font-family="'ArialMT'" font-size="5.367">−15</text>
</g>
<g id="text_6_3_">
	<text transform="matrix(1 0 0 1 171.9448 872.1084)" font-family="'ArialMT'" font-size="5.367">−10</text>
</g>
<g id="text_7_3_">
	<text transform="matrix(1 0 0 1 174.9297 838.3623)" font-family="'ArialMT'" font-size="5.367">−5</text>
</g>
<g id="text_8_3_">
	<text transform="matrix(1 0 0 1 178.0645 804.6182)" font-family="'ArialMT'" font-size="5.367">0</text>
</g>
<g id="text_9_3_">
	<text transform="matrix(1 0 0 1 178.0645 770.874)" font-family="'ArialMT'" font-size="5.367">5</text>
</g>
<text transform="matrix(4.489659e-011 -1 1 4.489659e-011 157.9199 913.8525)" font-family="'ArialMT'" font-size="8">Psychophysiological Interaction, VS-vmPFC</text>
<text transform="matrix(4.489659e-011 -1 1 4.489659e-011 167.5205 886.626)" font-family="'ArialMT'" font-size="8">Anticipation Reward&gt;Neutral</text>
<text transform="matrix(1 0 0 1 226.981 567.0537)" font-family="'ArialMT'" font-size="8">HeadCoil = 64-channel</text>
<text transform="matrix(1 0 0 1 222.1738 762.3369)" font-family="'ArialMT'" font-size="8">HeadCoil = 20-channel</text>
<text transform="matrix(1 0 0 1 274.8135 130.7734)" font-family="'ArialMT'" font-size="8">z = 0</text>
<g>
	<g>
		<g>
			<g>
				<g>
					<g>
						<rect x="246.367" y="65.119" fill="none" width="14.261" height="14.998"/>
					</g>
					<rect x="256.929" y="72.088" fill-rule="evenodd" clip-rule="evenodd" fill="#231F20" width="2.646" height="1.5"/>
					<rect x="252.181" y="72.088" fill-rule="evenodd" clip-rule="evenodd" fill="#231F20" width="2.646" height="1.5"/>
					<rect x="247.448" y="72.088" fill-rule="evenodd" clip-rule="evenodd" fill="#231F20" width="2.646" height="1.5"/>
				</g>
			</g>
			<g>
				<g>
					<g>
						<rect x="260.628" y="65.119" fill="none" width="14.264" height="14.998"/>
					</g>
					<rect x="271.19" y="72.088" fill-rule="evenodd" clip-rule="evenodd" fill="#231F20" width="2.646" height="1.5"/>
					<rect x="266.442" y="72.088" fill-rule="evenodd" clip-rule="evenodd" fill="#231F20" width="2.646" height="1.5"/>
					<rect x="261.71" y="72.088" fill-rule="evenodd" clip-rule="evenodd" fill="#231F20" width="2.646" height="1.5"/>
				</g>
			</g>
		</g>
	</g>
</g>
</svg>
