<?xml version="1.0" encoding="utf-8"?>
<!-- Generator: Adobe Illustrator 16.0.3, SVG Export Plug-In . SVG Version: 6.00 Build 0)  -->
<!DOCTYPE svg PUBLIC "-//W3C//DTD SVG 1.1//EN" "http://www.w3.org/Graphics/SVG/1.1/DTD/svg11.dtd">
<svg version="1.1" id="Layer_1" xmlns="http://www.w3.org/2000/svg" xmlns:xlink="http://www.w3.org/1999/xlink" x="0px" y="0px"
	 width="240.945px" height="994.618px" viewBox="0 0 240.945 994.618" enable-background="new 0 0 240.945 994.618"
	 xml:space="preserve">
<g id="mask_x5F_vmPFC.tif">
	<g>
		<g>
			<defs>
				<rect id="SVGID_1_" x="117.376" y="-9.021" width="139.422" height="166.895"/>
			</defs>
			<clipPath id="SVGID_2_">
				<use xlink:href="#SVGID_1_"  overflow="visible"/>
			</clipPath>
			<g transform="matrix(1 0 0 1 1.545784e-005 -2.191427e-006)" clip-path="url(#SVGID_2_)">
				
					<image overflow="visible" enable-background="new    " width="544" height="653" id="Background" xlink:href="33C8F9C8.jpg"  transform="matrix(0.2559 0 0 0.2559 117.489 -9.1152)">
				</image>
			</g>
		</g>
	</g>
	<g>
		<g>
			<defs>
				<rect id="SVGID_3_" x="117.376" y="-9.021" width="139.422" height="166.895"/>
			</defs>
			<clipPath id="SVGID_4_">
				<use xlink:href="#SVGID_3_"  overflow="visible"/>
			</clipPath>
			<g transform="matrix(1 0 0 1 1.545784e-005 -2.191427e-006)" clip-path="url(#SVGID_4_)">
				
					<image overflow="visible" enable-background="new    " width="544" height="653" id="Layer_1_1_" xlink:href="33C8F9C8.png"  transform="matrix(0.2559 0 0 0.2559 117.489 -9.1167)">
				</image>
			</g>
		</g>
	</g>
	<g>
		<g>
			<defs>
				<rect id="SVGID_5_" x="117.376" y="-9.021" width="139.422" height="166.895"/>
			</defs>
			<clipPath id="SVGID_6_">
				<use xlink:href="#SVGID_5_"  overflow="visible"/>
			</clipPath>
			<g transform="matrix(1 0 0 1 1.981384e-005 -1.875305e-006)" clip-path="url(#SVGID_6_)">
				
					<image overflow="visible" enable-background="new    " width="393" height="486" id="Layer_2" xlink:href="33C8F9CF.png"  transform="matrix(0.2547 0 0 0.2547 140.2449 6.6279)">
				</image>
			</g>
		</g>
	</g>
</g>
<g id="figure_1">
	<g id="axes_1">
		<g id="patch_2">
			<path fill="#FFFFFF" d="M52.967,311.886h173.668V158.875H52.967V311.886z"/>
		</g>
		<g id="patch_3">
			<g>
				<g>
					<g>
						<defs>
							<rect id="SVGID_7_" x="52.967" y="158.875" width="173.668" height="153.011"/>
						</defs>
						<clipPath id="SVGID_8_">
							<use xlink:href="#SVGID_7_"  overflow="visible"/>
						</clipPath>
						<path clip-path="url(#SVGID_8_)" fill="#3274A1" d="M58.757,311.886h23.155v-50.881H58.757V311.886z"/>
					</g>
				</g>
			</g>
		</g>
		<g id="patch_4">
			<g>
				<g>
					<g>
						<defs>
							<rect id="SVGID_9_" x="52.967" y="158.875" width="173.668" height="153.011"/>
						</defs>
						<clipPath id="SVGID_10_">
							<use xlink:href="#SVGID_9_"  overflow="visible"/>
						</clipPath>
						<path clip-path="url(#SVGID_10_)" fill="#3274A1" d="M116.645,311.886h23.155v-41.682h-23.155V311.886L116.645,311.886z"/>
					</g>
				</g>
			</g>
		</g>
		<g id="patch_5">
			<g>
				<g>
					<g>
						<defs>
							<rect id="SVGID_11_" x="52.967" y="158.875" width="173.668" height="153.011"/>
						</defs>
						<clipPath id="SVGID_12_">
							<use xlink:href="#SVGID_11_"  overflow="visible"/>
						</clipPath>
						<path clip-path="url(#SVGID_12_)" fill="#3274A1" d="M174.535,311.886h23.154v-26.709h-23.154V311.886z"/>
					</g>
				</g>
			</g>
		</g>
		<g id="patch_6">
			<g>
				<g>
					<g>
						<defs>
							<rect id="SVGID_13_" x="52.967" y="158.875" width="173.668" height="153.011"/>
						</defs>
						<clipPath id="SVGID_14_">
							<use xlink:href="#SVGID_13_"  overflow="visible"/>
						</clipPath>
						<path clip-path="url(#SVGID_14_)" fill="#E1812C" d="M81.912,311.886h23.157v-79.162H81.912V311.886L81.912,311.886z"/>
					</g>
				</g>
			</g>
		</g>
		<g id="patch_7">
			<g>
				<g>
					<g>
						<defs>
							<rect id="SVGID_15_" x="52.967" y="158.875" width="173.668" height="153.011"/>
						</defs>
						<clipPath id="SVGID_16_">
							<use xlink:href="#SVGID_15_"  overflow="visible"/>
						</clipPath>
						<path clip-path="url(#SVGID_16_)" fill="#E1812C" d="M139.801,311.886h23.155v-68.595h-23.155V311.886z"/>
					</g>
				</g>
			</g>
		</g>
		<g id="patch_8">
			<g>
				<g>
					<g>
						<defs>
							<rect id="SVGID_17_" x="52.967" y="158.875" width="173.668" height="153.011"/>
						</defs>
						<clipPath id="SVGID_18_">
							<use xlink:href="#SVGID_17_"  overflow="visible"/>
						</clipPath>
						<path clip-path="url(#SVGID_18_)" fill="#E1812C" d="M197.689,311.886h23.157v-31.17h-23.157V311.886z"/>
					</g>
				</g>
			</g>
		</g>
		<g id="matplotlib.axis_1">
			<g id="xtick_1">
				<g id="line2d_1">
					<g>
						<g>
							<path id="m80b23ce12f" stroke="#000000" stroke-width="0.8" stroke-linejoin="round" d="M81.912,311.886v1.826"/>
						</g>
					</g>
				</g>
				<g id="text_1">
					<text transform="matrix(1.0284 0 0 1 80.4197 319.5015)" font-family="'ArialMT'" font-size="6">1</text>
				</g>
			</g>
			<g id="xtick_2">
				<g id="line2d_2">
					<g>
						<g>
							<path id="m80b23ce12f_1_" stroke="#000000" stroke-width="0.8" stroke-linejoin="round" d="M139.801,311.886v1.826"/>
						</g>
					</g>
				</g>
				<g id="text_2">
					<text transform="matrix(1.0284 0 0 1 138.3093 319.5015)" font-family="'ArialMT'" font-size="6">3</text>
				</g>
			</g>
			<g id="xtick_3">
				<g id="line2d_3">
					<g>
						<g>
							<path id="m80b23ce12f_2_" stroke="#000000" stroke-width="0.8" stroke-linejoin="round" d="M197.689,311.886v1.826"/>
						</g>
					</g>
				</g>
				<g id="text_3">
					<text transform="matrix(1.0284 0 0 1 196.199 319.5015)" font-family="'ArialMT'" font-size="6">6</text>
				</g>
			</g>
		</g>
		<g id="matplotlib.axis_2">
			<g id="ytick_1">
				<g id="line2d_4">
					<g>
						<g>
							<path id="m395762797d" stroke="#000000" stroke-width="0.8" stroke-linejoin="round" d="M52.967,311.886H51.09"/>
						</g>
					</g>
				</g>
				<g id="text_5">
					<text transform="matrix(1.0284 0 0 1 41.7546 313.8687)" font-family="'ArialMT'" font-size="6">0.0</text>
				</g>
			</g>
			<g id="ytick_2">
				<g id="line2d_5">
					<g>
						<g>
							<path id="m395762797d_1_" stroke="#000000" stroke-width="0.8" stroke-linejoin="round" d="M52.967,291.519H51.09"/>
						</g>
					</g>
				</g>
				<g id="text_6">
					<text transform="matrix(1.0284 0 0 1 41.7546 293.4995)" font-family="'ArialMT'" font-size="6">0.2</text>
				</g>
			</g>
			<g id="ytick_3">
				<g id="line2d_6">
					<g>
						<g>
							<path id="m395762797d_2_" stroke="#000000" stroke-width="0.8" stroke-linejoin="round" d="M52.967,271.149H51.09"/>
						</g>
					</g>
				</g>
				<g id="text_7">
					<text transform="matrix(1.0284 0 0 1 41.7546 273.1323)" font-family="'ArialMT'" font-size="6">0.4</text>
				</g>
			</g>
			<g id="ytick_4">
				<g id="line2d_7">
					<g>
						<g>
							<path id="m395762797d_3_" stroke="#000000" stroke-width="0.8" stroke-linejoin="round" d="M52.967,250.781H51.09"/>
						</g>
					</g>
				</g>
				<g id="text_8">
					<text transform="matrix(1.0284 0 0 1 41.7546 252.7651)" font-family="'ArialMT'" font-size="6">0.6</text>
				</g>
			</g>
			<g id="ytick_5">
				<g id="line2d_8">
					<g>
						<g>
							<path id="m395762797d_4_" stroke="#000000" stroke-width="0.8" stroke-linejoin="round" d="M52.967,230.414H51.09"/>
						</g>
					</g>
				</g>
				<g id="text_9">
					<text transform="matrix(1.0284 0 0 1 41.7546 232.397)" font-family="'ArialMT'" font-size="6">0.8</text>
				</g>
			</g>
			<g id="ytick_6">
				<g id="line2d_9">
					<g>
						<g>
							<path id="m395762797d_5_" stroke="#000000" stroke-width="0.8" stroke-linejoin="round" d="M52.967,210.045H51.09"/>
						</g>
					</g>
				</g>
				<g id="text_10">
					<text transform="matrix(1.0284 0 0 1 41.7546 212.0298)" font-family="'ArialMT'" font-size="6">1.0</text>
				</g>
			</g>
			<g id="ytick_7">
				<g id="line2d_10">
					<g>
						<g>
							<path id="m395762797d_6_" stroke="#000000" stroke-width="0.8" stroke-linejoin="round" d="M52.967,189.678H51.09"/>
						</g>
					</g>
				</g>
				<g id="text_11">
					<text transform="matrix(1.0284 0 0 1 41.7546 191.6606)" font-family="'ArialMT'" font-size="6">1.2</text>
				</g>
			</g>
			<g id="ytick_8">
				<g id="line2d_11">
					<g>
						<g>
							<path id="m395762797d_7_" stroke="#000000" stroke-width="0.8" stroke-linejoin="round" d="M52.967,169.31H51.09"/>
						</g>
					</g>
				</g>
				<g id="text_12">
					<text transform="matrix(1.0284 0 0 1 41.7546 171.2935)" font-family="'ArialMT'" font-size="6">1.4</text>
				</g>
			</g>
		</g>
		<g id="line2d_12">
			<g>
				<g>
					<g>
						<defs>
							<rect id="SVGID_19_" x="52.967" y="158.875" width="173.668" height="153.011"/>
						</defs>
						<clipPath id="SVGID_20_">
							<use xlink:href="#SVGID_19_"  overflow="visible"/>
						</clipPath>
						<path clip-path="url(#SVGID_20_)" fill="none" stroke="#424242" stroke-linecap="square" stroke-linejoin="round" d="
							M70.334,281.163v-37.378"/>
					</g>
				</g>
			</g>
		</g>
		<g id="line2d_13">
			<g>
				<g>
					<g>
						<defs>
							<rect id="SVGID_21_" x="52.967" y="158.875" width="173.668" height="153.011"/>
						</defs>
						<clipPath id="SVGID_22_">
							<use xlink:href="#SVGID_21_"  overflow="visible"/>
						</clipPath>
						<path clip-path="url(#SVGID_22_)" fill="none" stroke="#424242" stroke-linecap="square" stroke-linejoin="round" d="
							M128.223,283.577v-26.976"/>
					</g>
				</g>
			</g>
		</g>
		<g id="line2d_14">
			<g>
				<g>
					<g>
						<defs>
							<rect id="SVGID_23_" x="52.967" y="158.875" width="173.668" height="153.011"/>
						</defs>
						<clipPath id="SVGID_24_">
							<use xlink:href="#SVGID_23_"  overflow="visible"/>
						</clipPath>
						<path clip-path="url(#SVGID_24_)" fill="none" stroke="#424242" stroke-linecap="square" stroke-linejoin="round" d="
							M186.113,297.995v-29.873"/>
					</g>
				</g>
			</g>
		</g>
		<g id="line2d_15">
			<g>
				<g>
					<g>
						<defs>
							<rect id="SVGID_25_" x="52.967" y="158.875" width="173.668" height="153.011"/>
						</defs>
						<clipPath id="SVGID_26_">
							<use xlink:href="#SVGID_25_"  overflow="visible"/>
						</clipPath>
						<path clip-path="url(#SVGID_26_)" fill="none" stroke="#424242" stroke-linecap="square" stroke-linejoin="round" d="
							M93.488,263.908v-63.161"/>
					</g>
				</g>
			</g>
		</g>
		<g id="line2d_16">
			<g>
				<g>
					<g>
						<defs>
							<rect id="SVGID_27_" x="52.967" y="158.875" width="173.668" height="153.011"/>
						</defs>
						<clipPath id="SVGID_28_">
							<use xlink:href="#SVGID_27_"  overflow="visible"/>
						</clipPath>
						<path clip-path="url(#SVGID_28_)" fill="none" stroke="#424242" stroke-linecap="square" stroke-linejoin="round" d="
							M151.379,263.117v-39.524"/>
					</g>
				</g>
			</g>
		</g>
		<g id="line2d_17">
			<g>
				<g>
					<g>
						<defs>
							<rect id="SVGID_29_" x="52.967" y="158.875" width="173.668" height="153.011"/>
						</defs>
						<clipPath id="SVGID_30_">
							<use xlink:href="#SVGID_29_"  overflow="visible"/>
						</clipPath>
						<path clip-path="url(#SVGID_30_)" fill="none" stroke="#424242" stroke-linecap="square" stroke-linejoin="round" d="
							M209.268,290.524v-20.129"/>
					</g>
				</g>
			</g>
		</g>
		<g id="patch_9">
			<path fill="none" stroke="#000000" stroke-width="0.8" stroke-linecap="square" d="M52.967,311.886V158.875"/>
		</g>
		<g id="patch_10">
			<path fill="none" stroke="#000000" stroke-width="0.8" stroke-linecap="square" d="M52.967,311.886h173.668"/>
		</g>
	</g>
	<g id="axes_2">
		<g id="patch_11">
			<path fill="#FFFFFF" d="M51.429,503.165h173.667V350.153H51.429V503.165z"/>
		</g>
		<g id="patch_12">
			<g>
				<g>
					<g>
						<defs>
							<rect id="SVGID_31_" x="51.429" y="351.874" width="173.667" height="153.011"/>
						</defs>
						<clipPath id="SVGID_32_">
							<use xlink:href="#SVGID_31_"  overflow="visible"/>
						</clipPath>
						<path clip-path="url(#SVGID_32_)" fill="#3274A1" d="M57.219,504.885h23.155v-34.938H57.219V504.885z"/>
					</g>
				</g>
			</g>
		</g>
		<g id="patch_13">
			<g>
				<g>
					<g>
						<defs>
							<rect id="SVGID_33_" x="51.429" y="351.874" width="173.667" height="153.011"/>
						</defs>
						<clipPath id="SVGID_34_">
							<use xlink:href="#SVGID_33_"  overflow="visible"/>
						</clipPath>
						<path clip-path="url(#SVGID_34_)" fill="#3274A1" d="M115.108,504.885h23.154v-43.884h-23.154V504.885z"/>
					</g>
				</g>
			</g>
		</g>
		<g id="patch_14">
			<g>
				<g>
					<g>
						<defs>
							<rect id="SVGID_35_" x="51.429" y="351.874" width="173.667" height="153.011"/>
						</defs>
						<clipPath id="SVGID_36_">
							<use xlink:href="#SVGID_35_"  overflow="visible"/>
						</clipPath>
						<path clip-path="url(#SVGID_36_)" fill="#3274A1" d="M172.997,504.885h23.157v-42.233h-23.157V504.885L172.997,504.885z"/>
					</g>
				</g>
			</g>
		</g>
		<g id="patch_15">
			<g>
				<g>
					<g>
						<defs>
							<rect id="SVGID_37_" x="51.429" y="351.874" width="173.667" height="153.011"/>
						</defs>
						<clipPath id="SVGID_38_">
							<use xlink:href="#SVGID_37_"  overflow="visible"/>
						</clipPath>
						<path clip-path="url(#SVGID_38_)" fill="#E1812C" d="M80.376,504.885h23.155v-95.097H80.376V504.885z"/>
					</g>
				</g>
			</g>
		</g>
		<g id="patch_16">
			<g>
				<g>
					<g>
						<defs>
							<rect id="SVGID_39_" x="51.429" y="351.874" width="173.667" height="153.011"/>
						</defs>
						<clipPath id="SVGID_40_">
							<use xlink:href="#SVGID_39_"  overflow="visible"/>
						</clipPath>
						<path clip-path="url(#SVGID_40_)" fill="#E1812C" d="M138.262,504.885h23.156v-49.468h-23.155L138.262,504.885
							L138.262,504.885z"/>
					</g>
				</g>
			</g>
		</g>
		<g id="patch_17">
			<g>
				<g>
					<g>
						<defs>
							<rect id="SVGID_41_" x="51.429" y="351.874" width="173.667" height="153.011"/>
						</defs>
						<clipPath id="SVGID_42_">
							<use xlink:href="#SVGID_41_"  overflow="visible"/>
						</clipPath>
						<path clip-path="url(#SVGID_42_)" fill="#E1812C" d="M196.154,504.885h23.154V489.8h-23.154V504.885z"/>
					</g>
				</g>
			</g>
		</g>
		<g id="matplotlib.axis_3">
			<g id="xtick_4">
				<g id="line2d_18">
					<g>
						<g>
							<path id="m80b23ce12f_3_" stroke="#000000" stroke-width="0.8" stroke-linejoin="round" d="M80.376,504.885v1.826"/>
						</g>
					</g>
				</g>
				<g id="text_15">
					<text transform="matrix(1.0284 0 0 1 78.8816 512.5015)" font-family="'ArialMT'" font-size="6">1</text>
				</g>
			</g>
			<g id="xtick_5">
				<g id="line2d_19">
					<g>
						<g>
							<path id="m80b23ce12f_4_" stroke="#000000" stroke-width="0.8" stroke-linejoin="round" d="M138.262,504.885v1.826"/>
						</g>
					</g>
				</g>
				<g id="text_16">
					<text transform="matrix(1.0284 0 0 1 136.7722 512.5015)" font-family="'ArialMT'" font-size="6">3</text>
				</g>
			</g>
			<g id="xtick_6">
				<g id="line2d_20">
					<g>
						<g>
							<path id="m80b23ce12f_5_" stroke="#000000" stroke-width="0.8" stroke-linejoin="round" d="M196.154,504.885v1.826"/>
						</g>
					</g>
				</g>
				<g id="text_17">
					<text transform="matrix(1.0284 0 0 1 194.6609 512.5015)" font-family="'ArialMT'" font-size="6">6</text>
				</g>
			</g>
		</g>
		<g id="matplotlib.axis_4">
			<g id="ytick_9">
				<g id="line2d_21">
					<g>
						<g>
							<path id="m395762797d_8_" stroke="#000000" stroke-width="0.8" stroke-linejoin="round" d="M51.429,504.885h-1.877"/>
						</g>
					</g>
				</g>
			</g>
			<g id="ytick_10">
				<g id="line2d_22">
					<g>
						<g>
							<path id="m395762797d_9_" stroke="#000000" stroke-width="0.8" stroke-linejoin="round" d="M51.429,484.519h-1.877"/>
						</g>
					</g>
				</g>
			</g>
			<g id="ytick_11">
				<g id="line2d_23">
					<g>
						<g>
							<path id="m395762797d_10_" stroke="#000000" stroke-width="0.8" stroke-linejoin="round" d="M51.429,464.149h-1.877"/>
						</g>
					</g>
				</g>
			</g>
			<g id="ytick_12">
				<g id="line2d_24">
					<g>
						<g>
							<path id="m395762797d_11_" stroke="#000000" stroke-width="0.8" stroke-linejoin="round" d="M51.429,443.781h-1.877"/>
						</g>
					</g>
				</g>
			</g>
			<g id="ytick_13">
				<g id="line2d_25">
					<g>
						<g>
							<path id="m395762797d_12_" stroke="#000000" stroke-width="0.8" stroke-linejoin="round" d="M51.429,423.413h-1.877"/>
						</g>
					</g>
				</g>
			</g>
			<g id="ytick_14">
				<g id="line2d_26">
					<g>
						<g>
							<path id="m395762797d_13_" stroke="#000000" stroke-width="0.8" stroke-linejoin="round" d="M51.429,403.046h-1.877"/>
						</g>
					</g>
				</g>
			</g>
			<g id="ytick_15">
				<g id="line2d_27">
					<g>
						<g>
							<path id="m395762797d_14_" stroke="#000000" stroke-width="0.8" stroke-linejoin="round" d="M51.429,382.679h-1.877"/>
						</g>
					</g>
				</g>
			</g>
			<g id="ytick_16">
				<g id="line2d_28">
					<g>
						<g>
							<path id="m395762797d_15_" stroke="#000000" stroke-width="0.8" stroke-linejoin="round" d="M51.429,362.31h-1.877"/>
						</g>
					</g>
				</g>
			</g>
		</g>
		<g id="line2d_29">
			<g>
				<g>
					<g>
						<defs>
							<rect id="SVGID_43_" x="51.429" y="351.874" width="173.667" height="153.011"/>
						</defs>
						<clipPath id="SVGID_44_">
							<use xlink:href="#SVGID_43_"  overflow="visible"/>
						</clipPath>
						<path clip-path="url(#SVGID_44_)" fill="none" stroke="#424242" stroke-linecap="square" stroke-linejoin="round" d="
							M68.796,504.276v-67.957"/>
					</g>
				</g>
			</g>
		</g>
		<g id="line2d_30">
			<g>
				<g>
					<g>
						<defs>
							<rect id="SVGID_45_" x="51.429" y="351.874" width="173.667" height="153.011"/>
						</defs>
						<clipPath id="SVGID_46_">
							<use xlink:href="#SVGID_45_"  overflow="visible"/>
						</clipPath>
						<path clip-path="url(#SVGID_46_)" fill="none" stroke="#424242" stroke-linecap="square" stroke-linejoin="round" d="
							M126.685,482.521v-41.253"/>
					</g>
				</g>
			</g>
		</g>
		<g id="line2d_31">
			<g>
				<g>
					<g>
						<defs>
							<rect id="SVGID_47_" x="51.429" y="351.874" width="173.667" height="153.011"/>
						</defs>
						<clipPath id="SVGID_48_">
							<use xlink:href="#SVGID_47_"  overflow="visible"/>
						</clipPath>
						<path clip-path="url(#SVGID_48_)" fill="none" stroke="#424242" stroke-linecap="square" stroke-linejoin="round" d="
							M184.577,486.509v-44.271"/>
					</g>
				</g>
			</g>
		</g>
		<g id="line2d_32">
			<g>
				<g>
					<g>
						<defs>
							<rect id="SVGID_49_" x="51.429" y="351.874" width="173.667" height="153.011"/>
						</defs>
						<clipPath id="SVGID_50_">
							<use xlink:href="#SVGID_49_"  overflow="visible"/>
						</clipPath>
						<path clip-path="url(#SVGID_50_)" fill="none" stroke="#424242" stroke-linecap="square" stroke-linejoin="round" d="
							M91.954,454.056v-94.895"/>
					</g>
				</g>
			</g>
		</g>
		<g id="line2d_33">
			<g>
				<g>
					<g>
						<defs>
							<rect id="SVGID_51_" x="51.429" y="351.874" width="173.667" height="153.011"/>
						</defs>
						<clipPath id="SVGID_52_">
							<use xlink:href="#SVGID_51_"  overflow="visible"/>
						</clipPath>
						<path clip-path="url(#SVGID_52_)" fill="none" stroke="#424242" stroke-linecap="square" stroke-linejoin="round" d="
							M149.843,473.337v-38.938"/>
					</g>
				</g>
			</g>
		</g>
		<g id="line2d_34">
			<g>
				<g>
					<g>
						<defs>
							<rect id="SVGID_53_" x="51.429" y="351.874" width="173.667" height="153.011"/>
						</defs>
						<clipPath id="SVGID_54_">
							<use xlink:href="#SVGID_53_"  overflow="visible"/>
						</clipPath>
						<path clip-path="url(#SVGID_54_)" fill="none" stroke="#424242" stroke-linecap="square" stroke-linejoin="round" d="
							M207.731,501.014v-27.979"/>
					</g>
				</g>
			</g>
		</g>
		<g id="patch_18">
			<path fill="none" stroke="#000000" stroke-width="0.8" stroke-linecap="square" d="M51.429,504.885V351.874"/>
		</g>
		<g id="patch_19">
			<path fill="none" stroke="#000000" stroke-width="0.8" stroke-linecap="square" d="M51.429,504.885h173.667"/>
		</g>
	</g>
</g>
<text transform="matrix(4.489659e-011 -1 1 4.489659e-011 24.2742 288.271)" font-family="'ArialMT'" font-size="8">Contrast of Parameter Estimates</text>
<text transform="matrix(4.489659e-011 -1 1 4.489659e-011 33.8738 273.1479)" font-family="'ArialMT'" font-size="8">VS-vmPFC Connectivity</text>
<text transform="matrix(1 0 0 1 101.1423 161.0552)" font-family="'ArialMT'" font-size="8">HeadCoil = 64-channel</text>
<text transform="matrix(1 0 0 1 96.3352 353.3374)" font-family="'ArialMT'" font-size="8">HeadCoil = 20-channel</text>
<g id="text_1_3_">
	<text transform="matrix(1 0 0 1 0.9998 12.9995)" font-family="'Arial-BoldMT'" font-size="12">A</text>
	<text transform="matrix(1 0 0 1 0.9998 166.1841)" font-family="'Arial-BoldMT'" font-size="12">B</text>
	<text transform="matrix(1 0 0 1 0.9998 570.7085)" font-family="'Arial-BoldMT'" font-size="12">C</text>
</g>
<g id="figure_1_1_">
	<g id="axes_1_1_">
		<g id="patch_2_1_">
			<path fill="#FFFFFF" d="M50.233,721.34h172.261V563.915H50.233V721.34z"/>
		</g>
		<g id="patch_3_1_">
			<g>
				<g>
					<g>
						<defs>
							<rect id="SVGID_55_" x="50.233" y="563.915" width="172.261" height="157.426"/>
						</defs>
						<clipPath id="SVGID_56_">
							<use xlink:href="#SVGID_55_"  overflow="visible"/>
						</clipPath>
						<path clip-path="url(#SVGID_56_)" fill="#3274A1" d="M55.975,611.334h22.968v22.129H55.975V611.334z"/>
					</g>
				</g>
			</g>
		</g>
		<g id="patch_4_1_">
			<g>
				<g>
					<g>
						<defs>
							<rect id="SVGID_57_" x="50.233" y="563.915" width="172.261" height="157.426"/>
						</defs>
						<clipPath id="SVGID_58_">
							<use xlink:href="#SVGID_57_"  overflow="visible"/>
						</clipPath>
						<path clip-path="url(#SVGID_58_)" fill="#3274A1" d="M113.396,611.334h22.97v8.646h-22.97V611.334L113.396,611.334z"/>
					</g>
				</g>
			</g>
		</g>
		<g id="patch_5_1_">
			<g>
				<g>
					<g>
						<defs>
							<rect id="SVGID_59_" x="50.233" y="563.915" width="172.261" height="157.426"/>
						</defs>
						<clipPath id="SVGID_60_">
							<use xlink:href="#SVGID_59_"  overflow="visible"/>
						</clipPath>
						<path clip-path="url(#SVGID_60_)" fill="#3274A1" d="M170.816,611.334h22.969v-7.771h-22.969V611.334z"/>
					</g>
				</g>
			</g>
		</g>
		<g id="patch_6_1_">
			<g>
				<g>
					<g>
						<defs>
							<rect id="SVGID_61_" x="50.233" y="563.915" width="172.261" height="157.426"/>
						</defs>
						<clipPath id="SVGID_62_">
							<use xlink:href="#SVGID_61_"  overflow="visible"/>
						</clipPath>
						<path clip-path="url(#SVGID_62_)" fill="#E1812C" d="M78.943,611.334h22.969v17.701H78.943V611.334z"/>
					</g>
				</g>
			</g>
		</g>
		<g id="patch_7_1_">
			<g>
				<g>
					<g>
						<defs>
							<rect id="SVGID_63_" x="50.233" y="563.915" width="172.261" height="157.426"/>
						</defs>
						<clipPath id="SVGID_64_">
							<use xlink:href="#SVGID_63_"  overflow="visible"/>
						</clipPath>
						<path clip-path="url(#SVGID_64_)" fill="#E1812C" d="M136.363,611.334h22.97v1.482h-22.97V611.334z"/>
					</g>
				</g>
			</g>
		</g>
		<g id="patch_8_1_">
			<g>
				<g>
					<g>
						<defs>
							<rect id="SVGID_65_" x="50.233" y="563.915" width="172.261" height="157.426"/>
						</defs>
						<clipPath id="SVGID_66_">
							<use xlink:href="#SVGID_65_"  overflow="visible"/>
						</clipPath>
						<path clip-path="url(#SVGID_66_)" fill="#E1812C" d="M193.785,611.334h22.969v-9.693h-22.969V611.334z"/>
					</g>
				</g>
			</g>
		</g>
		<g id="matplotlib.axis_1_1_">
			<g id="xtick_1_1_">
				<g id="line2d_1_1_">
					<g>
						<g>
							<path id="m991be8bab6" stroke="#000000" stroke-width="0.8" stroke-linejoin="round" d="M78.943,721.34v1.879"/>
						</g>
					</g>
				</g>
				<g id="text_1_1_">
					<text transform="matrix(1 0 0 1 77.4519 729.1772)" font-family="'ArialMT'" font-size="5.367">1</text>
				</g>
			</g>
			<g id="xtick_2_1_">
				<g id="line2d_2_1_">
					<g>
						<g>
							<path id="m991be8bab6_1_" stroke="#000000" stroke-width="0.8" stroke-linejoin="round" d="M136.363,721.34v1.879"/>
						</g>
					</g>
				</g>
				<g id="text_2_1_">
					<text transform="matrix(1 0 0 1 134.8728 729.1772)" font-family="'ArialMT'" font-size="5.367">3</text>
				</g>
			</g>
			<g id="xtick_3_1_">
				<g id="line2d_3_1_">
					<g>
						<g>
							<path id="m991be8bab6_2_" stroke="#000000" stroke-width="0.8" stroke-linejoin="round" d="M193.785,721.34v1.879"/>
						</g>
					</g>
				</g>
				<g id="text_3_1_">
					<text transform="matrix(1 0 0 1 192.2927 729.1772)" font-family="'ArialMT'" font-size="5.367">6</text>
				</g>
			</g>
		</g>
		<g id="matplotlib.axis_2_1_">
			<g id="ytick_1_1_">
				<g id="line2d_4_1_">
					<g>
						<g>
							<path id="mf6fe307bf7" stroke="#000000" stroke-width="0.8" stroke-linejoin="round" d="M50.233,712.569h-1.878"/>
						</g>
					</g>
				</g>
				<g id="text_5_1_">
					<text transform="matrix(1 0 0 1 37.3738 714.6089)" font-family="'ArialMT'" font-size="5.367">−15</text>
				</g>
			</g>
			<g id="ytick_2_1_">
				<g id="line2d_5_1_">
					<g>
						<g>
							<path id="mf6fe307bf7_1_" stroke="#000000" stroke-width="0.8" stroke-linejoin="round" d="M50.233,678.825h-1.878"/>
						</g>
					</g>
				</g>
				<g id="text_6_1_">
					<text transform="matrix(1 0 0 1 37.3738 680.8647)" font-family="'ArialMT'" font-size="5.367">−10</text>
				</g>
			</g>
			<g id="ytick_3_1_">
				<g id="line2d_6_1_">
					<g>
						<g>
							<path id="mf6fe307bf7_2_" stroke="#000000" stroke-width="0.8" stroke-linejoin="round" d="M50.233,645.079h-1.878"/>
						</g>
					</g>
				</g>
				<g id="text_7_1_">
					<text transform="matrix(1 0 0 1 40.3586 647.1187)" font-family="'ArialMT'" font-size="5.367">−5</text>
				</g>
			</g>
			<g id="ytick_4_1_">
				<g id="line2d_7_1_">
					<g>
						<g>
							<path id="mf6fe307bf7_3_" stroke="#000000" stroke-width="0.8" stroke-linejoin="round" d="M50.233,611.334h-1.878"/>
						</g>
					</g>
				</g>
				<g id="text_8_1_">
					<text transform="matrix(1 0 0 1 43.4934 613.3745)" font-family="'ArialMT'" font-size="5.367">0</text>
				</g>
			</g>
			<g id="ytick_5_1_">
				<g id="line2d_8_1_">
					<g>
						<g>
							<path id="mf6fe307bf7_4_" stroke="#000000" stroke-width="0.8" stroke-linejoin="round" d="M50.233,577.59h-1.878"/>
						</g>
					</g>
				</g>
				<g id="text_9_1_">
					<text transform="matrix(1 0 0 1 43.4934 579.6304)" font-family="'ArialMT'" font-size="5.367">5</text>
				</g>
			</g>
		</g>
		<g id="line2d_9_1_">
			<g>
				<g>
					<g>
						<defs>
							<rect id="SVGID_67_" x="50.233" y="563.915" width="172.261" height="157.426"/>
						</defs>
						<clipPath id="SVGID_68_">
							<use xlink:href="#SVGID_67_"  overflow="visible"/>
						</clipPath>
						<path clip-path="url(#SVGID_68_)" fill="none" stroke="#424242" stroke-linecap="square" stroke-linejoin="round" d="
							M67.46,646.938v-27.285"/>
					</g>
				</g>
			</g>
		</g>
		<g id="line2d_10_1_">
			<g>
				<g>
					<g>
						<defs>
							<rect id="SVGID_69_" x="50.233" y="563.915" width="172.261" height="157.426"/>
						</defs>
						<clipPath id="SVGID_70_">
							<use xlink:href="#SVGID_69_"  overflow="visible"/>
						</clipPath>
						<path clip-path="url(#SVGID_70_)" fill="none" stroke="#424242" stroke-linecap="square" stroke-linejoin="round" d="
							M124.881,629.319v-18.951"/>
					</g>
				</g>
			</g>
		</g>
		<g id="line2d_11_1_">
			<g>
				<g>
					<g>
						<defs>
							<rect id="SVGID_71_" x="50.233" y="563.915" width="172.261" height="157.426"/>
						</defs>
						<clipPath id="SVGID_72_">
							<use xlink:href="#SVGID_71_"  overflow="visible"/>
						</clipPath>
						<path clip-path="url(#SVGID_72_)" fill="none" stroke="#424242" stroke-linecap="square" stroke-linejoin="round" d="
							M182.301,612.59v-17.486"/>
					</g>
				</g>
			</g>
		</g>
		<g id="line2d_12_1_">
			<g>
				<g>
					<g>
						<defs>
							<rect id="SVGID_73_" x="50.233" y="563.915" width="172.261" height="157.426"/>
						</defs>
						<clipPath id="SVGID_74_">
							<use xlink:href="#SVGID_73_"  overflow="visible"/>
						</clipPath>
						<path clip-path="url(#SVGID_74_)" fill="none" stroke="#424242" stroke-linecap="square" stroke-linejoin="round" d="
							M90.427,653.692v-50.791"/>
					</g>
				</g>
			</g>
		</g>
		<g id="line2d_13_1_">
			<g>
				<g>
					<g>
						<defs>
							<rect id="SVGID_75_" x="50.233" y="563.915" width="172.261" height="157.426"/>
						</defs>
						<clipPath id="SVGID_76_">
							<use xlink:href="#SVGID_75_"  overflow="visible"/>
						</clipPath>
						<path clip-path="url(#SVGID_76_)" fill="none" stroke="#424242" stroke-linecap="square" stroke-linejoin="round" d="
							M147.848,624.786v-25.217"/>
					</g>
				</g>
			</g>
		</g>
		<g id="line2d_14_1_">
			<g>
				<g>
					<g>
						<defs>
							<rect id="SVGID_77_" x="50.233" y="563.915" width="172.261" height="157.426"/>
						</defs>
						<clipPath id="SVGID_78_">
							<use xlink:href="#SVGID_77_"  overflow="visible"/>
						</clipPath>
						<path clip-path="url(#SVGID_78_)" fill="none" stroke="#424242" stroke-linecap="square" stroke-linejoin="round" d="
							M205.268,609.629v-16.246"/>
					</g>
				</g>
			</g>
		</g>
		<g id="patch_9_1_">
			<path fill="none" stroke="#000000" stroke-width="0.8" stroke-linecap="square" d="M50.233,721.34V563.915"/>
		</g>
		<g id="patch_10_1_">
			<path fill="none" stroke="#000000" stroke-width="0.8" stroke-linecap="square" d="M50.233,721.34h172.261"/>
		</g>
	</g>
	<g id="axes_2_1_">
		<g id="patch_11_1_">
			<path fill="#FFFFFF" d="M49.582,912.84h172.261V755.415H49.582V912.84z"/>
		</g>
		<g id="patch_12_1_">
			<g>
				<g>
					<g>
						<defs>
							<rect id="SVGID_79_" x="49.582" y="755.415" width="172.261" height="157.426"/>
						</defs>
						<clipPath id="SVGID_80_">
							<use xlink:href="#SVGID_79_"  overflow="visible"/>
						</clipPath>
						<path clip-path="url(#SVGID_80_)" fill="#3274A1" d="M55.323,802.834h22.969v-5.064H55.323V802.834z"/>
					</g>
				</g>
			</g>
		</g>
		<g id="patch_13_1_">
			<g>
				<g>
					<g>
						<defs>
							<rect id="SVGID_81_" x="49.582" y="755.415" width="172.261" height="157.426"/>
						</defs>
						<clipPath id="SVGID_82_">
							<use xlink:href="#SVGID_81_"  overflow="visible"/>
						</clipPath>
						<path clip-path="url(#SVGID_82_)" fill="#3274A1" d="M112.745,802.834h22.968v-2.709h-22.968V802.834z"/>
					</g>
				</g>
			</g>
		</g>
		<g id="patch_14_1_">
			<g>
				<g>
					<g>
						<defs>
							<rect id="SVGID_83_" x="49.582" y="755.415" width="172.261" height="157.426"/>
						</defs>
						<clipPath id="SVGID_84_">
							<use xlink:href="#SVGID_83_"  overflow="visible"/>
						</clipPath>
						<path clip-path="url(#SVGID_84_)" fill="#3274A1" d="M170.165,802.834h22.968v3.879h-22.968V802.834z"/>
					</g>
				</g>
			</g>
		</g>
		<g id="patch_15_1_">
			<g>
				<g>
					<g>
						<defs>
							<rect id="SVGID_85_" x="49.582" y="755.415" width="172.261" height="157.426"/>
						</defs>
						<clipPath id="SVGID_86_">
							<use xlink:href="#SVGID_85_"  overflow="visible"/>
						</clipPath>
						<path clip-path="url(#SVGID_86_)" fill="#E1812C" d="M78.292,802.834h22.969v43.254H78.292V802.834z"/>
					</g>
				</g>
			</g>
		</g>
		<g id="patch_16_1_">
			<g>
				<g>
					<g>
						<defs>
							<rect id="SVGID_87_" x="49.582" y="755.415" width="172.261" height="157.426"/>
						</defs>
						<clipPath id="SVGID_88_">
							<use xlink:href="#SVGID_87_"  overflow="visible"/>
						</clipPath>
						<path clip-path="url(#SVGID_88_)" fill="#E1812C" d="M135.711,802.834h22.969v-1.859h-22.969V802.834z"/>
					</g>
				</g>
			</g>
		</g>
		<g id="patch_17_1_">
			<g>
				<g>
					<g>
						<defs>
							<rect id="SVGID_89_" x="49.582" y="755.415" width="172.261" height="157.426"/>
						</defs>
						<clipPath id="SVGID_90_">
							<use xlink:href="#SVGID_89_"  overflow="visible"/>
						</clipPath>
						<path clip-path="url(#SVGID_90_)" fill="#E1812C" d="M193.131,802.834h22.968v-6.543h-22.968V802.834z"/>
					</g>
				</g>
			</g>
		</g>
		<g id="matplotlib.axis_3_1_">
			<g id="xtick_4_1_">
				<g id="line2d_15_1_">
					<g>
						<g>
							<path id="m991be8bab6_3_" stroke="#000000" stroke-width="0.8" stroke-linejoin="round" d="M78.292,912.84v1.879"/>
						</g>
					</g>
				</g>
				<g id="text_12_1_">
					<text transform="matrix(1 0 0 1 76.8 920.6772)" font-family="'ArialMT'" font-size="5.367">1</text>
				</g>
			</g>
			<g id="xtick_5_1_">
				<g id="line2d_16_1_">
					<g>
						<g>
							<path id="m991be8bab6_4_" stroke="#000000" stroke-width="0.8" stroke-linejoin="round" d="M135.711,912.84v1.879"/>
						</g>
					</g>
				</g>
				<g id="text_13_1_">
					<text transform="matrix(1 0 0 1 134.2205 920.6772)" font-family="'ArialMT'" font-size="5.367">3</text>
				</g>
			</g>
			<g id="xtick_6_1_">
				<g id="line2d_17_1_">
					<g>
						<g>
							<path id="m991be8bab6_5_" stroke="#000000" stroke-width="0.8" stroke-linejoin="round" d="M193.131,912.84v1.879"/>
						</g>
					</g>
				</g>
				<g id="text_14">
					<text transform="matrix(1 0 0 1 191.6404 920.6772)" font-family="'ArialMT'" font-size="5.367">6</text>
				</g>
			</g>
		</g>
		<g id="matplotlib.axis_4_1_">
			<g id="ytick_6_1_">
				<g id="line2d_18_1_">
					<g>
						<g>
							<path id="mf6fe307bf7_5_" stroke="#000000" stroke-width="0.8" stroke-linejoin="round" d="M49.582,904.069h-1.878"/>
						</g>
					</g>
				</g>
			</g>
			<g id="ytick_7_1_">
				<g id="line2d_19_1_">
					<g>
						<g>
							<path id="mf6fe307bf7_6_" stroke="#000000" stroke-width="0.8" stroke-linejoin="round" d="M49.582,870.325h-1.878"/>
						</g>
					</g>
				</g>
			</g>
			<g id="ytick_8_1_">
				<g id="line2d_20_1_">
					<g>
						<g>
							<path id="mf6fe307bf7_7_" stroke="#000000" stroke-width="0.8" stroke-linejoin="round" d="M49.582,836.579h-1.878"/>
						</g>
					</g>
				</g>
			</g>
			<g id="ytick_9_1_">
				<g id="line2d_21_1_">
					<g>
						<g>
							<path id="mf6fe307bf7_8_" stroke="#000000" stroke-width="0.8" stroke-linejoin="round" d="M49.582,802.834h-1.878"/>
						</g>
					</g>
				</g>
			</g>
			<g id="ytick_10_1_">
				<g id="line2d_22_1_">
					<g>
						<g>
							<path id="mf6fe307bf7_9_" stroke="#000000" stroke-width="0.8" stroke-linejoin="round" d="M49.582,769.09h-1.878"/>
						</g>
					</g>
				</g>
			</g>
		</g>
		<g id="line2d_23_1_">
			<g>
				<g>
					<g>
						<defs>
							<rect id="SVGID_91_" x="49.582" y="755.415" width="172.261" height="157.426"/>
						</defs>
						<clipPath id="SVGID_92_">
							<use xlink:href="#SVGID_91_"  overflow="visible"/>
						</clipPath>
						<path clip-path="url(#SVGID_92_)" fill="none" stroke="#424242" stroke-linecap="square" stroke-linejoin="round" d="
							M66.806,837.002v-74.432"/>
					</g>
				</g>
			</g>
		</g>
		<g id="line2d_24_1_">
			<g>
				<g>
					<g>
						<defs>
							<rect id="SVGID_93_" x="49.582" y="755.415" width="172.261" height="157.426"/>
						</defs>
						<clipPath id="SVGID_94_">
							<use xlink:href="#SVGID_93_"  overflow="visible"/>
						</clipPath>
						<path clip-path="url(#SVGID_94_)" fill="none" stroke="#424242" stroke-linecap="square" stroke-linejoin="round" d="
							M124.226,821.784v-37.037"/>
					</g>
				</g>
			</g>
		</g>
		<g id="line2d_25_1_">
			<g>
				<g>
					<g>
						<defs>
							<rect id="SVGID_95_" x="49.582" y="755.415" width="172.261" height="157.426"/>
						</defs>
						<clipPath id="SVGID_96_">
							<use xlink:href="#SVGID_95_"  overflow="visible"/>
						</clipPath>
						<path clip-path="url(#SVGID_96_)" fill="none" stroke="#424242" stroke-linecap="square" stroke-linejoin="round" d="
							M181.649,823.942V786.26"/>
					</g>
				</g>
			</g>
		</g>
		<g id="line2d_26_1_">
			<g>
				<g>
					<g>
						<defs>
							<rect id="SVGID_97_" x="49.582" y="755.415" width="172.261" height="157.426"/>
						</defs>
						<clipPath id="SVGID_98_">
							<use xlink:href="#SVGID_97_"  overflow="visible"/>
						</clipPath>
						<path clip-path="url(#SVGID_98_)" fill="none" stroke="#424242" stroke-linecap="square" stroke-linejoin="round" d="
							M89.775,905.684V783.389"/>
					</g>
				</g>
			</g>
		</g>
		<g id="line2d_27_1_">
			<g>
				<g>
					<g>
						<defs>
							<rect id="SVGID_99_" x="49.582" y="755.415" width="172.261" height="157.426"/>
						</defs>
						<clipPath id="SVGID_100_">
							<use xlink:href="#SVGID_99_"  overflow="visible"/>
						</clipPath>
						<path clip-path="url(#SVGID_100_)" fill="none" stroke="#424242" stroke-linecap="square" stroke-linejoin="round" d="
							M147.196,825.12v-46.014"/>
					</g>
				</g>
			</g>
		</g>
		<g id="line2d_28_1_">
			<g>
				<g>
					<g>
						<defs>
							<rect id="SVGID_101_" x="49.582" y="755.415" width="172.261" height="157.426"/>
						</defs>
						<clipPath id="SVGID_102_">
							<use xlink:href="#SVGID_101_"  overflow="visible"/>
						</clipPath>
						<path clip-path="url(#SVGID_102_)" fill="none" stroke="#424242" stroke-linecap="square" stroke-linejoin="round" d="
							M204.616,807.264v-23.713"/>
					</g>
				</g>
			</g>
		</g>
		<g id="patch_18_1_">
			<path fill="none" stroke="#000000" stroke-width="0.8" stroke-linecap="square" d="M49.582,912.84V755.415"/>
		</g>
		<g id="patch_19_1_">
			<path fill="none" stroke="#000000" stroke-width="0.8" stroke-linecap="square" d="M49.582,912.84h172.261"/>
		</g>
	</g>
</g>
<text transform="matrix(4.489659e-011 -1 1 4.489659e-011 23.2742 720.1216)" font-family="'ArialMT'" font-size="8">Psychophysiological Interaction, VS-vmPFC</text>
<text transform="matrix(4.489659e-011 -1 1 4.489659e-011 32.8748 692.896)" font-family="'ArialMT'" font-size="8">Anticipation Reward&gt;Neutral</text>
<text transform="matrix(1 0 0 1 190.3083 178.6548)" font-family="'ArialMT'" font-size="10">Multiecho</text>
<text transform="matrix(1 0 0 1 227.6541 200.6548)" font-family="'ArialMT'" font-size="10">1</text>
<text transform="matrix(1 0 0 1 228.1541 219.1548)" font-family="'ArialMT'" font-size="10">4</text>
<text transform="matrix(1 0 0 1 71.5237 23.9946)" font-family="'ArialMT'" font-size="10">L</text>
<text transform="matrix(4.489659e-011 -1 1 4.489659e-011 24.2742 288.271)" font-family="'ArialMT'" font-size="8">Contrast of Parameter Estimates</text>
<text transform="matrix(4.489659e-011 -1 1 4.489659e-011 33.8738 273.1479)" font-family="'ArialMT'" font-size="8">VS-vmPFC Connectivity</text>
<text transform="matrix(1 0 0 1 101.1423 161.0552)" font-family="'ArialMT'" font-size="8">HeadCoil = 64-channel</text>
<text transform="matrix(1 0 0 1 96.3352 353.3374)" font-family="'ArialMT'" font-size="8">HeadCoil = 20-channel</text>
<text transform="matrix(1 0 0 1 112.2561 521.6421)" font-family="'ArialMT'" font-size="8">Multiband Factor</text>
<text transform="matrix(1 0 0 1 113.3459 328.6421)" font-family="'ArialMT'" font-size="8">Multiband Factor</text>
<text transform="matrix(1 0 0 1 112.4983 930.6479)" font-family="'ArialMT'" font-size="8">Multiband Factor</text>
<text transform="matrix(1 0 0 1 111.7439 739.1479)" font-family="'ArialMT'" font-size="8">Multiband Factor</text>
<g id="patch_21">
	<path fill="#E1812C" d="M193.298,220.021h26.944v-8.455h-26.944V220.021z"/>
</g>
<g id="patch_20">
	<path fill="#3274A1" d="M193.296,202.287h26.944v-8.461h-26.944V202.287L193.296,202.287z"/>
</g>
<g transform="matrix(1 0 0 1 7.542345e-006 1.810095e-007)">
	
		<image overflow="visible" enable-background="new    " width="400" height="388" id="Layer_1_2_" xlink:href="E3A5C720.png"  transform="matrix(0.2726 0 0 0.2726 2.6697 14.5313)">
	</image>
</g>
<text transform="matrix(1 0 0 1 5.9255 27.9995)" font-family="'ArialMT'" font-size="8">L</text>
<text transform="matrix(1 0 0 1 3.9998 132.7739)" font-family="'ArialMT'" font-size="8">y = 11</text>
<g id="text_5_2_">
	<text transform="matrix(1.0284 0 0 1 39.8748 506.8862)" font-family="'ArialMT'" font-size="6">0.0</text>
</g>
<g id="text_6_2_">
	<text transform="matrix(1.0284 0 0 1 39.8748 486.5171)" font-family="'ArialMT'" font-size="6">0.2</text>
</g>
<g id="text_7_2_">
	<text transform="matrix(1.0284 0 0 1 39.8748 466.1499)" font-family="'ArialMT'" font-size="6">0.4</text>
</g>
<g id="text_8_2_">
	<text transform="matrix(1.0284 0 0 1 39.8748 445.7827)" font-family="'ArialMT'" font-size="6">0.6</text>
</g>
<g id="text_9_2_">
	<text transform="matrix(1.0284 0 0 1 39.8748 425.4136)" font-family="'ArialMT'" font-size="6">0.8</text>
</g>
<g id="text_10_1_">
	<text transform="matrix(1.0284 0 0 1 39.8748 405.0464)" font-family="'ArialMT'" font-size="6">1.0</text>
</g>
<g id="text_11_1_">
	<text transform="matrix(1.0284 0 0 1 39.8748 384.6772)" font-family="'ArialMT'" font-size="6">1.2</text>
</g>
<g id="text_12_2_">
	<text transform="matrix(1.0284 0 0 1 39.8748 364.3101)" font-family="'ArialMT'" font-size="6">1.4</text>
</g>
<text transform="matrix(4.489659e-011 -1 1 4.489659e-011 22.2742 486.5171)" font-family="'ArialMT'" font-size="8">Contrast of Parameter Estimates</text>
<text transform="matrix(4.489659e-011 -1 1 4.489659e-011 31.8738 471.394)" font-family="'ArialMT'" font-size="8">VS-vmPFC Connectivity</text>
<g id="text_5_3_">
	<text transform="matrix(1 0 0 1 37.2991 905.853)" font-family="'ArialMT'" font-size="5.367">−15</text>
</g>
<g id="text_6_3_">
	<text transform="matrix(1 0 0 1 37.2991 872.1089)" font-family="'ArialMT'" font-size="5.367">−10</text>
</g>
<g id="text_7_3_">
	<text transform="matrix(1 0 0 1 40.2839 838.3628)" font-family="'ArialMT'" font-size="5.367">−5</text>
</g>
<g id="text_8_3_">
	<text transform="matrix(1 0 0 1 43.4187 804.6187)" font-family="'ArialMT'" font-size="5.367">0</text>
</g>
<g id="text_9_3_">
	<text transform="matrix(1 0 0 1 43.4187 770.8745)" font-family="'ArialMT'" font-size="5.367">5</text>
</g>
<text transform="matrix(4.489659e-011 -1 1 4.489659e-011 23.2742 913.8521)" font-family="'ArialMT'" font-size="8">Psychophysiological Interaction, VS-vmPFC</text>
<text transform="matrix(4.489659e-011 -1 1 4.489659e-011 32.8748 886.6255)" font-family="'ArialMT'" font-size="8">Anticipation Reward&gt;Neutral</text>
<text transform="matrix(1 0 0 1 92.3352 567.0542)" font-family="'ArialMT'" font-size="8">HeadCoil = 64-channel</text>
<text transform="matrix(1 0 0 1 87.5281 762.3374)" font-family="'ArialMT'" font-size="8">HeadCoil = 20-channel</text>
<text transform="matrix(1 0 0 1 140.1677 130.7739)" font-family="'ArialMT'" font-size="8">z = 0</text>
<g>
	<g>
		<g>
			<g>
				<g>
					<g>
						<rect x="111.721" y="65.119" fill="none" width="14.261" height="14.998"/>
					</g>
					<rect x="122.284" y="72.088" fill="#231F20" width="2.646" height="1.5"/>
					<rect x="117.536" y="72.088" fill="#231F20" width="2.646" height="1.5"/>
					<rect x="112.802" y="72.088" fill="#231F20" width="2.646" height="1.5"/>
				</g>
			</g>
			<g>
				<g>
					<g>
						<rect x="125.982" y="65.119" fill="none" width="14.265" height="14.998"/>
					</g>
					<rect x="136.545" y="72.088" fill="#231F20" width="2.646" height="1.5"/>
					<rect x="131.797" y="72.088" fill="#231F20" width="2.646" height="1.5"/>
					<rect x="127.064" y="72.088" fill="#231F20" width="2.646" height="1.5"/>
				</g>
			</g>
		</g>
	</g>
</g>
</svg>
