<?xml version="1.0" encoding="utf-8"?>
<!-- Generator: Adobe Illustrator 16.0.3, SVG Export Plug-In . SVG Version: 6.00 Build 0)  -->
<!DOCTYPE svg PUBLIC "-//W3C//DTD SVG 1.1//EN" "http://www.w3.org/Graphics/SVG/1.1/DTD/svg11.dtd">
<svg version="1.1" id="Layer_1" xmlns="http://www.w3.org/2000/svg" xmlns:xlink="http://www.w3.org/1999/xlink" x="0px" y="0px"
	 width="510.236px" height="510.236px" viewBox="126.077 -75.118 510.236 510.236"
	 enable-background="new 126.077 -75.118 510.236 510.236" xml:space="preserve">
<path fill="#F7F5EC" d="M573.141,416.162c0,10.136-6.013,18.349-13.427,18.349H191.548c-7.415,0-13.426-8.213-13.426-18.349V262.235
	c0-10.134,6.011-18.349,13.426-18.349h368.166c7.414,0,13.427,8.215,13.427,18.349V416.162z"/>
<path fill="#F7F5EC" d="M569.039,224.422c0,10.136-5.87,18.349-13.109,18.349H196.472c-7.24,0-13.109-8.213-13.109-18.349V70.495
	c0-10.134,5.869-18.349,13.109-18.349h359.457c7.239,0,13.109,8.215,13.109,18.349V224.422z"/>
<path fill="#F7F5EC" d="M551.695,37.833c0,6.471-5.373,11.716-12,11.716H210.646c-6.627,0-12-5.245-12-11.716v-98.284
	c0-6.47,5.373-11.716,12-11.716h329.049c6.627,0,12,5.246,12,11.716V37.833z"/>
<path fill="#FFFFFF" d="M597.116,227.4H188.156"/>
<path fill="#FFFFFF" d="M187.259,434.511h408.959"/>
<path id="mc794a9a6e6_11_" stroke="#000000" stroke-width="0.8" stroke-linejoin="round" d="M241.716,412.002v1.877"/>
<path id="mc794a9a6e6_10_" stroke="#000000" stroke-width="0.8" stroke-linejoin="round" d="M299.897,412.002v1.877"/>
<path id="mc794a9a6e6_9_" stroke="#000000" stroke-width="0.8" stroke-linejoin="round" d="M358.078,412.002v1.877"/>
<g id="matplotlib.axis_3_4_">
	<text transform="matrix(1 0 0 1 294.687 431.4248)" font-family="'ArialMT'" font-size="8">MB</text>
	<text transform="matrix(1 0 0 1 240.02 420.4248)" font-family="'ArialMT'" font-size="6">1</text>
	<text transform="matrix(1 0 0 1 298.2573 420.4248)" font-family="'ArialMT'" font-size="6">3</text>
	<text transform="matrix(1 0 0 1 356.395 420.4248)" font-family="'ArialMT'" font-size="6">6</text>
</g>
<text transform="matrix(1 0 0 1 200.2646 274.5439)" font-family="'ArialMT'" font-size="6">200</text>
<text transform="matrix(1 0 0 1 200.0903 325.2754)" font-family="'ArialMT'" font-size="6">100</text>
<path id="m7a7075d8d9_12_" stroke="#000000" stroke-width="0.8" stroke-linejoin="round" d="M212.626,353.183"/>
<path id="m7a7075d8d9_14_" stroke="#000000" stroke-width="0.8" stroke-linejoin="round" d="M212.626,323.772h-1.878"/>
<text transform="matrix(4.489659e-011 -1 1 4.489659e-011 186.2588 393.1416)"><tspan x="0" y="0" font-family="'ArialMT'" font-size="8">Contrast of Parameters Estimate</tspan><tspan x="31.23" y="9.6" font-family="'ArialMT'" font-size="8">Reward &gt; Loss</tspan></text>
<path id="mc794a9a6e6_8_" stroke="#000000" stroke-width="0.8" stroke-linejoin="round" d="M423.715,412.088v1.877"/>
<path id="mc794a9a6e6_7_" stroke="#000000" stroke-width="0.8" stroke-linejoin="round" d="M481.897,412.088v1.877"/>
<path id="mc794a9a6e6_6_" stroke="#000000" stroke-width="0.8" stroke-linejoin="round" d="M540.078,412.088v1.877"/>
<g id="matplotlib.axis_3_3_">
	<text transform="matrix(1 0 0 1 476.687 431.5107)" font-family="'ArialMT'" font-size="8">MB</text>
	<text transform="matrix(1 0 0 1 422.02 420.5107)" font-family="'ArialMT'" font-size="6">1</text>
	<text transform="matrix(1 0 0 1 480.2573 420.5107)" font-family="'ArialMT'" font-size="6">3</text>
	<text transform="matrix(1 0 0 1 538.395 420.5107)" font-family="'ArialMT'" font-size="6">6</text>
</g>
<g id="figure_1_1_">
	<g id="axes_1_1_">
		<g id="patch_3_1_">
			<g>
				<defs>
					<rect id="SVGID_1_" x="213.3" y="252.737" width="174.561" height="159.556"/>
				</defs>
				<clipPath id="SVGID_2_">
					<use xlink:href="#SVGID_1_"  overflow="visible"/>
				</clipPath>
				<path clip-path="url(#SVGID_2_)" fill="#3274A1" d="M219.119,376.763h23.274v-55.242h-23.274V376.763z"/>
			</g>
		</g>
		<g id="patch_4_1_">
			<g>
				<defs>
					<rect id="SVGID_3_" x="213.3" y="252.737" width="174.561" height="159.556"/>
				</defs>
				<clipPath id="SVGID_4_">
					<use xlink:href="#SVGID_3_"  overflow="visible"/>
				</clipPath>
				<path clip-path="url(#SVGID_4_)" fill="#3274A1" d="M277.306,376.763h23.274v-74.762h-23.274V376.763z"/>
			</g>
		</g>
		<g id="patch_5_1_">
			<g>
				<defs>
					<rect id="SVGID_5_" x="213.3" y="252.737" width="174.561" height="159.556"/>
				</defs>
				<clipPath id="SVGID_6_">
					<use xlink:href="#SVGID_5_"  overflow="visible"/>
				</clipPath>
				<path clip-path="url(#SVGID_6_)" fill="#3274A1" d="M335.493,376.763h23.275v-75.604h-23.275V376.763z"/>
			</g>
		</g>
		<g id="patch_6_1_">
			<g>
				<defs>
					<rect id="SVGID_7_" x="213.3" y="252.737" width="174.561" height="159.556"/>
				</defs>
				<clipPath id="SVGID_8_">
					<use xlink:href="#SVGID_7_"  overflow="visible"/>
				</clipPath>
				<path clip-path="url(#SVGID_8_)" fill="#E1812C" d="M242.394,376.763h23.275v-93.651h-23.275V376.763z"/>
			</g>
		</g>
		<g id="patch_7_1_">
			<g>
				<defs>
					<rect id="SVGID_9_" x="213.3" y="252.737" width="174.561" height="159.556"/>
				</defs>
				<clipPath id="SVGID_10_">
					<use xlink:href="#SVGID_9_"  overflow="visible"/>
				</clipPath>
				<path clip-path="url(#SVGID_10_)" fill="#E1812C" d="M300.581,376.763h23.274v-44.896h-23.274V376.763z"/>
			</g>
		</g>
		<g id="patch_8_1_">
			<g>
				<defs>
					<rect id="SVGID_11_" x="213.3" y="252.737" width="174.561" height="159.556"/>
				</defs>
				<clipPath id="SVGID_12_">
					<use xlink:href="#SVGID_11_"  overflow="visible"/>
				</clipPath>
				<path clip-path="url(#SVGID_12_)" fill="#E1812C" d="M358.768,376.763h23.274v-73.947h-23.274V376.763z"/>
			</g>
		</g>
		<g id="matplotlib.axis_2_1_">
			<g id="ytick_1_1_">
				<g id="line2d_4_1_">
					<g>
						<g>
							<path id="mf313588ff5" stroke="#000000" stroke-width="0.8" stroke-linejoin="round" d="M213.3,402.818h-1.904"/>
						</g>
					</g>
				</g>
				<g id="text_5_1_">
					<text transform="matrix(1 0 0 1 200.2646 404.8838)" font-family="'ArialMT'" font-size="6">−50</text>
				</g>
			</g>
			<g id="ytick_2_1_">
				<g id="line2d_5_1_">
					<g>
						<g>
							<path id="mf313588ff5_1_" stroke="#000000" stroke-width="0.8" stroke-linejoin="round" d="M213.3,376.763h-1.904"/>
						</g>
					</g>
				</g>
				<g id="text_6_1_">
					<text transform="matrix(1 0 0 1 206.4663 378.8301)" font-family="'ArialMT'" font-size="6">0</text>
				</g>
			</g>
			<g id="ytick_3_1_">
				<g id="line2d_6_1_">
					<g>
						<g>
							<path id="mf313588ff5_2_" stroke="#000000" stroke-width="0.8" stroke-linejoin="round" d="M213.3,350.709h-1.904"/>
						</g>
					</g>
				</g>
				<g id="text_7_1_">
					<text transform="matrix(1 0 0 1 203.4419 352.7744)" font-family="'ArialMT'" font-size="6">50</text>
				</g>
			</g>
			<g id="ytick_4_1_">
				<g id="line2d_7_1_">
					<g>
						<g>
							<path id="mf313588ff5_12_" stroke="#000000" stroke-width="0.8" stroke-linejoin="round" d="M213.3,324.653"/>
						</g>
					</g>
				</g>
			</g>
			<g id="ytick_5_1_">
				<g id="line2d_8_1_">
					<g>
						<g>
							<path id="mf313588ff5_4_" stroke="#000000" stroke-width="0.8" stroke-linejoin="round" d="M213.3,298.6h-1.904"/>
						</g>
					</g>
				</g>
				<g id="text_9_1_">
					<text transform="matrix(1 0 0 1 200.4165 300.665)" font-family="'ArialMT'" font-size="6">150</text>
				</g>
			</g>
			<g id="ytick_6_1_">
				<g id="line2d_9_1_">
					<g>
						<g>
							<path id="mf313588ff5_5_" stroke="#000000" stroke-width="0.8" stroke-linejoin="round" d="M213.3,272.544h-1.904"/>
						</g>
					</g>
				</g>
			</g>
		</g>
		<g id="line2d_10_1_">
			<g>
				<defs>
					<rect id="SVGID_13_" x="213.3" y="252.737" width="174.561" height="159.556"/>
				</defs>
				<clipPath id="SVGID_14_">
					<use xlink:href="#SVGID_13_"  overflow="visible"/>
				</clipPath>
				
					<path clip-path="url(#SVGID_14_)" fill="none" stroke="#424242" stroke-width="2.7" stroke-linecap="square" stroke-linejoin="round" d="
					M230.756,338.563v-34.237"/>
			</g>
		</g>
		<g id="line2d_11_1_">
			<g>
				<defs>
					<rect id="SVGID_15_" x="213.3" y="252.737" width="174.561" height="159.556"/>
				</defs>
				<clipPath id="SVGID_16_">
					<use xlink:href="#SVGID_15_"  overflow="visible"/>
				</clipPath>
				
					<path clip-path="url(#SVGID_16_)" fill="none" stroke="#424242" stroke-width="2.7" stroke-linecap="square" stroke-linejoin="round" d="
					M288.943,326.638v-51.046"/>
			</g>
		</g>
		<g id="line2d_12_1_">
			<g>
				<defs>
					<rect id="SVGID_17_" x="213.3" y="252.737" width="174.561" height="159.556"/>
				</defs>
				<clipPath id="SVGID_18_">
					<use xlink:href="#SVGID_17_"  overflow="visible"/>
				</clipPath>
				
					<path clip-path="url(#SVGID_18_)" fill="none" stroke="#424242" stroke-width="2.7" stroke-linecap="square" stroke-linejoin="round" d="
					M347.13,320.624v-39.865"/>
			</g>
		</g>
		<g id="line2d_13_1_">
			<g>
				<defs>
					<rect id="SVGID_19_" x="213.3" y="252.737" width="174.561" height="159.556"/>
				</defs>
				<clipPath id="SVGID_20_">
					<use xlink:href="#SVGID_19_"  overflow="visible"/>
				</clipPath>
				
					<path clip-path="url(#SVGID_20_)" fill="none" stroke="#424242" stroke-width="2.7" stroke-linecap="square" stroke-linejoin="round" d="
					M254.031,305.466V259.99"/>
			</g>
		</g>
		<g id="line2d_14_1_">
			<g>
				<defs>
					<rect id="SVGID_21_" x="213.3" y="252.737" width="174.561" height="159.556"/>
				</defs>
				<clipPath id="SVGID_22_">
					<use xlink:href="#SVGID_21_"  overflow="visible"/>
				</clipPath>
				
					<path clip-path="url(#SVGID_22_)" fill="none" stroke="#424242" stroke-width="2.7" stroke-linecap="square" stroke-linejoin="round" d="
					M312.217,348.491v-32.528"/>
			</g>
		</g>
		<g id="line2d_15_1_">
			<g>
				<defs>
					<rect id="SVGID_23_" x="213.3" y="252.737" width="174.561" height="159.556"/>
				</defs>
				<clipPath id="SVGID_24_">
					<use xlink:href="#SVGID_23_"  overflow="visible"/>
				</clipPath>
				
					<path clip-path="url(#SVGID_24_)" fill="none" stroke="#424242" stroke-width="2.7" stroke-linecap="square" stroke-linejoin="round" d="
					M370.405,314.532v-25.58"/>
			</g>
		</g>
		<g id="patch_9_1_">
			<path fill="none" stroke="#000000" stroke-width="0.8" stroke-linecap="square" d="M213.3,412.293V252.737"/>
		</g>
		<g id="patch_10_1_">
			<path fill="none" stroke="#000000" stroke-width="0.8" stroke-linecap="square" d="M213.3,412.293h174.561"/>
		</g>
	</g>
	<g id="axes_2_1_">
		<g id="patch_12_1_">
			<g>
				<defs>
					<rect id="SVGID_25_" x="395.64" y="252.737" width="174.562" height="159.556"/>
				</defs>
				<clipPath id="SVGID_26_">
					<use xlink:href="#SVGID_25_"  overflow="visible"/>
				</clipPath>
				<path clip-path="url(#SVGID_26_)" fill="#3274A1" d="M401.46,376.763h23.274v-8.483H401.46V376.763z"/>
			</g>
		</g>
		<g id="patch_13_1_">
			<g>
				<defs>
					<rect id="SVGID_27_" x="395.64" y="252.737" width="174.562" height="159.556"/>
				</defs>
				<clipPath id="SVGID_28_">
					<use xlink:href="#SVGID_27_"  overflow="visible"/>
				</clipPath>
				<path clip-path="url(#SVGID_28_)" fill="#3274A1" d="M459.647,376.763h23.272v-50.474h-23.272V376.763z"/>
			</g>
		</g>
		<g id="patch_14_1_">
			<g>
				<defs>
					<rect id="SVGID_29_" x="395.64" y="252.737" width="174.562" height="159.556"/>
				</defs>
				<clipPath id="SVGID_30_">
					<use xlink:href="#SVGID_29_"  overflow="visible"/>
				</clipPath>
				<path clip-path="url(#SVGID_30_)" fill="#3274A1" d="M517.833,376.763h23.275v-49.366h-23.275V376.763z"/>
			</g>
		</g>
		<g id="patch_15_1_">
			<g>
				<defs>
					<rect id="SVGID_31_" x="395.64" y="252.737" width="174.562" height="159.556"/>
				</defs>
				<clipPath id="SVGID_32_">
					<use xlink:href="#SVGID_31_"  overflow="visible"/>
				</clipPath>
				<path clip-path="url(#SVGID_32_)" fill="#E1812C" d="M424.735,376.763h23.275v-66.079h-23.275V376.763z"/>
			</g>
		</g>
		<g id="patch_16_1_">
			<g>
				<defs>
					<rect id="SVGID_33_" x="395.64" y="252.737" width="174.562" height="159.556"/>
				</defs>
				<clipPath id="SVGID_34_">
					<use xlink:href="#SVGID_33_"  overflow="visible"/>
				</clipPath>
				<path clip-path="url(#SVGID_34_)" fill="#E1812C" d="M482.919,376.763h23.278v-67.021h-23.278V376.763z"/>
			</g>
		</g>
		<g id="patch_17_1_">
			<g>
				<defs>
					<rect id="SVGID_35_" x="395.64" y="252.737" width="174.562" height="159.556"/>
				</defs>
				<clipPath id="SVGID_36_">
					<use xlink:href="#SVGID_35_"  overflow="visible"/>
				</clipPath>
				<path clip-path="url(#SVGID_36_)" fill="#E1812C" d="M541.109,376.763h23.275v-46.034h-23.275V376.763z"/>
			</g>
		</g>
		<g id="matplotlib.axis_4_1_">
			<g id="ytick_7_1_">
				<g id="line2d_19_1_">
					<g>
						<g>
							<path id="mf313588ff5_6_" stroke="#000000" stroke-width="0.8" stroke-linejoin="round" d="M395.64,402.818h-1.904"/>
						</g>
					</g>
				</g>
			</g>
			<g id="ytick_8_1_">
				<g id="line2d_20_1_">
					<g>
						<g>
							<path id="mf313588ff5_7_" stroke="#000000" stroke-width="0.8" stroke-linejoin="round" d="M395.64,376.763h-1.904"/>
						</g>
					</g>
				</g>
			</g>
			<g id="ytick_9_1_">
				<g id="line2d_21_1_">
					<g>
						<g>
							<path id="mf313588ff5_8_" stroke="#000000" stroke-width="0.8" stroke-linejoin="round" d="M395.64,350.709h-1.904"/>
						</g>
					</g>
				</g>
			</g>
			<g id="ytick_10_1_">
				<g id="line2d_22_1_">
					<g>
						<g>
							<path id="mf313588ff5_9_" stroke="#000000" stroke-width="0.8" stroke-linejoin="round" d="M395.64,324.653h-1.904"/>
						</g>
					</g>
				</g>
			</g>
			<g id="ytick_11_1_">
				<g id="line2d_23_1_">
					<g>
						<g>
							<path id="mf313588ff5_10_" stroke="#000000" stroke-width="0.8" stroke-linejoin="round" d="M395.64,298.6h-1.904"/>
						</g>
					</g>
				</g>
			</g>
			<g id="ytick_12_1_">
				<g id="line2d_24_1_">
					<g>
						<g>
							<path id="mf313588ff5_11_" stroke="#000000" stroke-width="0.8" stroke-linejoin="round" d="M395.64,272.544h-1.904"/>
						</g>
					</g>
				</g>
			</g>
		</g>
		<g id="line2d_25_1_">
			<g>
				<defs>
					<rect id="SVGID_37_" x="395.64" y="252.737" width="174.562" height="159.556"/>
				</defs>
				<clipPath id="SVGID_38_">
					<use xlink:href="#SVGID_37_"  overflow="visible"/>
				</clipPath>
				
					<path clip-path="url(#SVGID_38_)" fill="none" stroke="#424242" stroke-width="2.7" stroke-linecap="square" stroke-linejoin="round" d="
					M413.097,405.039v-74.331"/>
			</g>
		</g>
		<g id="line2d_26_1_">
			<g>
				<defs>
					<rect id="SVGID_39_" x="395.64" y="252.737" width="174.562" height="159.556"/>
				</defs>
				<clipPath id="SVGID_40_">
					<use xlink:href="#SVGID_39_"  overflow="visible"/>
				</clipPath>
				
					<path clip-path="url(#SVGID_40_)" fill="none" stroke="#424242" stroke-width="2.7" stroke-linecap="square" stroke-linejoin="round" d="
					M471.284,351.315v-51.437"/>
			</g>
		</g>
		<g id="line2d_27_1_">
			<g>
				<defs>
					<rect id="SVGID_41_" x="395.64" y="252.737" width="174.562" height="159.556"/>
				</defs>
				<clipPath id="SVGID_42_">
					<use xlink:href="#SVGID_41_"  overflow="visible"/>
				</clipPath>
				
					<path clip-path="url(#SVGID_42_)" fill="none" stroke="#424242" stroke-width="2.7" stroke-linecap="square" stroke-linejoin="round" d="
					M529.472,351.577V303.22"/>
			</g>
		</g>
		<g id="line2d_28_1_">
			<g>
				<defs>
					<rect id="SVGID_43_" x="395.64" y="252.737" width="174.562" height="159.556"/>
				</defs>
				<clipPath id="SVGID_44_">
					<use xlink:href="#SVGID_43_"  overflow="visible"/>
				</clipPath>
				
					<path clip-path="url(#SVGID_44_)" fill="none" stroke="#424242" stroke-width="2.7" stroke-linecap="square" stroke-linejoin="round" d="
					M436.374,335.238v-48.874"/>
			</g>
		</g>
		<g id="line2d_29_1_">
			<g>
				<defs>
					<rect id="SVGID_45_" x="395.64" y="252.737" width="174.562" height="159.556"/>
				</defs>
				<clipPath id="SVGID_46_">
					<use xlink:href="#SVGID_45_"  overflow="visible"/>
				</clipPath>
				
					<path clip-path="url(#SVGID_46_)" fill="none" stroke="#424242" stroke-width="2.7" stroke-linecap="square" stroke-linejoin="round" d="
					M494.56,327.841v-34.273"/>
			</g>
		</g>
		<g id="line2d_30_1_">
			<g>
				<defs>
					<rect id="SVGID_47_" x="395.64" y="252.737" width="174.562" height="159.556"/>
				</defs>
				<clipPath id="SVGID_48_">
					<use xlink:href="#SVGID_47_"  overflow="visible"/>
				</clipPath>
				
					<path clip-path="url(#SVGID_48_)" fill="none" stroke="#424242" stroke-width="2.7" stroke-linecap="square" stroke-linejoin="round" d="
					M552.747,353.802v-45.936"/>
			</g>
		</g>
		<g id="patch_18_1_">
			<path fill="none" stroke="#000000" stroke-width="0.8" stroke-linecap="square" d="M395.64,412.293V252.737"/>
		</g>
		<g id="patch_19_1_">
			<path fill="none" stroke="#000000" stroke-width="0.8" stroke-linecap="square" d="M395.64,412.293h174.562"/>
		</g>
	</g>
</g>
<g id="legend_1">
	<g id="patch_20">
		<path fill="#3274A1" d="M470-10.438h26.945v-8.461H470V-10.438z"/>
	</g>
	<g id="patch_21">
		<path fill="#E1812C" d="M470,7.297h26.945v-8.455H470V7.297z"/>
	</g>
	<text transform="matrix(1 0 0 1 463.8491 -33.7148)" font-family="'ArialMT'" font-size="10">Multi Echo</text>
	<text transform="matrix(1 0 0 1 507.6948 -11.7148)" font-family="'ArialMT'" font-size="10">1</text>
	<text transform="matrix(1 0 0 1 508.1948 6.7852)" font-family="'ArialMT'" font-size="10">4</text>
</g>
<g id="axes_1_2_">
	<g>
		<defs>
			<rect id="SVGID_49_" x="218.021" y="-84.022" width="149.262" height="143.168"/>
		</defs>
		<clipPath id="SVGID_50_">
			<use xlink:href="#SVGID_49_"  overflow="visible"/>
		</clipPath>
		<g clip-path="url(#SVGID_50_)">
			
				<image overflow="visible" enable-background="new    " width="208" height="199" id="image4b3ecd42e8" xlink:href="9145525B.png"  transform="matrix(0.72 0 0 -0.72 219.021 48.1616)">
			</image>
		</g>
	</g>
	<g id="text_1_2_">
		<g id="patch_2_2_">
			<path fill="none" d="M233.947-56.25h6.686v-11.614h-6.686V-56.25z"/>
			<text transform="matrix(1 0 0 1 233.9468 -60.7046)" font-family="'ArialMT'" font-size="10">L</text>
		</g>
	</g>
	<text transform="matrix(1 0 0 1 344.3784 -60.3911)" font-family="'ArialMT'" font-size="10">R</text>
	<text transform="matrix(1 0 0 1 225.1948 46.7852)" font-family="'ArialMT'" font-size="10">y = 11</text>
</g>
<g id="text_1_3_">
	<text transform="matrix(1 0 0 1 146.2515 -56.9277)" font-family="'ArialMT'" font-size="12">a.</text>
	<text transform="matrix(1 0 0 1 146.2515 81.6968)" font-family="'ArialMT'" font-size="12">b.</text>
	<text transform="matrix(1 0 0 1 146.2515 259.2227)" font-family="'ArialMT'" font-size="12">c.</text>
</g>
<g id="figure_1">
	<g id="axes_1">
		<g id="patch_3">
			<g>
				<defs>
					<rect id="SVGID_51_" x="208.73" y="61.826" width="174.542" height="157.342"/>
				</defs>
				<clipPath id="SVGID_52_">
					<use xlink:href="#SVGID_51_"  overflow="visible"/>
				</clipPath>
				<path clip-path="url(#SVGID_52_)" fill="#3274A1" d="M214.548,219.168h23.272v-80.51h-23.272V219.168z"/>
			</g>
		</g>
		<g id="patch_4">
			<g>
				<defs>
					<rect id="SVGID_53_" x="208.73" y="61.826" width="174.542" height="157.342"/>
				</defs>
				<clipPath id="SVGID_54_">
					<use xlink:href="#SVGID_53_"  overflow="visible"/>
				</clipPath>
				<path clip-path="url(#SVGID_54_)" fill="#3274A1" d="M272.729,219.168h23.272v-78.651h-23.272V219.168z"/>
			</g>
		</g>
		<g id="patch_5">
			<g>
				<defs>
					<rect id="SVGID_55_" x="208.73" y="61.826" width="174.542" height="157.342"/>
				</defs>
				<clipPath id="SVGID_56_">
					<use xlink:href="#SVGID_55_"  overflow="visible"/>
				</clipPath>
				<path clip-path="url(#SVGID_56_)" fill="#3274A1" d="M330.91,219.168h23.272v-73.69H330.91V219.168z"/>
			</g>
		</g>
		<g id="patch_6">
			<g>
				<defs>
					<rect id="SVGID_57_" x="208.73" y="61.826" width="174.542" height="157.342"/>
				</defs>
				<clipPath id="SVGID_58_">
					<use xlink:href="#SVGID_57_"  overflow="visible"/>
				</clipPath>
				<path clip-path="url(#SVGID_58_)" fill="#E1812C" d="M237.82,219.168h23.273V77.761H237.82V219.168z"/>
			</g>
		</g>
		<g id="patch_7">
			<g>
				<defs>
					<rect id="SVGID_59_" x="208.73" y="61.826" width="174.542" height="157.342"/>
				</defs>
				<clipPath id="SVGID_60_">
					<use xlink:href="#SVGID_59_"  overflow="visible"/>
				</clipPath>
				<path clip-path="url(#SVGID_60_)" fill="#E1812C" d="M296.001,219.168h23.273V105.111h-23.273V219.168z"/>
			</g>
		</g>
		<g id="patch_8">
			<g>
				<defs>
					<rect id="SVGID_61_" x="208.73" y="61.826" width="174.542" height="157.342"/>
				</defs>
				<clipPath id="SVGID_62_">
					<use xlink:href="#SVGID_61_"  overflow="visible"/>
				</clipPath>
				<path clip-path="url(#SVGID_62_)" fill="#E1812C" d="M354.182,219.168h23.273v-82.563h-23.273V219.168z"/>
			</g>
		</g>
		<g id="matplotlib.axis_1">
			<g id="xtick_1">
				<g id="line2d_1">
					<g>
						<g>
							<path id="mc794a9a6e6" stroke="#000000" stroke-width="0.8" stroke-linejoin="round" d="M237.82,219.168v1.877"/>
						</g>
					</g>
				</g>
			</g>
			<g id="xtick_2">
				<g id="line2d_2">
					<g>
						<g>
							<path id="mc794a9a6e6_1_" stroke="#000000" stroke-width="0.8" stroke-linejoin="round" d="M296.001,219.168v1.877"/>
						</g>
					</g>
				</g>
			</g>
			<g id="xtick_3">
				<g id="line2d_3">
					<g>
						<g>
							<path id="mc794a9a6e6_2_" stroke="#000000" stroke-width="0.8" stroke-linejoin="round" d="M354.182,219.168v1.877"/>
						</g>
					</g>
				</g>
			</g>
			<g id="matplotlib.axis_3">
				<text transform="matrix(1 0 0 1 290.7915 238.5908)" font-family="'ArialMT'" font-size="8">MB</text>
				<text transform="matrix(1 0 0 1 236.1245 227.5908)" font-family="'ArialMT'" font-size="6">1</text>
				<text transform="matrix(1 0 0 1 294.3618 227.5908)" font-family="'ArialMT'" font-size="6">3</text>
				<text transform="matrix(1 0 0 1 352.4995 227.5908)" font-family="'ArialMT'" font-size="6">6</text>
			</g>
		</g>
		<g id="matplotlib.axis_2">
			<g id="ytick_1">
				<g id="line2d_4">
					<g>
						<g>
							<path id="m7a7075d8d9" stroke="#000000" stroke-width="0.8" stroke-linejoin="round" d="M208.73,219.168h-1.878"/>
						</g>
					</g>
				</g>
				<g id="text_5">
					<g transform="translate(33.926857 321.839219)scale(0.1 -0.1)">
						<g>
							<path id="DejaVuSans-30" d="M1693.402,1041.957c-2.72,0-4.771-1.357-6.143-4.014c-1.367-2.686-2.061-6.709-2.061-12.09
								c0-5.371,0.693-9.395,2.061-12.061c1.372-2.676,3.423-4.014,6.143-4.014c2.739,0,4.8,1.338,6.172,4.014
								c1.372,2.666,2.056,6.689,2.056,12.061c0,5.381-0.684,9.404-2.056,12.09
								C1698.202,1040.599,1696.141,1041.957,1693.402,1041.957z M1693.402,1046.156c4.385,0,7.734-1.738,10.049-5.215
								c2.314-3.457,3.472-8.496,3.472-15.088c0-6.582-1.157-11.602-3.472-15.078s-5.664-5.215-10.049-5.215
								s-7.729,1.738-10.044,5.215s-3.467,8.496-3.467,15.078c0,6.592,1.152,11.631,3.467,15.088
								C1685.673,1044.418,1689.017,1046.156,1693.402,1046.156z"/>
						</g>
					</g>
				</g>
			</g>
			<g id="ytick_2">
				<g id="line2d_5">
					<g>
						<g>
							<path id="m7a7075d8d9_1_" stroke="#000000" stroke-width="0.8" stroke-linejoin="round" d="M208.73,189.759h-1.878"/>
						</g>
					</g>
				</g>
				<text transform="matrix(1 0 0 1 197.1948 74.0352)" font-family="'ArialMT'" font-size="6">50</text>
				<text transform="matrix(1 0 0 1 197.1948 103.5352)" font-family="'ArialMT'" font-size="6">40</text>
				<text transform="matrix(1 0 0 1 197.1948 133.4409)" font-family="'ArialMT'" font-size="6">30</text>
				<text transform="matrix(1 0 0 1 197.1948 162.5352)" font-family="'ArialMT'" font-size="6">20</text>
				<text transform="matrix(1 0 0 1 197.1948 197.5352)" font-family="'ArialMT'" font-size="6">10</text>
			</g>
			<g id="ytick_3">
				<g id="line2d_6">
					<g>
						<g>
							<path id="m7a7075d8d9_2_" stroke="#000000" stroke-width="0.8" stroke-linejoin="round" d="M208.73,160.349h-1.878"/>
						</g>
					</g>
				</g>
			</g>
			<g id="ytick_4">
				<g id="line2d_7">
					<g>
						<g>
							<path id="m7a7075d8d9_3_" stroke="#000000" stroke-width="0.8" stroke-linejoin="round" d="M208.73,130.938h-1.878"/>
						</g>
					</g>
				</g>
			</g>
			<g id="ytick_5">
				<g id="line2d_8">
					<g>
						<g>
							<path id="m7a7075d8d9_4_" stroke="#000000" stroke-width="0.8" stroke-linejoin="round" d="M208.73,101.529h-1.878"/>
						</g>
					</g>
				</g>
			</g>
			<g id="ytick_6">
				<g id="line2d_9">
					<g>
						<g>
							<path id="m7a7075d8d9_5_" stroke="#000000" stroke-width="0.8" stroke-linejoin="round" d="M208.73,72.119h-1.878"/>
						</g>
					</g>
				</g>
			</g>
			<text transform="matrix(4.489659e-011 -1 1 4.489659e-011 191.3633 153.1743)" font-family="'ArialMT'" font-size="8">TSNR</text>
		</g>
		<g id="line2d_10">
			<g>
				<defs>
					<rect id="SVGID_63_" x="208.73" y="61.826" width="174.542" height="157.342"/>
				</defs>
				<clipPath id="SVGID_64_">
					<use xlink:href="#SVGID_63_"  overflow="visible"/>
				</clipPath>
				
					<path clip-path="url(#SVGID_64_)" fill="none" stroke="#424242" stroke-width="2.7" stroke-linecap="square" stroke-linejoin="round" d="
					M226.184,149.725v-21.82"/>
			</g>
		</g>
		<g id="line2d_11">
			<g>
				<defs>
					<rect id="SVGID_65_" x="208.73" y="61.826" width="174.542" height="157.342"/>
				</defs>
				<clipPath id="SVGID_66_">
					<use xlink:href="#SVGID_65_"  overflow="visible"/>
				</clipPath>
				
					<path clip-path="url(#SVGID_66_)" fill="none" stroke="#424242" stroke-width="2.7" stroke-linecap="square" stroke-linejoin="round" d="
					M284.366,150.273v-19.53"/>
			</g>
		</g>
		<g id="line2d_12">
			<g>
				<defs>
					<rect id="SVGID_67_" x="208.73" y="61.826" width="174.542" height="157.342"/>
				</defs>
				<clipPath id="SVGID_68_">
					<use xlink:href="#SVGID_67_"  overflow="visible"/>
				</clipPath>
				
					<path clip-path="url(#SVGID_68_)" fill="none" stroke="#424242" stroke-width="2.7" stroke-linecap="square" stroke-linejoin="round" d="
					M342.546,153.745v-17.263"/>
			</g>
		</g>
		<g id="line2d_13">
			<g>
				<defs>
					<rect id="SVGID_69_" x="208.73" y="61.826" width="174.542" height="157.342"/>
				</defs>
				<clipPath id="SVGID_70_">
					<use xlink:href="#SVGID_69_"  overflow="visible"/>
				</clipPath>
				
					<path clip-path="url(#SVGID_70_)" fill="none" stroke="#424242" stroke-width="2.7" stroke-linecap="square" stroke-linejoin="round" d="
					M249.457,87.025V69.319"/>
			</g>
		</g>
		<g id="line2d_14">
			<g>
				<defs>
					<rect id="SVGID_71_" x="208.73" y="61.826" width="174.542" height="157.342"/>
				</defs>
				<clipPath id="SVGID_72_">
					<use xlink:href="#SVGID_71_"  overflow="visible"/>
				</clipPath>
				
					<path clip-path="url(#SVGID_72_)" fill="none" stroke="#424242" stroke-width="2.7" stroke-linecap="square" stroke-linejoin="round" d="
					M307.639,113.576V97.108"/>
			</g>
		</g>
		<g id="line2d_15">
			<g>
				<defs>
					<rect id="SVGID_73_" x="208.73" y="61.826" width="174.542" height="157.342"/>
				</defs>
				<clipPath id="SVGID_74_">
					<use xlink:href="#SVGID_73_"  overflow="visible"/>
				</clipPath>
				
					<path clip-path="url(#SVGID_74_)" fill="none" stroke="#424242" stroke-width="2.7" stroke-linecap="square" stroke-linejoin="round" d="
					M365.819,141.448V131.41"/>
			</g>
		</g>
		<g id="patch_9">
			<path fill="none" stroke="#000000" stroke-width="0.8" stroke-linecap="square" d="M208.73,219.168V61.826"/>
		</g>
		<g id="patch_10">
			<path fill="none" stroke="#000000" stroke-width="0.8" stroke-linecap="square" d="M208.73,219.168h174.542"/>
		</g>
		<text transform="matrix(1 0 0 1 269.9551 59.873)" font-family="'ArialMT'" font-size="6">HeadCoil = 64-channel</text>
	</g>
	<g id="axes_2">
		<g id="patch_12">
			<g>
				<defs>
					<rect id="SVGID_75_" x="390.951" y="61.826" width="174.543" height="157.342"/>
				</defs>
				<clipPath id="SVGID_76_">
					<use xlink:href="#SVGID_75_"  overflow="visible"/>
				</clipPath>
				<path clip-path="url(#SVGID_76_)" fill="#3274A1" d="M396.768,219.168h23.272v-78.276h-23.272V219.168z"/>
			</g>
		</g>
		<g id="patch_13">
			<g>
				<defs>
					<rect id="SVGID_77_" x="390.951" y="61.826" width="174.543" height="157.342"/>
				</defs>
				<clipPath id="SVGID_78_">
					<use xlink:href="#SVGID_77_"  overflow="visible"/>
				</clipPath>
				<path clip-path="url(#SVGID_78_)" fill="#3274A1" d="M454.95,219.168h23.272v-71.067H454.95V219.168z"/>
			</g>
		</g>
		<g id="patch_14">
			<g>
				<defs>
					<rect id="SVGID_79_" x="390.951" y="61.826" width="174.543" height="157.342"/>
				</defs>
				<clipPath id="SVGID_80_">
					<use xlink:href="#SVGID_79_"  overflow="visible"/>
				</clipPath>
				<path clip-path="url(#SVGID_80_)" fill="#3274A1" d="M513.129,219.168h23.273v-68.791h-23.273V219.168z"/>
			</g>
		</g>
		<g id="patch_15">
			<g>
				<defs>
					<rect id="SVGID_81_" x="390.951" y="61.826" width="174.543" height="157.342"/>
				</defs>
				<clipPath id="SVGID_82_">
					<use xlink:href="#SVGID_81_"  overflow="visible"/>
				</clipPath>
				<path clip-path="url(#SVGID_82_)" fill="#E1812C" d="M420.041,219.168h23.273V85.004h-23.273V219.168z"/>
			</g>
		</g>
		<g id="patch_16">
			<g>
				<defs>
					<rect id="SVGID_83_" x="390.951" y="61.826" width="174.543" height="157.342"/>
				</defs>
				<clipPath id="SVGID_84_">
					<use xlink:href="#SVGID_83_"  overflow="visible"/>
				</clipPath>
				<path clip-path="url(#SVGID_84_)" fill="#E1812C" d="M478.222,219.168h23.273v-92.071h-23.273V219.168z"/>
			</g>
		</g>
		<g id="patch_17">
			<g>
				<defs>
					<rect id="SVGID_85_" x="390.951" y="61.826" width="174.543" height="157.342"/>
				</defs>
				<clipPath id="SVGID_86_">
					<use xlink:href="#SVGID_85_"  overflow="visible"/>
				</clipPath>
				<path clip-path="url(#SVGID_86_)" fill="#E1812C" d="M536.403,219.168h23.274v-51.5h-23.274V219.168z"/>
			</g>
		</g>
		<g id="matplotlib.axis_4">
			<g id="ytick_7">
				<g id="line2d_19">
					<g>
						<g>
							<path id="m7a7075d8d9_6_" stroke="#000000" stroke-width="0.8" stroke-linejoin="round" d="M390.951,219.168h-1.879"/>
						</g>
					</g>
				</g>
			</g>
			<g id="ytick_8">
				<g id="line2d_20">
					<g>
						<g>
							<path id="m7a7075d8d9_7_" stroke="#000000" stroke-width="0.8" stroke-linejoin="round" d="M390.951,189.759h-1.879"/>
						</g>
					</g>
				</g>
			</g>
			<g id="ytick_9">
				<g id="line2d_21">
					<g>
						<g>
							<path id="m7a7075d8d9_8_" stroke="#000000" stroke-width="0.8" stroke-linejoin="round" d="M390.951,160.349h-1.879"/>
						</g>
					</g>
				</g>
			</g>
			<g id="ytick_10">
				<g id="line2d_22">
					<g>
						<g>
							<path id="m7a7075d8d9_9_" stroke="#000000" stroke-width="0.8" stroke-linejoin="round" d="M390.951,130.938h-1.879"/>
						</g>
					</g>
				</g>
			</g>
			<g id="ytick_11">
				<g id="line2d_23">
					<g>
						<g>
							<path id="m7a7075d8d9_10_" stroke="#000000" stroke-width="0.8" stroke-linejoin="round" d="M390.951,101.529h-1.879"/>
						</g>
					</g>
				</g>
			</g>
			<g id="ytick_12">
				<g id="line2d_24">
					<g>
						<g>
							<path id="m7a7075d8d9_11_" stroke="#000000" stroke-width="0.8" stroke-linejoin="round" d="M390.951,72.119h-1.879"/>
						</g>
					</g>
				</g>
			</g>
		</g>
		<g id="line2d_25">
			<g>
				<defs>
					<rect id="SVGID_87_" x="390.951" y="61.826" width="174.543" height="157.342"/>
				</defs>
				<clipPath id="SVGID_88_">
					<use xlink:href="#SVGID_87_"  overflow="visible"/>
				</clipPath>
				
					<path clip-path="url(#SVGID_88_)" fill="none" stroke="#424242" stroke-width="2.7" stroke-linecap="square" stroke-linejoin="round" d="
					M408.405,151.457v-19.971"/>
			</g>
		</g>
		<g id="line2d_26">
			<g>
				<defs>
					<rect id="SVGID_89_" x="390.951" y="61.826" width="174.543" height="157.342"/>
				</defs>
				<clipPath id="SVGID_90_">
					<use xlink:href="#SVGID_89_"  overflow="visible"/>
				</clipPath>
				
					<path clip-path="url(#SVGID_90_)" fill="none" stroke="#424242" stroke-width="2.7" stroke-linecap="square" stroke-linejoin="round" d="
					M466.586,158.281v-19.337"/>
			</g>
		</g>
		<g id="line2d_27">
			<g>
				<defs>
					<rect id="SVGID_91_" x="390.951" y="61.826" width="174.543" height="157.342"/>
				</defs>
				<clipPath id="SVGID_92_">
					<use xlink:href="#SVGID_91_"  overflow="visible"/>
				</clipPath>
				
					<path clip-path="url(#SVGID_92_)" fill="none" stroke="#424242" stroke-width="2.7" stroke-linecap="square" stroke-linejoin="round" d="
					M524.768,158.971v-16.632"/>
			</g>
		</g>
		<g id="line2d_28">
			<g>
				<defs>
					<rect id="SVGID_93_" x="390.951" y="61.826" width="174.543" height="157.342"/>
				</defs>
				<clipPath id="SVGID_94_">
					<use xlink:href="#SVGID_93_"  overflow="visible"/>
				</clipPath>
				
					<path clip-path="url(#SVGID_94_)" fill="none" stroke="#424242" stroke-width="2.7" stroke-linecap="square" stroke-linejoin="round" d="
					M431.677,94.79V76.774"/>
			</g>
		</g>
		<g id="line2d_29">
			<g>
				<defs>
					<rect id="SVGID_95_" x="390.951" y="61.826" width="174.543" height="157.342"/>
				</defs>
				<clipPath id="SVGID_96_">
					<use xlink:href="#SVGID_95_"  overflow="visible"/>
				</clipPath>
				
					<path clip-path="url(#SVGID_96_)" fill="none" stroke="#424242" stroke-width="2.7" stroke-linecap="square" stroke-linejoin="round" d="
					M489.857,137.093v-18.766"/>
			</g>
		</g>
		<g id="line2d_30">
			<g>
				<defs>
					<rect id="SVGID_97_" x="390.951" y="61.826" width="174.543" height="157.342"/>
				</defs>
				<clipPath id="SVGID_98_">
					<use xlink:href="#SVGID_97_"  overflow="visible"/>
				</clipPath>
				
					<path clip-path="url(#SVGID_98_)" fill="none" stroke="#424242" stroke-width="2.7" stroke-linecap="square" stroke-linejoin="round" d="
					M548.039,172.481v-9.071"/>
			</g>
		</g>
		<g id="patch_18">
			<path fill="none" stroke="#000000" stroke-width="0.8" stroke-linecap="square" d="M390.951,219.168V61.826"/>
		</g>
		<g id="patch_19">
			<path fill="none" stroke="#000000" stroke-width="0.8" stroke-linecap="square" d="M390.951,219.168h174.543"/>
		</g>
		<text transform="matrix(1 0 0 1 461.0278 59.873)" font-family="'ArialMT'" font-size="6">HeadCoil = 20-channel</text>
	</g>
</g>
<g id="matplotlib.axis_1_2_">
	<g id="xtick_1_2_">
		<g id="line2d_1_2_">
			<g>
				<g>
					<path id="mc794a9a6e6_5_" stroke="#000000" stroke-width="0.8" stroke-linejoin="round" d="M419.82,219.254v1.877"/>
				</g>
			</g>
		</g>
	</g>
	<g id="xtick_2_2_">
		<g id="line2d_2_2_">
			<g>
				<g>
					<path id="mc794a9a6e6_4_" stroke="#000000" stroke-width="0.8" stroke-linejoin="round" d="M478.001,219.254v1.877"/>
				</g>
			</g>
		</g>
	</g>
	<g id="xtick_3_2_">
		<g id="line2d_3_2_">
			<g>
				<g>
					<path id="mc794a9a6e6_3_" stroke="#000000" stroke-width="0.8" stroke-linejoin="round" d="M536.182,219.254v1.877"/>
				</g>
			</g>
		</g>
	</g>
	<g id="matplotlib.axis_3_2_">
		<text transform="matrix(1 0 0 1 472.7915 238.6768)" font-family="'ArialMT'" font-size="8">MB</text>
		<text transform="matrix(1 0 0 1 418.1245 227.6768)" font-family="'ArialMT'" font-size="6">1</text>
		<text transform="matrix(1 0 0 1 476.3618 227.6768)" font-family="'ArialMT'" font-size="6">3</text>
		<text transform="matrix(1 0 0 1 534.4995 227.6768)" font-family="'ArialMT'" font-size="6">6</text>
	</g>
</g>
</svg>
